SplineFontDB: 3.0
FontName: CourerMegaSSLight
FullName: Courer Mega SS Light
FamilyName: Courer Mega SS Light
Weight: Light
Copyright: Copyright (c) 2013 by Richard Alexander Hall. All rights reserved.
Version: 0.001 2013
ItalicAngle: 0
UnderlinePosition: -120
UnderlineWidth: 130
Ascent: 1638
Descent: 410
sfntRevision: 0x00000042
LayerCount: 2
Layer: 0 1 "Back"  1
Layer: 1 1 "Fore"  0
XUID: [1021 724 1758327272 7932024]
FSType: 0
OS2Version: 3
OS2_WeightWidthSlopeOnly: 0
OS2_UseTypoMetrics: 1
CreationTime: 1366792254
ModificationTime: 1366789002
PfmFamily: 17
TTFWeight: 300
TTFWidth: 5
LineGap: 0
VLineGap: 0
Panose: 2 0 5 9 0 0 0 2 0 4
OS2TypoAscent: 1421
OS2TypoAOffset: 0
OS2TypoDescent: -643
OS2TypoDOffset: 0
OS2TypoLinegap: 0
OS2WinAscent: 1797
OS2WinAOffset: 0
OS2WinDescent: 839
OS2WinDOffset: 0
HheadAscent: 1421
HheadAOffset: 0
HheadDescent: -643
HheadDOffset: 0
OS2SubXSize: 1434
OS2SubYSize: 1331
OS2SubXOff: 0
OS2SubYOff: 293
OS2SupXSize: 1434
OS2SupYSize: 1331
OS2SupXOff: 0
OS2SupYOff: 928
OS2StrikeYSize: 102
OS2StrikeYPos: 512
OS2FamilyClass: 1285
OS2Vendor: 'RAH7'
OS2CodePages: 00000093.00000000
OS2UnicodeRanges: a00000af.500068fb.00000000.00000000
DEI: 91125
TtTable: prep
PUSHW_1
 0
CALL
SVTCA[y-axis]
PUSHW_3
 1
 4
 7
CALL
PUSHW_1
 0
DUP
RCVT
RDTG
ROUND[Black]
RTG
WCVTP
EndTTInstrs
TtTable: fpgm
PUSHW_1
 0
FDEF
MPPEM
PUSHW_1
 9
LT
IF
PUSHB_2
 1
 1
INSTCTRL
EIF
PUSHW_1
 511
SCANCTRL
PUSHW_1
 68
SCVTCI
PUSHW_2
 9
 3
SDS
SDB
ENDF
PUSHW_1
 1
FDEF
DUP
DUP
RCVT
ROUND[Black]
WCVTP
PUSHB_1
 1
ADD
ENDF
PUSHW_1
 2
FDEF
PUSHW_1
 1
LOOPCALL
POP
ENDF
PUSHW_1
 3
FDEF
DUP
GC[cur]
PUSHB_1
 3
CINDEX
GC[cur]
GT
IF
SWAP
EIF
DUP
ROLL
DUP
ROLL
MD[grid]
ABS
ROLL
DUP
GC[cur]
DUP
ROUND[Grey]
SUB
ABS
PUSHB_1
 4
CINDEX
GC[cur]
DUP
ROUND[Grey]
SUB
ABS
GT
IF
SWAP
NEG
ROLL
EIF
MDAP[rnd]
DUP
PUSHB_1
 0
GTEQ
IF
ROUND[Black]
DUP
PUSHB_1
 0
EQ
IF
POP
PUSHB_1
 64
EIF
ELSE
ROUND[Black]
DUP
PUSHB_1
 0
EQ
IF
POP
PUSHB_1
 64
NEG
EIF
EIF
MSIRP[no-rp0]
ENDF
PUSHW_1
 4
FDEF
DUP
GC[cur]
PUSHB_1

StartChar: exclam
Encoding: 33 33 4
Width: 1228
Flags: W
LayerCount: 2
Fore
SplineSet
508.05 -22.9362 m 1,0,1
 465 16.4233 465 16.4233 465 71.5 c 128,-1,2
 465 126.586 465 126.586 507.318 165.224 c 0,3,4
 548.692 203 548.692 203 612.5 203 c 128,-1,5
 676.318 203 676.318 203 718.194 164.713 c 0,6,7
 761 125.576 761 125.576 761 71 c 0,8,9
 761 15.9176 761 15.9176 725.672 -14.1773 c 0,10,11
 671.999 -61 671.999 -61 612 -61 c 128,-1,12
 552.062 -61 552.062 -61 508.05 -22.9362 c 1,0,1
563.028 399.845 m 2,13,-1
 526.028 1167.85 l 2,14,15
 525.532 1178.14 525.532 1178.14 532.956 1185.57 c 128,-1,16
 540.38 1193 540.38 1193 550 1193 c 2,17,-1
 677 1193 l 2,18,19
 687.306 1193 687.306 1193 694.377 1185.23 c 128,-1,20
 701.448 1177.45 701.448 1177.45 700.971 1167.81 c 2,21,-1
 662.971 399.814 l 2,22,23
 662.496 390.231 662.496 390.231 655.251 383.616 c 128,-1,24
 648.005 377 648.005 377 639 377 c 2,25,-1
 587 377 l 2,26,27
 577.402 377 577.402 377 570.432 383.911 c 128,-1,28
 563.462 390.821 563.462 390.821 563.028 399.845 c 2,13,-1
EndSplineSet
EndChar

StartChar: quotedbl
Encoding: 34 34 5
Width: 1228
Flags: W
LayerCount: 2
Fore
SplineSet
731.017 594.097 m 2,0,-1
 710.017 1152.1 l 2,1,2
 709.63 1162.38 709.63 1162.38 717.13 1169.69 c 128,-1,3
 724.63 1177 724.63 1177 734 1177 c 2,4,-1
 887 1177 l 2,5,6
 897.288 1177 897.288 1177 904.312 1169.23 c 128,-1,7
 911.335 1161.46 911.335 1161.46 910.983 1152.1 c 2,8,-1
 889.983 594.097 l 2,9,10
 889.621 584.48 889.621 584.48 882.446 577.74 c 128,-1,11
 875.271 571 875.271 571 866 571 c 2,12,-1
 755 571 l 2,13,14
 745.376 571 745.376 571 738.371 577.916 c 128,-1,15
 731.366 584.833 731.366 584.833 731.017 594.097 c 2,0,-1
339.014 594.183 m 0,16,17
 328.039 916.54 328.039 916.54 318.022 1151.98 c 0,18,19
 317.584 1162.27 317.584 1162.27 325.049 1169.63 c 128,-1,20
 332.513 1177 332.513 1177 342 1177 c 2,21,-1
 496 1177 l 2,22,23
 506.288 1177 506.288 1177 513.312 1169.23 c 128,-1,24
 520.335 1161.46 520.335 1161.46 519.983 1152.1 c 2,25,-1
 498.983 594.097 l 2,26,27
 498.621 584.48 498.621 584.48 491.446 577.74 c 128,-1,28
 484.271 571 484.271 571 475 571 c 2,29,-1
 363 571 l 2,30,31
 353.367 571 353.367 571 346.35 577.918 c 128,-1,32
 339.332 584.836 339.332 584.836 339.014 594.183 c 0,16,17
EndSplineSet
EndChar

StartChar: numbersign
Encoding: 35 35 6
Width: 1228
Flags: W
LayerCount: 2
Fore
SplineSet
781.299 454 m 1,0,-1
 801.626 819 l 1,1,-1
 484.701 819 l 1,2,-1
 464.374 454 l 1,3,-1
 781.299 454 l 1,0,-1
809.364 957 m 1,4,-1
 834.041 1378.4 l 2,5,6
 834.601 1387.96 834.601 1387.96 841.898 1394.48 c 128,-1,7
 849.195 1401 849.195 1401 858 1401 c 2,8,-1
 909 1401 l 2,9,10
 919.323 1401 919.323 1401 926.44 1393.22 c 128,-1,11
 933.558 1385.45 933.558 1385.45 932.956 1375.54 c 2,12,-1
 907.504 957 l 1,13,-1
 1088 957 l 2,14,15
 1098 957 1098 957 1105 950 c 128,-1,16
 1112 943 1112 943 1112 933 c 2,17,-1
 1112 843 l 2,18,19
 1112 833 1112 833 1105 826 c 128,-1,20
 1098 819 1098 819 1088 819 c 2,21,-1
 900.701 819 l 1,22,-1
 880.374 454 l 1,23,-1
 1088 454 l 2,24,25
 1098 454 1098 454 1105 447 c 128,-1,26
 1112 440 1112 440 1112 430 c 2,27,-1
 1112 341 l 2,28,29
 1112 331 1112 331 1105 324 c 128,-1,30
 1098 317 1098 317 1088 317 c 2,31,-1
 873.647 317 l 1,32,-1
 847.96 -125.391 l 2,33,34
 847.405 -134.947 847.405 -134.947 840.11 -141.473 c 128,-1,35
 832.816 -148 832.816 -148 824 -148 c 2,36,-1
 773 -148 l 2,37,38
 762.681 -148 762.681 -148 755.575 -140.224 c 128,-1,39
 748.469 -132.447 748.469 -132.447 749.04 -122.609 c 2,40,-1
 774.566 317 l 1,41,-1
 456.008 317 l 1,42,43
 451.471 215.841 451.471 215.841 432.965 -125.3 c 0,44,45
 432.446 -134.868 432.446 -134.868 425.172 -141.434 c 128,-1,46
 417.899 -148 417.899 -148 409 -148 c 2,47,-1
 358 -148 l 2,48,49
 347.694 -148 347.694 -148 340.623 -140.227 c 128,-1,50
 333.552 -132.453 333.552 -132.453 334.029 -122.814 c 2,51,-1
 355.784 317 l 1,52,-1
 177 317 l 2,53,54
 167 317 167 317 160 324 c 128,-1,55
 153 331 153 331 153 341 c 2,56,-1
 153 430 l 2,57,58
 153 440 153 440 160 447 c 128,-1,59
 167 454 167 454 177 454 c 2,60,-1
 364.463 454 l 1,61,-1
 387.442 819 l 1,62,-1
 177 819 l 2,63,64
 167 819 167 819 160 826 c 128,-1,65
 153 833 153 833 153 843 c 2,66,-1
 153 933 l 2,67,68
 153 943 153 943 160 950 c 128,-1,69
 167 957 167 957 177 957 c 2,70,-1
 393.364 957 l 1,71,-1
 418.041 1378.4 l 2,72,73
 418.601 1387.96 418.601 1387.96 425.898 1394.48 c 128,-1,74
 433.195 1401 433.195 1401 442 1401 c 2,75,-1
 493 1401 l 2,76,77
 503.323 1401 503.323 1401 510.44 1393.22 c 128,-1,78
 517.558 1385.45 517.558 1385.45 516.956 1375.54 c 2,79,-1
 491.504 957 l 1,80,-1
 809.364 957 l 1,4,-1
EndSplineSet
EndChar

StartChar: dollar
Encoding: 36 36 7
Width: 1228
Flags: W
LayerCount: 2
Fore
SplineSet
678 107.131 m 1,0,1
 786.358 121.856 786.358 121.856 833.863 149.705 c 0,2,3
 887.067 180.895 887.067 180.895 911.494 217.757 c 0,4,5
 935 253.231 935 253.231 935 300 c 0,6,7
 935 348.634 935 348.634 921.284 377.781 c 0,8,9
 907.276 407.549 907.276 407.549 884.207 428.877 c 0,10,11
 860.325 450.958 860.325 450.958 830.529 465.404 c 0,12,13
 798.884 480.748 798.884 480.748 766.31 491.765 c 0,14,15
 733.368 502.908 733.368 502.908 702.941 510.153 c 0,16,17
 689.76 513.291 689.76 513.291 678 516.354 c 1,18,-1
 678 107.131 l 1,0,1
577 1068.97 m 1,19,20
 458.225 1052.42 458.225 1052.42 405.022 1004.13 c 0,21,22
 343 949.198 343 949.198 343 861 c 0,23,24
 343 792.17 343 792.17 382.699 745.884 c 128,-1,25
 422.398 699.598 422.398 699.598 507.254 672.878 c 0,26,27
 541.799 661.824 541.799 661.824 577 650.712 c 1,28,-1
 577 1068.97 l 1,19,20
1006.73 739.155 m 0,29,30
 973.08 735.311 973.08 735.311 961.397 732.615 c 0,31,32
 951.394 730.306 951.394 730.306 942.855 736.305 c 128,-1,33
 934.317 742.304 934.317 742.304 932.493 751.16 c 0,34,35
 892.292 946.412 892.292 946.412 787.348 1026.99 c 0,36,37
 764.543 1044.65 764.543 1044.65 678 1065.03 c 1,38,-1
 678 620.948 l 1,39,40
 696.507 615.612 696.507 615.612 709.821 612.283 c 0,41,42
 730.134 607.205 730.134 607.205 748.546 602.091 c 0,43,44
 787.34 590.86 787.34 590.86 828.357 574.506 c 1,45,46
 1045 499.629 1045 499.629 1045 310 c 0,47,48
 1045 177.222 1045 177.222 938.585 94.9396 c 1,49,50
 840.73 20.8092 840.73 20.8092 678 6.66367 c 1,51,-1
 678 -295 l 2,52,53
 678 -305 678 -305 671 -312 c 128,-1,54
 664 -319 664 -319 654 -319 c 2,55,-1
 601 -319 l 2,56,57
 591 -319 591 -319 584 -312 c 128,-1,58
 577 -305 577 -305 577 -295 c 2,59,-1
 577 7.44915 l 1,60,61
 503.371 13.2444 503.371 13.2444 446.411 32.2316 c 0,62,63
 444.618 32.8293 444.618 32.8293 442.94 33.7001 c 0,64,65
 367.663 72.7871 367.663 72.7871 315.446 123.431 c 1,66,67
 316.337 101.895 316.337 101.895 317.919 74.1041 c 1,68,69
 321.091 46.5659 321.091 46.5659 317.863 16.4432 c 0,70,71
 316.884 7.29947 316.884 7.29947 309.746 1.14974 c 128,-1,72
 302.609 -5 302.609 -5 294 -5 c 2,73,-1
 243 -5 l 2,74,75
 232.72 -5 232.72 -5 225.717 2.76786 c 128,-1,76
 218.714 10.5357 218.714 10.5357 219.012 19.7738 c 2,77,-1
 220 50.3868 l 1,78,-1
 220 82 l 2,79,80
 220 113.66 220 113.66 219.007 146.398 c 0,81,82
 215.564 259.91 215.564 259.91 200.176 386.095 c 0,83,84
 198.861 396.883 198.861 396.883 206.414 404.942 c 128,-1,85
 213.967 413 213.967 413 224 413 c 2,86,-1
 276 413 l 2,87,88
 285.206 413 285.206 413 291.865 406.603 c 128,-1,89
 298.524 400.206 298.524 400.206 299.812 392.078 c 1,90,91
 302.036 386.592 302.036 386.592 301.986 380.112 c 1,92,93
 331.136 232.998 331.136 232.998 417.21 169.341 c 0,94,95
 477.76 125.157 477.76 125.157 577 107.09 c 1,96,-1
 577 541.95 l 1,97,98
 500.277 560.051 500.277 560.051 480.308 568.33 c 128,-1,99
 460.241 576.65 460.241 576.65 432.203 586.98 c 0,100,101
 401.466 598.304 401.466 598.304 364.438 621.05 c 0,102,103
 326.287 644.487 326.287 644.487 297.736 677.429 c 0,104,105
 240.503 745.667 240.503 745.667 234.041 856.604 c 0,106,107
 234 857.302 234 857.302 234 858 c 0,108,109
 234 994.129 234 994.129 330.493 1075.82 c 0,110,111
 418.095 1149.98 418.095 1149.98 577 1167.78 c 1,112,-1
 577 1370 l 2,113,114
 577 1380 577 1380 584 1387 c 128,-1,115
 591 1394 591 1394 601 1394 c 2,116,-1
 654 1394 l 2,117,118
 664 1394 664 1394 671 1387 c 128,-1,119
 678 1380 678 1380 678 1370 c 2,120,-1
 678 1167.71 l 1,121,122
 837.208 1134.91 837.208 1134.91 887.643 1080.27 c 0,123,124
 897.116 1069.98 897.116 1069.98 905.096 1061.26 c 1,125,126
 905.05 1065.58 905.05 1065.58 905 1069.86 c 0,127,128
 905 1091.36 905 1091.36 910.154 1136.71 c 0,129,130
 911.189 1145.83 911.189 1145.83 918.357 1151.91 c 128,-1,131
 925.524 1158 925.524 1158 934 1158 c 2,132,-1
 986 1158 l 2,133,134
 996.865 1158 996.865 1158 1003.93 1149.53 c 128,-1,135
 1011 1141.06 1011 1141.06 1009.84 1131.2 c 0,136,137
 1008 1115.59 1008 1115.59 1008 1106 c 2,138,-1
 1008 1085 l 2,139,140
 1008 932.557 1008 932.557 1027.83 765.837 c 0,141,142
 1029.04 755.677 1029.04 755.677 1022.15 747.904 c 128,-1,143
 1015.26 740.131 1015.26 740.131 1006.73 739.155 c 0,29,30
EndSplineSet
EndChar

StartChar: percent
Encoding: 37 37 8
Width: 1228
Flags: W
LayerCount: 2
Fore
SplineSet
183.275 497.941 m 2,0,-1
 1002.28 860.941 l 2,1,2
 1011.75 864.822 1011.75 864.822 1020.96 861.022 c 128,-1,3
 1030.16 857.223 1030.16 857.223 1033.93 848.747 c 2,4,-1
 1057.93 794.747 l 2,5,6
 1061.91 785.788 1061.91 785.788 1058.31 776.419 c 128,-1,7
 1054.71 767.05 1054.71 767.05 1045.75 763.069 c 2,8,-1
 226.747 399.069 l 2,9,10
 217.394 394.912 217.394 394.912 207.927 399.196 c 128,-1,11
 198.459 403.481 198.459 403.481 195.003 411.401 c 2,12,-1
 171.003 466.401 l 2,13,14
 167.025 475.517 167.025 475.517 170.962 484.873 c 128,-1,15
 174.898 494.228 174.898 494.228 183.275 497.941 c 2,0,-1
245.242 852.695 m 0,16,17
 299.167 797 299.167 797 382 797 c 128,-1,18
 464.831 797 464.831 797 518.256 852.192 c 0,19,20
 572 907.715 572 907.715 572 986 c 128,-1,21
 572 1064.29 572 1064.29 518.754 1119.31 c 0,22,23
 465.829 1174 465.829 1174 381.5 1174 c 128,-1,24
 297.346 1174 297.346 1174 244.445 1118.02 c 0,25,26
 191 1061.46 191 1061.46 191 985 c 128,-1,27
 191 908.717 191 908.717 245.242 852.695 c 0,16,17
603.545 1182.38 m 0,28,29
 687 1093.5 687 1093.5 687 982.5 c 128,-1,30
 687 871.371 687 871.371 604.348 784.916 c 0,31,32
 521.256 698 521.256 698 384 698 c 128,-1,33
 246.928 698 246.928 698 161.37 785.191 c 128,-1,34
 76 872.19 76 872.19 76 983.5 c 128,-1,35
 76 1094.63 76 1094.63 161.163 1183.6 c 0,36,37
 246.745 1273 246.745 1273 383 1273 c 0,38,39
 519.477 1273 519.477 1273 603.545 1182.38 c 0,28,29
631 245 m 0,40,41
 631 167.825 631 167.825 685.238 112.7 c 1,42,43
 740.273 55 740.273 55 823.5 55 c 128,-1,44
 906.601 55 906.601 55 959.491 111.415 c 0,45,46
 1013 168.489 1013 168.489 1013 244 c 128,-1,47
 1013 319.452 1013 319.452 959.555 376.017 c 0,48,49
 906.661 432 906.661 432 821.5 432 c 128,-1,50
 736.346 432 736.346 432 683.948 376.521 c 0,51,52
 631 320.459 631 320.459 631 245 c 0,40,41
1127 243 m 0,53,54
 1127 86.5198 1127 86.5198 987.522 1.52548 c 0,55,56
 911.785 -45 911.785 -45 830.5 -45 c 0,57,58
 750.885 -45 750.885 -45 694.713 -19.9139 c 0,59,60
 639.163 4.8946 639.163 4.8946 598.864 45.1952 c 1,61,62
 517 130.333 517 130.333 517 243 c 0,63,64
 517 350.39 517 350.39 596.352 436.265 c 0,65,66
 683.464 531 683.464 531 821 531 c 0,67,68
 964.853 531 964.853 531 1051.95 431.93 c 1,69,70
 1127 348.182 1127 348.182 1127 243 c 0,53,54
EndSplineSet
EndChar

StartChar: ampersand
Encoding: 38 38 9
Width: 1228
Flags: W
LayerCount: 2
Fore
SplineSet
510.916 547.53 m 1,0,1
 416.867 507.762 416.867 507.762 372.434 447.188 c 128,-1,2
 328 386.615 328 386.615 328 301 c 0,3,4
 328 198.928 328 198.928 379.172 139.678 c 0,5,6
 440.099 68.8942 440.099 68.8942 533.115 68 c 0,7,8
 612.061 68 612.061 68 705.029 160.971 c 0,9,10
 724.071 180.012 724.071 180.012 743.744 201.955 c 1,11,-1
 510.916 547.53 l 1,0,1
997.013 480 m 1,12,13
 948.731 344.047 948.731 344.047 882.882 213.841 c 1,14,-1
 978.605 75 l 1,15,-1
 1117 75 l 2,16,17
 1127 75 1127 75 1134 68 c 128,-1,18
 1141 61 1141 61 1141 51 c 2,19,-1
 1141 0 l 2,20,21
 1141 -10 1141 -10 1134 -17 c 128,-1,22
 1127 -24 1127 -24 1117 -24 c 2,23,-1
 909 -24 l 2,24,25
 896.419 -24 896.419 -24 889.263 -13.654 c 2,26,-1
 805.656 107.202 l 1,27,28
 755.787 51.6689 755.787 51.6689 737.552 39.1926 c 2,29,-1
 699.552 13.1926 l 2,30,31
 697.588 11.8488 697.588 11.8488 694.823 10.6717 c 0,32,33
 616.749 -41 616.749 -41 527 -41 c 0,34,35
 423.397 -41 423.397 -41 375.634 -12.5691 c 0,36,37
 316.271 23.4721 316.271 23.4721 277.761 68.4008 c 0,38,39
 207.397 150.673 207.397 150.673 201.028 291.844 c 0,40,41
 194.782 413.656 194.782 413.656 257.704 497.106 c 0,42,43
 259.594 500.817 259.594 500.817 260.9 502.533 c 0,44,45
 326.391 588.606 326.391 588.606 441.098 644.569 c 1,46,47
 384.047 713.843 384.047 713.843 352.229 781.9 c 0,48,49
 327 836.745 327 836.745 327 893.5 c 128,-1,50
 327 950.293 327 950.293 348.225 996.091 c 0,51,52
 369.354 1041.68 369.354 1041.68 406.11 1073.99 c 0,53,54
 483.888 1143 483.888 1143 606 1143 c 0,55,56
 725.339 1143 725.339 1143 883.863 1052.86 c 0,57,58
 896 1045.96 896 1045.96 896 1032 c 2,59,-1
 896 913 l 2,60,61
 896 903 896 903 889 896 c 128,-1,62
 882 889 882 889 872 889 c 2,63,-1
 815 889 l 2,64,65
 805 889 805 889 798 896 c 128,-1,66
 791 903 791 903 791 913 c 2,67,-1
 791 980.887 l 1,68,69
 754.106 1004.93 754.106 1004.93 662.191 1030.7 c 1,70,71
 637.811 1036 637.811 1036 598 1036 c 0,72,73
 520.797 1036 520.797 1036 488.96 1000.08 c 0,74,75
 488.573 999.644 488.573 999.644 488.164 999.226 c 0,76,77
 452 962.219 452 962.219 452 906 c 0,78,79
 452 851.944 452 851.944 496.255 776.897 c 1,80,-1
 811.027 316.346 l 1,81,82
 855.064 411.521 855.064 411.521 875.793 462.101 c 0,83,84
 899.981 521.121 899.981 521.121 908.533 561.029 c 0,85,86
 910.302 569.283 910.302 569.283 917.057 574.666 c 128,-1,87
 923.812 580.049 923.812 580.049 932.142 580 c 2,88,-1
 1101.14 579 l 2,89,90
 1111.09 578.941 1111.09 578.941 1118.04 571.55 c 128,-1,91
 1125 564.159 1125 564.159 1125 555 c 2,92,-1
 1125 504 l 2,93,94
 1125 494 1125 494 1118 487 c 128,-1,95
 1111 480 1111 480 1101 480 c 2,96,-1
 997.013 480 l 1,12,13
EndSplineSet
EndChar

StartChar: quotesingle
Encoding: 39 39 10
Width: 1228
Flags: W
LayerCount: 2
Fore
SplineSet
532.059 590.324 m 0,0,1
 511.054 890.414 511.054 890.414 495.045 1151.53 c 0,2,3
 494.413 1161.84 494.413 1161.84 501.741 1169.42 c 128,-1,4
 509.068 1177 509.068 1177 519 1177 c 2,5,-1
 710 1177 l 2,6,7
 720.335 1177 720.335 1177 727.49 1169.22 c 128,-1,8
 734.644 1161.44 734.644 1161.44 733.942 1151.34 c 2,9,-1
 694.942 590.336 l 2,10,11
 694.281 580.819 694.281 580.819 686.923 574.41 c 128,-1,12
 679.566 568 679.566 568 671 568 c 2,13,-1
 556 568 l 2,14,15
 546.462 568 546.462 568 539.559 574.895 c 128,-1,16
 532.656 581.789 532.656 581.789 532.059 590.324 c 0,0,1
EndSplineSet
EndChar

StartChar: parenleft
Encoding: 40 40 11
Width: 1228
Flags: W
LayerCount: 2
Fore
SplineSet
862.94 -221.176 m 0,0,1
 750.256 -49.6035 750.256 -49.6035 675.237 170.392 c 1,2,3
 601 397.182 601 397.182 601 572 c 0,4,5
 601 742.711 601 742.711 674.221 972.562 c 1,6,7
 752.281 1198.65 752.281 1198.65 863.957 1368.2 c 0,8,9
 871.07 1379 871.07 1379 884 1379 c 2,10,-1
 941 1379 l 2,11,12
 951 1379 951 1379 958 1372 c 128,-1,13
 965 1365 965 1365 965 1355 c 0,14,15
 965 1349.33 965 1349.33 962.466 1344.27 c 0,16,17
 949.058 1317.45 949.058 1317.45 942.58 1306.65 c 0,18,19
 936.906 1297.19 936.906 1297.19 932.711 1289.27 c 0,20,21
 927.914 1280.21 927.914 1280.21 923.08 1272.15 c 0,22,23
 919.058 1265.45 919.058 1265.45 911.427 1251.18 c 0,24,25
 836.226 1093.72 836.226 1093.72 799.87 980.723 c 0,26,27
 729 755.305 729 755.305 729 572 c 0,28,29
 729 255.738 729 255.738 916.486 -112.304 c 1,30,-1
 934.719 -149.783 l 2,31,32
 939.252 -159.756 939.252 -159.756 945.501 -170.021 c 0,33,34
 953.02 -182.374 953.02 -182.374 960.466 -197.267 c 0,35,36
 964.851 -206.036 964.851 -206.036 961.677 -215.559 c 128,-1,37
 958.502 -225.081 958.502 -225.081 949.733 -229.466 c 0,38,39
 944.666 -232 944.666 -232 939 -232 c 2,40,-1
 883 -232 l 2,41,42
 870.049 -232 870.049 -232 862.94 -221.176 c 0,0,1
EndSplineSet
EndChar

StartChar: parenright
Encoding: 41 41 12
Width: 1228
Flags: W
LayerCount: 2
Fore
SplineSet
306.162 -196.093 m 0,0,1
 317.835 -175.665 317.835 -175.665 324.447 -162.441 c 0,2,3
 336.511 -137.307 336.511 -137.307 346.15 -118.537 c 0,4,5
 355.483 -100.364 355.483 -100.364 368.491 -75.3423 c 1,6,7
 385.254 -39.7344 385.254 -39.7344 435.734 86.9574 c 0,8,9
 538 338.692 538 338.692 538 572 c 0,10,11
 538 809.236 538 809.236 440.71 1044.1 c 1,12,13
 386.086 1186.12 386.086 1186.12 304.67 1344 c 0,14,15
 300.176 1352.71 300.176 1352.71 303.231 1362.27 c 128,-1,16
 306.285 1371.84 306.285 1371.84 314.999 1376.33 c 0,17,18
 320.176 1379 320.176 1379 326 1379 c 2,19,-1
 382 1379 l 2,20,21
 395.196 1379 395.196 1379 402.265 1367.86 c 0,22,23
 588.758 1073.93 588.758 1073.93 647.611 756.305 c 0,24,25
 665 659.128 665 659.128 665 572 c 0,26,27
 665 397.15 665 397.15 591.774 175.426 c 0,28,29
 520.813 -36.4575 520.813 -36.4575 402.188 -220.978 c 0,30,31
 395.103 -232 395.103 -232 382 -232 c 2,32,-1
 327 -232 l 2,33,34
 317 -232 317 -232 310 -225 c 128,-1,35
 303 -218 303 -218 303 -208 c 0,36,37
 303 -201.627 303 -201.627 306.162 -196.093 c 0,0,1
EndSplineSet
EndChar

StartChar: asterisk
Encoding: 42 42 13
Width: 1228
Flags: W
LayerCount: 2
Fore
SplineSet
672.389 854.789 m 1,0,-1
 951.787 956.551 l 2,1,2
 961.449 960.07 961.449 960.07 970.695 955.17 c 128,-1,3
 979.941 950.27 979.941 950.27 982.819 941.435 c 2,4,-1
 1011.82 852.435 l 2,5,6
 1015.01 842.646 1015.01 842.646 1009.8 833.543 c 128,-1,7
 1004.6 824.439 1004.6 824.439 995.46 821.886 c 2,8,-1
 708.5 741.68 l 1,9,-1
 894.706 510.036 l 2,10,11
 901.075 501.524 901.075 501.524 899.464 491.42 c 128,-1,12
 897.853 481.316 897.853 481.316 890.279 475.71 c 2,13,-1
 813.279 418.71 l 2,14,15
 804.645 412.646 804.645 412.646 794.507 414.649 c 128,-1,16
 784.368 416.653 784.368 416.653 779.009 424.72 c 2,17,-1
 612.775 674.964 l 1,18,19
 561.124 598.367 561.124 598.367 447.056 424.818 c 0,20,21
 441.398 416.21 441.398 416.21 430.82 414.55 c 128,-1,22
 420.241 412.89 420.241 412.89 412.913 418.569 c 0,23,24
 372.665 447.75 372.665 447.75 335.517 475.862 c 0,25,26
 327.324 482.063 327.324 482.063 326.409 492.791 c 128,-1,27
 325.494 503.519 325.494 503.519 331.294 510.036 c 2,28,-1
 517.531 741.718 l 1,29,-1
 228.51 822.894 l 2,30,31
 218.58 825.683 218.58 825.683 213.855 835.086 c 128,-1,32
 209.129 844.49 209.129 844.49 212.284 853.744 c 2,33,-1
 242.284 941.744 l 2,34,35
 245.594 951.454 245.594 951.454 255.187 955.533 c 128,-1,36
 264.781 959.612 264.781 959.612 273.19 956.559 c 2,37,-1
 553.19 854.903 l 1,38,39
 546.427 992.05 546.427 992.05 542.009 1149.33 c 0,40,41
 541.721 1159.59 541.721 1159.59 549.288 1166.8 c 128,-1,42
 556.856 1174 556.856 1174 566 1174 c 2,43,-1
 660 1174 l 2,44,45
 670.291 1174 670.291 1174 677.321 1166.23 c 128,-1,46
 684.352 1158.46 684.352 1158.46 683.981 1149.06 c 2,47,-1
 672.389 854.789 l 1,0,-1
EndSplineSet
EndChar

StartChar: plus
Encoding: 43 43 14
Width: 1228
Flags: W
LayerCount: 2
Fore
SplineSet
1097 566 m 2,0,-1
 668 566 l 1,1,-1
 668 147 l 2,2,3
 668 137 668 137 661 130 c 128,-1,4
 654 123 654 123 644 123 c 2,5,-1
 586 123 l 2,6,7
 576 123 576 123 569 130 c 128,-1,8
 562 137 562 137 562 147 c 2,9,-1
 562 566 l 1,10,-1
 133 566 l 2,11,12
 123 566 123 566 116 573 c 128,-1,13
 109 580 109 580 109 590 c 2,14,-1
 109 648 l 2,15,16
 109 658 109 658 116 665 c 128,-1,17
 123 672 123 672 133 672 c 2,18,-1
 562 672 l 1,19,-1
 562 1092 l 2,20,21
 562 1102 562 1102 569 1109 c 128,-1,22
 576 1116 576 1116 586 1116 c 2,23,-1
 644 1116 l 2,24,25
 654 1116 654 1116 661 1109 c 128,-1,26
 668 1102 668 1102 668 1092 c 2,27,-1
 668 672 l 1,28,-1
 1097 672 l 2,29,30
 1107 672 1107 672 1114 665 c 128,-1,31
 1121 658 1121 658 1121 648 c 2,32,-1
 1121 590 l 2,33,34
 1121 580 1121 580 1114 573 c 128,-1,35
 1107 566 1107 566 1097 566 c 2,0,-1
EndSplineSet
EndChar

StartChar: comma
Encoding: 44 44 15
Width: 1228
Flags: W
LayerCount: 2
Fore
SplineSet
367.095 -193.833 m 2,0,-1
 515.095 279.167 l 2,1,2
 520.363 296 520.363 296 538 296 c 2,3,-1
 706 296 l 2,4,5
 716 296 716 296 723 289 c 128,-1,6
 730 282 730 282 730 272 c 0,7,8
 730 266.846 730 266.846 727.884 262.145 c 2,9,-1
 514.884 -210.855 l 2,10,11
 508.514 -225 508.514 -225 493 -225 c 2,12,-1
 390 -225 l 2,13,14
 380 -225 380 -225 373 -218 c 128,-1,15
 366 -211 366 -211 366 -201 c 0,16,17
 366 -197.333 366 -197.333 367.095 -193.833 c 2,0,-1
EndSplineSet
EndChar

StartChar: hyphen
Encoding: 45 45 16
Width: 1228
Flags: W
LayerCount: 2
Fore
SplineSet
816 557 m 2,0,-1
 408 557 l 2,1,2
 398 557 398 557 391 564 c 128,-1,3
 384 571 384 571 384 581 c 2,4,-1
 384 649 l 2,5,6
 384 659 384 659 391 666 c 128,-1,7
 398 673 398 673 408 673 c 2,8,-1
 816 673 l 2,9,10
 826 673 826 673 833 666 c 128,-1,11
 840 659 840 659 840 649 c 2,12,-1
 840 581 l 2,13,14
 840 571 840 571 833 564 c 128,-1,15
 826 557 826 557 816 557 c 2,0,-1
EndSplineSet
EndChar

StartChar: period
Encoding: 46 46 17
Width: 1228
Flags: W
LayerCount: 2
Fore
SplineSet
778 105 m 128,-1,1
 778 43.0349 778 43.0349 728.71 0.356164 c 0,2,3
 680.947 -41 680.947 -41 614 -41 c 128,-1,4
 547.047 -41 547.047 -41 510.295 -9.14805 c 0,5,6
 450 43.0306 450 43.0306 450 105 c 128,-1,7
 450 166.965 450 166.965 499.29 209.644 c 0,8,9
 547.052 251 547.052 251 614 251 c 128,-1,10
 680.954 251 680.954 251 717.705 219.148 c 0,11,0
 778 166.97 778 166.97 778 105 c 128,-1,1
EndSplineSet
EndChar

StartChar: slash
Encoding: 47 47 18
Width: 1228
Flags: W
LayerCount: 2
Fore
SplineSet
198.194 -231.976 m 2,0,-1
 962.194 1430.02 l 2,1,2
 966.204 1438.75 966.204 1438.75 975.55 1442.26 c 128,-1,3
 984.895 1445.76 984.895 1445.76 992.995 1442.25 c 2,4,-1
 1039.99 1423.25 l 2,5,6
 1049.55 1419.39 1049.55 1419.39 1053.25 1409.34 c 128,-1,7
 1056.95 1399.3 1056.95 1399.3 1052.81 1390.98 c 2,8,-1
 287.808 -274.02 l 2,9,10
 283.528 -283.335 283.528 -283.335 273.188 -286.521 c 128,-1,11
 262.848 -289.707 262.848 -289.707 255.645 -285.651 c 2,12,-1
 209.645 -263.651 l 2,13,14
 200.69 -259.368 200.69 -259.368 197.485 -249.456 c 128,-1,15
 194.279 -239.544 194.279 -239.544 198.194 -231.976 c 2,0,-1
EndSplineSet
EndChar

StartChar: zero
Encoding: 48 48 19
Width: 1228
Flags: W
LayerCount: 2
Fore
SplineSet
911 638 m 0,0,1
 911 835.785 911 835.785 877.733 958.099 c 1,2,3
 870.081 990.617 870.081 990.617 858.824 1017.82 c 0,4,5
 858.554 1018.47 858.554 1018.47 858.324 1019.14 c 0,6,7
 851.484 1038.87 851.484 1038.87 843.468 1057.44 c 1,8,-1
 472.3 89.5583 l 1,9,10
 538.212 44 538.212 44 602 44 c 0,11,12
 673.554 44 673.554 44 715.475 68.2702 c 0,13,14
 759.505 93.7613 759.505 93.7613 786.372 124.728 c 0,15,16
 813.959 156.525 813.959 156.525 834.6 196.865 c 0,17,18
 911 348.705 911 348.705 911 638 c 0,0,1
1024 635 m 0,19,20
 1024 306.07 1024 306.07 920.815 131.048 c 1,21,22
 818.537 -51 818.537 -51 613 -51 c 0,23,24
 513.609 -51 513.609 -51 435.835 -5.53067 c 1,25,-1
 389.409 -126.593 l 2,26,27
 385.737 -136.168 385.737 -136.168 376 -139.877 c 128,-1,28
 366.263 -143.586 366.263 -143.586 358.013 -140.254 c 2,29,-1
 306.013 -119.254 l 2,30,31
 296.818 -115.541 296.818 -115.541 293.123 -106.126 c 128,-1,32
 289.427 -96.7125 289.427 -96.7125 292.572 -88.4561 c 0,33,34
 321.32 -12.9916 321.32 -12.9916 351.342 65.6107 c 1,35,36
 325.771 95.1403 325.771 95.1403 304.214 132.001 c 0,37,38
 203 309.641 203 309.641 203 640 c 0,39,40
 203 1061.93 203 1061.93 376.029 1234.97 c 0,41,42
 376.613 1235.55 376.613 1235.55 377.237 1236.1 c 0,43,44
 477.021 1323 477.021 1323 613 1323 c 0,45,46
 677.214 1323 677.214 1323 733.667 1302.57 c 0,47,48
 779.812 1285.87 779.812 1285.87 812.529 1263.61 c 1,49,50
 826.895 1300.69 826.895 1300.69 841.623 1338.68 c 0,51,52
 845.213 1347.93 845.213 1347.93 854.585 1351.78 c 128,-1,53
 863.956 1355.63 863.956 1355.63 872.379 1352.49 c 2,54,-1
 923.379 1333.49 l 2,55,56
 932.975 1329.91 932.975 1329.91 936.751 1320.23 c 128,-1,57
 940.526 1310.54 940.526 1310.54 937.409 1302.41 c 2,58,-1
 892.69 1185.79 l 1,59,60
 941.188 1120.28 941.188 1120.28 981.856 993.321 c 0,61,62
 1024 861.754 1024 861.754 1024 635 c 0,19,20
396.484 183.688 m 1,63,64
 570.125 637.463 570.125 637.463 774.016 1164.16 c 1,65,66
 709.286 1228 709.286 1228 613 1228 c 0,67,68
 495.687 1228 495.687 1228 424.639 1136.69 c 128,-1,69
 353.591 1045.38 353.591 1045.38 328.801 852.915 c 0,70,71
 315 746.439 315 746.439 315 664 c 0,72,73
 315 365.691 315 365.691 385.819 205.001 c 0,74,75
 391.204 193.726 391.204 193.726 396.484 183.688 c 1,63,64
EndSplineSet
EndChar

StartChar: one
Encoding: 49 49 20
Width: 1228
Flags: W
LayerCount: 2
Fore
SplineSet
213.263 1115.94 m 2,0,-1
 614.263 1293.94 l 2,1,2
 618.912 1296 618.912 1296 624 1296 c 2,3,-1
 662 1296 l 2,4,5
 672 1296 672 1296 679 1289 c 128,-1,6
 686 1282 686 1282 686 1272 c 2,7,-1
 686 75 l 1,8,-1
 1032 75 l 2,9,10
 1042 75 1042 75 1049 68 c 128,-1,11
 1056 61 1056 61 1056 51 c 2,12,-1
 1056 0 l 2,13,14
 1056 -10 1056 -10 1049 -17 c 128,-1,15
 1042 -24 1042 -24 1032 -24 c 2,16,-1
 227 -24 l 2,17,18
 217 -24 217 -24 210 -17 c 128,-1,19
 203 -10 203 -10 203 0 c 2,20,-1
 203 51 l 2,21,22
 203 61 203 61 210 68 c 128,-1,23
 217 75 217 75 227 75 c 2,24,-1
 581 75 l 1,25,-1
 581 1173.41 l 1,26,-1
 255.1 1022.23 l 2,27,28
 245.083 1018.22 245.083 1018.22 235.866 1022.18 c 128,-1,29
 226.65 1026.15 226.65 1026.15 223.048 1034.3 c 0,30,31
 203.993 1077.42 203.993 1077.42 200.941 1084.55 c 0,32,33
 197.029 1093.67 197.029 1093.67 201.034 1102.98 c 128,-1,34
 205.04 1112.29 205.04 1112.29 213.263 1115.94 c 2,0,-1
EndSplineSet
EndChar

StartChar: two
Encoding: 50 50 21
Width: 1228
Flags: W
LayerCount: 2
Fore
SplineSet
403.284 1145.82 m 0,0,1
 307.829 1094.96 307.829 1094.96 298.917 988.007 c 0,2,3
 298.147 978.767 298.147 978.767 291.128 972.383 c 128,-1,4
 284.108 966 284.108 966 275 966 c 2,5,-1
 214 966 l 2,6,7
 204 966 204 966 197 973 c 128,-1,8
 190 980 190 980 190 990 c 2,9,-1
 190 1098 l 2,10,11
 190 1106.95 190 1106.95 195.863 1113.72 c 0,12,13
 331.924 1270.72 331.924 1270.72 517.08 1292.82 c 0,14,15
 532.298 1294.72 532.298 1294.72 539.577 1296.09 c 0,16,17
 549.767 1298 549.767 1298 562 1298 c 2,18,-1
 581 1298 l 2,19,20
 684.846 1298 684.846 1298 777.026 1250.32 c 0,21,22
 869.691 1202.38 869.691 1202.38 930.144 1109.05 c 0,23,24
 991 1015.09 991 1015.09 991 898 c 0,25,26
 991 800.051 991 800.051 951.175 724.703 c 0,27,28
 936.709 697.837 936.709 697.837 914.236 662.596 c 0,29,30
 890.739 625.75 890.739 625.75 829.253 565.814 c 0,31,32
 769.723 507.787 769.723 507.787 705.699 445.762 c 128,-1,33
 641.556 383.625 641.556 383.625 589.863 335.443 c 128,-1,34
 538.225 287.312 538.225 287.312 482.04 237.147 c 0,35,36
 381.392 146.161 381.392 146.161 295.356 75 c 1,37,-1
 889 75 l 1,38,-1
 889 265 l 2,39,40
 889 275 889 275 896 282 c 128,-1,41
 903 289 903 289 913 289 c 2,42,-1
 965 289 l 2,43,44
 975 289 975 289 982 282 c 128,-1,45
 989 275 989 275 989 265 c 2,46,-1
 989 0 l 2,47,48
 989 -10 989 -10 982 -17 c 128,-1,49
 975 -24 975 -24 965 -24 c 2,50,-1
 171 -24 l 2,51,52
 161 -24 161 -24 154 -17 c 128,-1,53
 147 -10 147 -10 147 0 c 2,54,-1
 147 78 l 2,55,56
 147 89.0279 147 89.0279 155.368 96.2108 c 0,57,58
 268.135 193.01 268.135 193.01 403.82 316.726 c 0,59,60
 701.027 588.01 701.027 588.01 810.23 708.132 c 0,61,62
 836.404 737.012 836.404 737.012 848.842 767.222 c 0,63,64
 876 831.839 876 831.839 876 905 c 0,65,66
 876 977.091 876 977.091 845.74 1034.86 c 0,67,68
 817.173 1089.41 817.173 1089.41 772.216 1123.66 c 1,69,-1
 766.798 1126.65 l 1,70,71
 679.126 1191 679.126 1191 576 1191 c 0,72,73
 486.993 1191 486.993 1191 407.767 1148.79 c 0,74,75
 404.757 1146.6 404.757 1146.6 403.284 1145.82 c 0,0,1
EndSplineSet
EndChar

StartChar: three
Encoding: 51 51 22
Width: 1228
Flags: W
LayerCount: 2
Fore
SplineSet
208.858 133.882 m 0,0,1
 406.16 45 406.16 45 542 45 c 0,2,3
 674.372 45 674.372 45 771.215 125.003 c 0,4,5
 866 203.306 866 203.306 866 341 c 0,6,7
 866 475.378 866 475.378 756.332 556.26 c 1,8,9
 713.697 583.933 713.697 583.933 684.685 591.846 c 0,10,11
 681.945 592.593 681.945 592.593 678.386 594.546 c 0,12,13
 619.414 613 619.414 613 532 613 c 2,14,-1
 500 613 l 2,15,16
 490 613 490 613 483 620 c 128,-1,17
 476 627 476 627 476 637 c 2,18,-1
 476 687 l 2,19,20
 476 696.622 476 696.622 482.916 703.624 c 128,-1,21
 489.832 710.626 489.832 710.626 499.078 710.982 c 0,22,23
 622.412 715.728 622.412 715.728 680.752 754.013 c 0,24,25
 796 830.844 796 830.844 796 946.5 c 0,26,27
 796 1063.83 796 1063.83 722.198 1130.93 c 1,28,29
 643.728 1197 643.728 1197 537.668 1197 c 1,30,31
 457.716 1199.22 457.716 1199.22 365.624 1154.67 c 0,32,33
 340.906 1142.72 340.906 1142.72 315.42 1127.46 c 0,34,35
 279.77 1105.68 279.77 1105.68 246.038 1083.85 c 0,36,37
 236.851 1078.41 236.851 1078.41 227.023 1081.05 c 128,-1,38
 217.195 1083.69 217.195 1083.69 212.42 1091.65 c 0,39,40
 210.757 1094.42 210.757 1094.42 202.256 1108.48 c 0,41,42
 196.127 1118.61 196.127 1118.61 186.468 1134.57 c 0,43,44
 181.51 1142.96 181.51 1142.96 183.775 1152.48 c 128,-1,45
 186.04 1162.01 186.04 1162.01 193.929 1167.13 c 0,46,47
 256.322 1207.64 256.322 1207.64 323.476 1240.09 c 0,48,49
 340.959 1248.53 340.959 1248.53 358.765 1256.44 c 0,50,51
 447.913 1296 447.913 1296 528.5 1296 c 0,52,53
 607.98 1296 607.98 1296 673.255 1273.71 c 0,54,55
 738.826 1251.32 738.826 1251.32 791.257 1208.53 c 0,56,57
 907 1112.25 907 1112.25 907 961 c 0,58,59
 907 804.695 907 804.695 789.346 707.547 c 0,60,61
 769.813 691.183 769.813 691.183 746.112 676.977 c 1,62,63
 807.965 649.976 807.965 649.976 852.971 604.971 c 0,64,65
 871.265 586.676 871.265 586.676 897.562 558.358 c 0,66,67
 973 477.451 973 477.451 973 345 c 0,68,69
 973 165.251 973 165.251 848.978 54.592 c 0,70,71
 726.152 -55 726.152 -55 540 -55 c 0,72,73
 429.078 -55 429.078 -55 309.014 -11.8262 c 0,74,75
 305.76 -11.3108 305.76 -11.3108 303.41 -10.4099 c 0,76,77
 243.147 12.6909 243.147 12.6909 169.877 42.8014 c 0,78,79
 160.401 46.6959 160.401 46.6959 156.799 56.9116 c 128,-1,80
 153.197 67.1273 153.197 67.1273 156.916 74.3973 c 2,81,-1
 176.916 121.397 l 2,82,83
 180.934 130.839 180.934 130.839 191.155 134.323 c 128,-1,84
 201.376 137.808 201.376 137.808 208.858 133.882 c 0,0,1
EndSplineSet
EndChar

StartChar: four
Encoding: 52 52 23
Width: 1228
Flags: W
LayerCount: 2
Fore
SplineSet
699 393 m 1,0,-1
 699 1096.54 l 1,1,-1
 285.923 393 l 1,2,-1
 699 393 l 1,0,-1
165.355 385.238 m 0,3,4
 657.361 1215.25 657.361 1215.25 698.368 1284.26 c 0,5,6
 705.343 1296 705.343 1296 719 1296 c 2,7,-1
 777 1296 l 2,8,9
 787 1296 787 1296 794 1289 c 128,-1,10
 801 1282 801 1282 801 1272 c 2,11,-1
 801 393 l 1,12,-1
 972 393 l 2,13,14
 982 393 982 393 989 386 c 128,-1,15
 996 379 996 379 996 369 c 2,16,-1
 996 316 l 2,17,18
 996 306 996 306 989 299 c 128,-1,19
 982 292 982 292 972 292 c 2,20,-1
 801 292 l 1,21,-1
 801 75 l 1,22,-1
 972 75 l 2,23,24
 982 75 982 75 989 68 c 128,-1,25
 996 61 996 61 996 51 c 2,26,-1
 996 0 l 2,27,28
 996 -10 996 -10 989 -17 c 128,-1,29
 982 -24 982 -24 972 -24 c 2,30,-1
 431 -24 l 2,31,32
 421 -24 421 -24 414 -17 c 128,-1,33
 407 -10 407 -10 407 0 c 2,34,-1
 407 51 l 2,35,36
 407 61 407 61 414 68 c 128,-1,37
 421 75 421 75 431 75 c 2,38,-1
 699 75 l 1,39,-1
 699 292 l 1,40,-1
 186 292 l 2,41,42
 176 292 176 292 169 299 c 128,-1,43
 162 306 162 306 162 316 c 2,44,-1
 162 373 l 2,45,46
 162 379.579 162 379.579 165.355 385.238 c 0,3,4
EndSplineSet
EndChar

StartChar: five
Encoding: 53 53 24
Width: 1228
Flags: W
LayerCount: 2
Fore
SplineSet
334 743.654 m 1,0,1
 393.186 766.87 393.186 766.87 444.887 781.232 c 0,2,3
 530.453 805 530.453 805 597 805 c 0,4,5
 788.286 805 788.286 805 905.379 682.052 c 0,6,7
 1022 559.6 1022 559.6 1022 382 c 0,8,9
 1022 179.399 1022 179.399 878.985 49.0962 c 1,10,11
 760.02 -55 760.02 -55 569 -55 c 0,12,13
 465.718 -55 465.718 -55 401.658 -37.1472 c 0,14,15
 270.398 -1.8078 270.398 -1.8078 184.087 32.7166 c 0,16,17
 174.578 36.5201 174.578 36.5201 171.033 46.2973 c 128,-1,18
 167.487 56.0745 167.487 56.0745 170.808 64.138 c 2,19,-1
 191.808 115.138 l 2,20,21
 195.713 124.622 195.713 124.622 205.902 128.224 c 128,-1,22
 216.091 131.826 216.091 131.826 223.556 128.015 c 0,23,24
 400.986 51 400.986 51 569 51 c 0,25,26
 731.91 51 731.91 51 820.354 141.294 c 0,27,28
 909 231.793 909 231.793 909 373 c 0,29,30
 909 514.554 909 514.554 819.443 610.637 c 0,31,32
 730.557 706 730.557 706 586 706 c 0,33,34
 525.352 706 525.352 706 466.956 689.867 c 0,35,36
 383.319 666.761 383.319 666.761 303.884 610.424 c 0,37,38
 291.661 601.755 291.661 601.755 278.508 608.93 c 0,39,40
 266.87 615.278 266.87 615.278 250.28 625.648 c 0,41,42
 239 632.698 239 632.698 239 646 c 2,43,-1
 239 1241 l 2,44,45
 239 1251 239 1251 246 1258 c 128,-1,46
 253 1265 253 1265 263 1265 c 2,47,-1
 936 1265 l 2,48,49
 946 1265 946 1265 953 1258 c 128,-1,50
 960 1251 960 1251 960 1241 c 2,51,-1
 960 1188 l 2,52,53
 960 1178 960 1178 953 1171 c 128,-1,54
 946 1164 946 1164 936 1164 c 2,55,-1
 334 1164 l 1,56,-1
 334 743.654 l 1,0,1
EndSplineSet
EndChar

StartChar: six
Encoding: 54 54 25
Width: 1228
Flags: W
LayerCount: 2
Fore
SplineSet
365.468 539.758 m 0,0,1
 332.245 499.36 332.245 499.36 305.252 433.92 c 1,2,3
 320.138 173.074 320.138 173.074 495.036 83.3124 c 0,4,5
 556.891 51 556.891 51 615.5 51 c 0,6,7
 674.917 51 674.917 51 723.272 72.44 c 128,-1,8
 771.646 93.888 771.646 93.888 808.221 134.122 c 0,9,10
 887 221.242 887 221.242 887 355 c 0,11,12
 887 482.483 887 482.483 810.416 576.814 c 0,13,14
 734.659 669 734.659 669 625 669 c 0,15,16
 533.046 669 533.046 669 443.978 611.812 c 0,17,18
 405.123 586.833 405.123 586.833 369.503 543.715 c 0,19,20
 368.3 542.259 368.3 542.259 365.468 539.758 c 0,0,1
989.471 1194.05 m 2,21,-1
 943.234 1197 l 1,22,-1
 899.917 1197 l 1,23,24
 625.389 1198.81 625.389 1198.81 477.668 1054.67 c 128,-1,25
 329.948 910.522 329.948 910.522 303.351 614.472 c 1,26,27
 348.671 668.953 348.671 668.953 411.166 708.28 c 0,28,29
 516.013 775 516.013 775 612.5 775 c 0,30,31
 707.698 775 707.698 775 777.3 739.933 c 0,32,33
 846.011 705.314 846.011 705.314 896.138 647.716 c 0,34,35
 1002 524.924 1002 524.924 1002 355 c 0,36,37
 1002 189.762 1002 189.762 892.793 68.8941 c 0,38,39
 780.648 -55 780.648 -55 620 -55 c 0,40,41
 462.122 -55 462.122 -55 339.037 67.0212 c 1,42,43
 186 221.109 186 221.109 186 537 c 0,44,45
 186 993.511 186 993.511 481.418 1199.79 c 1,46,47
 568.558 1258.58 568.558 1258.58 653.274 1275.53 c 0,48,49
 796.803 1304.04 796.803 1304.04 911.217 1302 c 1,50,-1
 950 1302 l 2,51,52
 969.545 1302 969.545 1302 992.09 1300.98 c 0,53,54
 1001.68 1300.54 1001.68 1300.54 1008.34 1293.32 c 128,-1,55
 1015 1286.1 1015 1286.1 1015 1277 c 2,56,-1
 1015 1218 l 2,57,58
 1015 1207.67 1015 1207.67 1007.22 1200.54 c 128,-1,59
 999.443 1193.41 999.443 1193.41 989.471 1194.05 c 2,21,-1
EndSplineSet
EndChar

StartChar: seven
Encoding: 55 55 26
Width: 1228
Flags: W
LayerCount: 2
Fore
SplineSet
600 -24 m 2,0,-1
 531 -24 l 2,1,2
 521 -24 521 -24 514 -17 c 128,-1,3
 507 -10 507 -10 507 0 c 0,4,5
 507 4.21243 507 4.21243 508.434 8.1729 c 2,6,-1
 927.782 1166 l 1,7,-1
 293 1166 l 1,8,-1
 293 1011 l 2,9,10
 293 1001 293 1001 286 994 c 128,-1,11
 279 987 279 987 269 987 c 2,12,-1
 214 987 l 2,13,14
 204 987 204 987 197 994 c 128,-1,15
 190 1001 190 1001 190 1011 c 2,16,-1
 190 1241 l 2,17,18
 190 1251 190 1251 197 1258 c 128,-1,19
 204 1265 204 1265 214 1265 c 2,20,-1
 1014 1265 l 2,21,22
 1024 1265 1024 1265 1031 1258 c 128,-1,23
 1038 1251 1038 1251 1038 1241 c 2,24,-1
 1038 1191 l 2,25,26
 1038 1186.95 1038 1186.95 1036.67 1183.12 c 2,27,-1
 622.669 -7.88007 l 2,28,29
 617.066 -24 617.066 -24 600 -24 c 2,0,-1
EndSplineSet
EndChar

StartChar: eight
Encoding: 56 56 27
Width: 1228
Flags: W
LayerCount: 2
Fore
SplineSet
852.75 500.312 m 1,0,1
 769.907 585 769.907 585 632 585 c 0,2,3
 482.94 585 482.94 585 404.028 494.157 c 1,4,5
 330 410.876 330 410.876 330 308 c 0,6,7
 330 207.444 330 207.444 416.856 126.564 c 0,8,9
 504.446 45 504.446 45 632 45 c 128,-1,10
 759.523 45 759.523 45 845.585 125.509 c 0,11,12
 934 208.396 934 208.396 934 311.5 c 0,13,14
 934 415.368 934 415.368 852.75 500.312 c 1,0,1
827.08 758.96 m 0,15,16
 911 833.754 911 833.754 911 948.5 c 0,17,18
 911 1062.56 911 1062.56 827.385 1130.36 c 0,19,20
 741.49 1200 741.49 1200 650 1200 c 0,21,22
 555.526 1200 555.526 1200 503.007 1174.42 c 0,23,24
 449.826 1148.52 449.826 1148.52 416.091 1110.23 c 0,25,26
 353 1037.09 353 1037.09 353 942 c 0,27,28
 353 848.462 353 848.462 431.4 764.531 c 1,29,30
 510.184 683 510.184 683 625 683 c 0,31,32
 740.935 683 740.935 683 827.08 758.96 c 0,15,16
314.544 736.657 m 0,33,34
 240 826.326 240 826.326 240 958 c 0,35,36
 240 1091.5 240 1091.5 352.714 1195.63 c 0,37,38
 464.607 1299 464.607 1299 631 1299 c 128,-1,39
 797.391 1299 797.391 1299 911.111 1193.79 c 1,40,41
 1025 1092.8 1025 1092.8 1025 945 c 0,42,43
 1025 866.872 1025 866.872 975.043 775.46 c 0,44,45
 934.634 701.991 934.634 701.991 825.64 635.098 c 1,46,47
 943.164 574.711 943.164 574.711 992.66 492.214 c 1,48,49
 1049 395.481 1049 395.481 1049 319 c 0,50,51
 1049 188.001 1049 188.001 947.098 71.2375 c 0,52,53
 897.47 14.0563 897.47 14.0563 815.333 -20.6111 c 0,54,55
 733.855 -55 733.855 -55 632 -55 c 0,56,57
 428.231 -55 428.231 -55 315.812 71.3366 c 1,58,59
 215 192.308 215 192.308 215 301.5 c 0,60,61
 215 409.198 215 409.198 274.959 500.204 c 1,62,-1
 278.714 504.629 l 1,63,64
 331.93 579.682 331.93 579.682 439.237 634.997 c 1,65,66
 372.727 676.369 372.727 676.369 321.813 730.707 c 1,67,68
 317.079 733.609 317.079 733.609 314.544 736.657 c 0,33,34
EndSplineSet
EndChar

StartChar: nine
Encoding: 57 57 28
Width: 1228
Flags: W
LayerCount: 2
Fore
SplineSet
794.381 706.034 m 1,0,1
 828.621 747.508 828.621 747.508 854.705 811.88 c 1,2,3
 837.028 1074.81 837.028 1074.81 664.987 1162.68 c 0,4,5
 603.108 1195 603.108 1195 544.5 1195 c 0,6,7
 485.075 1195 485.075 1195 436.728 1173.56 c 128,-1,8
 388.344 1152.1 388.344 1152.1 351.766 1111.86 c 0,9,10
 273 1024.76 273 1024.76 273 891 c 0,11,12
 273 763.517 273 763.517 349.587 669.183 c 0,13,14
 425.341 577 425.341 577 535 577 c 0,15,16
 626.025 577 626.025 577 716.25 634.334 c 0,17,18
 754.902 658.261 754.902 658.261 790.337 702.089 c 1,19,-1
 794.381 706.034 l 1,0,1
171.977 51.8147 m 0,20,21
 194.494 49 194.494 49 210 49 c 2,22,-1
 260.08 49 l 1,23,24
 549.677 47.0689 549.677 47.0689 695.491 202.415 c 0,25,26
 831.378 347.356 831.378 347.356 856.732 632.337 c 1,27,28
 811.099 577.047 811.099 577.047 748.841 537.724 c 0,29,30
 643.983 471 643.983 471 547.5 471 c 0,31,32
 452.295 471 452.295 471 382.7 506.067 c 0,33,34
 313.987 540.69 313.987 540.69 263.862 598.284 c 0,35,36
 158 721.076 158 721.076 158 891 c 0,37,38
 158 1057.23 158 1057.23 266.189 1177.09 c 0,39,40
 378.36 1301 378.36 1301 540 1301 c 0,41,42
 697.873 1301 697.873 1301 820.971 1178.97 c 1,43,44
 974 1024.91 974 1024.91 974 709 c 128,-1,45
 974 393.258 974 393.258 819.319 178.757 c 1,46,47
 764.809 106.428 764.809 106.428 678.587 47.216 c 0,48,49
 591.529 -12.5696 591.529 -12.5696 506.69 -29.5373 c 0,50,51
 363.15 -58.042 363.15 -58.042 248.786 -56 c 1,52,-1
 210 -56 l 2,53,54
 190.455 -56 190.455 -56 167.91 -54.9752 c 0,55,56
 158.315 -54.5391 158.315 -54.5391 151.658 -47.3172 c 128,-1,57
 145 -40.0952 145 -40.0952 145 -31 c 2,58,-1
 145 28 l 2,59,60
 145 38.8715 145 38.8715 153.475 45.9698 c 128,-1,61
 161.95 53.068 161.95 53.068 171.977 51.8147 c 0,20,21
EndSplineSet
EndChar

StartChar: colon
Encoding: 58 58 29
Width: 1228
Flags: W
LayerCount: 2
Fore
SplineSet
778 659 m 128,-1,1
 778 597.036 778 597.036 728.71 554.356 c 0,2,3
 680.949 513 680.949 513 614 513 c 128,-1,4
 547.048 513 547.048 513 510.295 544.852 c 0,5,6
 450 597.029 450 597.029 450 659 c 128,-1,7
 450 720.964 450 720.964 499.29 763.644 c 0,8,9
 547.051 805 547.051 805 614 805 c 128,-1,10
 680.952 805 680.952 805 717.705 773.148 c 0,11,0
 778 720.971 778 720.971 778 659 c 128,-1,1
778 105 m 128,-1,13
 778 43.0349 778 43.0349 728.71 0.356164 c 0,14,15
 680.947 -41 680.947 -41 614 -41 c 128,-1,16
 547.047 -41 547.047 -41 510.295 -9.14805 c 0,17,18
 450 43.0306 450 43.0306 450 105 c 128,-1,19
 450 166.965 450 166.965 499.29 209.644 c 0,20,21
 547.052 251 547.052 251 614 251 c 128,-1,22
 680.954 251 680.954 251 717.705 219.148 c 0,23,12
 778 166.97 778 166.97 778 105 c 128,-1,13
EndSplineSet
EndChar

StartChar: semicolon
Encoding: 59 59 30
Width: 1228
Flags: W
LayerCount: 2
Fore
SplineSet
778 660 m 128,-1,1
 778 598.036 778 598.036 728.71 555.356 c 0,2,3
 680.949 514 680.949 514 614 514 c 128,-1,4
 547.048 514 547.048 514 510.295 545.852 c 0,5,6
 450 598.029 450 598.029 450 660 c 128,-1,7
 450 721.964 450 721.964 499.29 764.644 c 0,8,9
 547.051 806 547.051 806 614 806 c 128,-1,10
 680.952 806 680.952 806 717.705 774.148 c 0,11,0
 778 721.971 778 721.971 778 660 c 128,-1,1
369.123 -213.745 m 2,12,-1
 519.123 259.255 l 2,13,14
 524.433 276 524.433 276 542 276 c 2,15,-1
 707 276 l 2,16,17
 717 276 717 276 724 269 c 128,-1,18
 731 262 731 262 731 252 c 0,19,20
 731 246.823 731 246.823 728.866 242.107 c 2,21,-1
 514.866 -230.893 l 2,22,23
 508.483 -245 508.483 -245 493 -245 c 2,24,-1
 392 -245 l 2,25,26
 382 -245 382 -245 375 -238 c 128,-1,27
 368 -231 368 -231 368 -221 c 0,28,29
 368 -217.286 368 -217.286 369.123 -213.745 c 2,12,-1
EndSplineSet
EndChar

StartChar: less
Encoding: 60 60 31
Width: 1228
Flags: W
LayerCount: 2
Fore
SplineSet
323.993 631.219 m 1,0,1
 1062.2 291.986 1062.2 291.986 1106.02 271.808 c 0,2,3
 1115.32 267.534 1115.32 267.534 1118.5 257.161 c 128,-1,4
 1121.68 246.788 1121.68 246.788 1117.73 239.802 c 2,5,-1
 1094.73 190.802 l 2,6,7
 1090.5 181.802 1090.5 181.802 1080.65 178.516 c 128,-1,8
 1070.79 175.23 1070.79 175.23 1062.96 179.201 c 0,9,10
 910.466 249.427 910.466 249.427 699.856 347.249 c 0,11,12
 300.753 534.304 300.753 534.304 137.968 609.197 c 0,13,14
 129.061 613.295 129.061 613.295 125.58 622.71 c 128,-1,15
 122.099 632.125 122.099 632.125 126.197 641.032 c 0,16,17
 129.827 648.922 129.827 648.922 137.666 652.661 c 2,18,-1
 1053.67 1089.66 l 2,19,20
 1063.03 1093.8 1063.03 1093.8 1072.34 1090.26 c 128,-1,21
 1081.65 1086.72 1081.65 1086.72 1085.65 1078.35 c 0,22,23
 1096.79 1055.07 1096.79 1055.07 1109.9 1025.82 c 0,24,25
 1113.73 1016.2 1113.73 1016.2 1109.99 1007.12 c 128,-1,26
 1106.25 998.049 1106.25 998.049 1098.19 994.271 c 2,27,-1
 323.993 631.219 l 1,0,1
EndSplineSet
EndChar

StartChar: equal
Encoding: 61 61 32
Width: 1228
Flags: W
LayerCount: 2
Fore
SplineSet
1080 383 m 2,0,-1
 146 383 l 2,1,2
 136 383 136 383 129 390 c 128,-1,3
 122 397 122 397 122 407 c 2,4,-1
 122 464 l 2,5,6
 122 474 122 474 129 481 c 128,-1,7
 136 488 136 488 146 488 c 2,8,-1
 1080 488 l 2,9,10
 1090 488 1090 488 1097 481 c 128,-1,11
 1104 474 1104 474 1104 464 c 2,12,-1
 1104 407 l 2,13,14
 1104 397 1104 397 1097 390 c 128,-1,15
 1090 383 1090 383 1080 383 c 2,0,-1
1080 776 m 2,16,-1
 146 776 l 2,17,18
 136 776 136 776 129 783 c 128,-1,19
 122 790 122 790 122 800 c 2,20,-1
 122 857 l 2,21,22
 122 867 122 867 129 874 c 128,-1,23
 136 881 136 881 146 881 c 2,24,-1
 1080 881 l 2,25,26
 1090 881 1090 881 1097 874 c 128,-1,27
 1104 867 1104 867 1104 857 c 2,28,-1
 1104 800 l 2,29,30
 1104 790 1104 790 1097 783 c 128,-1,31
 1090 776 1090 776 1080 776 c 2,16,-1
EndSplineSet
EndChar

StartChar: greater
Encoding: 62 62 33
Width: 1228
Flags: W
LayerCount: 2
Fore
SplineSet
112.106 1030.83 m 2,0,-1
 134.106 1079.83 l 2,1,2
 138.302 1089.18 138.302 1089.18 148.629 1092.45 c 128,-1,3
 158.956 1095.72 158.956 1095.72 166.095 1091.77 c 2,4,-1
 1115.1 651.774 l 2,5,6
 1123.99 647.649 1123.99 647.649 1127.44 638.225 c 128,-1,7
 1130.9 628.8 1130.9 628.8 1126.77 619.905 c 0,8,9
 1123.13 612.053 1123.13 612.053 1115.32 608.332 c 2,10,-1
 166.32 156.332 l 2,11,12
 156.889 151.928 156.889 151.928 147.13 155.854 c 128,-1,13
 137.372 159.781 137.372 159.781 133.662 169.224 c 0,14,15
 122.978 196.421 122.978 196.421 112.349 218.645 c 0,16,17
 108.294 228.738 108.294 228.738 112.133 237.889 c 128,-1,18
 115.972 247.041 115.972 247.041 123.78 250.715 c 2,19,-1
 929.111 629.75 l 1,20,21
 316.182 911.651 316.182 911.651 124.052 999.159 c 0,22,23
 115.001 1003.28 115.001 1003.28 111.6 1013.09 c 128,-1,24
 108.199 1022.9 108.199 1022.9 112.106 1030.83 c 2,0,-1
EndSplineSet
EndChar

StartChar: question
Encoding: 63 63 34
Width: 1228
Flags: W
LayerCount: 2
Fore
SplineSet
622.808 -40.8967 m 1,0,1
 586.148 -61 586.148 -61 548 -61 c 0,2,3
 511.618 -61 511.618 -61 485.018 -50.9513 c 0,4,5
 458.807 -41.0494 458.807 -41.0494 438.52 -24.3424 c 0,6,7
 393 15.0252 393 15.0252 393 60 c 0,8,9
 393 99.6652 393 99.6652 405.534 124.733 c 0,10,11
 417.811 149.289 417.811 149.289 438.904 166.659 c 0,12,13
 484.625 203 484.625 203 530.5 203 c 0,14,15
 572.293 203 572.293 203 599.32 193.012 c 128,-1,16
 626.473 182.977 626.473 182.977 645.587 166.252 c 0,17,18
 690 129.242 690 129.242 690 65 c 0,19,20
 690 -1.80148 690 -1.80148 622.808 -40.8967 c 1,0,1
575 344 m 2,21,-1
 520 344 l 2,22,23
 510 344 510 344 503 351 c 128,-1,24
 496 358 496 358 496 368 c 2,25,-1
 496 532 l 2,26,27
 496 540.226 496 540.226 501.385 546.802 c 128,-1,28
 506.771 553.379 506.771 553.379 514.023 555.244 c 0,29,30
 549.046 564.249 549.046 564.249 576.58 571.258 c 0,31,32
 603.653 578.15 603.653 578.15 650.715 592.021 c 0,33,34
 690.327 603.696 690.327 603.696 730.445 623.09 c 0,35,36
 736.259 625.901 736.259 625.901 742.089 628.876 c 0,37,38
 786.553 651.573 786.553 651.573 816.795 682.735 c 0,39,40
 881 748.748 881 748.748 881 847 c 0,41,42
 881 998.419 881 998.419 731.253 1065.07 c 0,43,44
 672.905 1091 672.905 1091 567.5 1091 c 0,45,46
 467.294 1091 467.294 1091 332 1037.78 c 1,47,-1
 332 924 l 2,48,49
 332 914 332 914 325 907 c 128,-1,50
 318 900 318 900 308 900 c 2,51,-1
 251 900 l 2,52,53
 241 900 241 900 234 907 c 128,-1,54
 227 914 227 914 227 924 c 2,55,-1
 227 1101 l 2,56,57
 227 1118.42 227 1118.42 243.56 1123.82 c 0,58,59
 430.095 1184.65 430.095 1184.65 481.805 1189.4 c 0,60,61
 531.912 1194 531.912 1194 600 1194 c 0,62,63
 671.341 1194 671.341 1194 747.427 1165.47 c 128,-1,64
 823.669 1136.89 823.669 1136.89 877.047 1088.85 c 0,65,66
 988.84 987.805 988.84 987.805 990.997 842.356 c 0,67,68
 991.007 841.707 991.007 841.707 990.982 841.06 c 0,69,70
 983.154 641.448 983.154 641.448 774.885 538.943 c 0,71,72
 754.426 528.874 754.426 528.874 732.118 519.799 c 0,73,74
 669.109 493.694 669.109 493.694 599 472.948 c 1,75,-1
 599 368 l 2,76,77
 599 358 599 358 592 351 c 128,-1,78
 585 344 585 344 575 344 c 2,21,-1
EndSplineSet
EndChar

StartChar: at
Encoding: 64 64 35
Width: 1228
Flags: W
LayerCount: 2
Fore
SplineSet
512 302 m 0,0,1
 563.265 302 563.265 302 611.11 355.499 c 0,2,3
 662.883 413.389 662.883 413.389 682.321 469.853 c 0,4,5
 718 573.041 718 573.041 718 615 c 128,-1,6
 718 656.954 718 656.954 710.826 677.633 c 0,7,8
 703.761 697.997 703.761 697.997 691.577 712.618 c 0,9,10
 667.799 741 667.799 741 644 741 c 0,11,12
 579.416 741 579.416 741 538.517 690.731 c 0,13,14
 437 569.293 437 569.293 437 408 c 0,15,16
 437 333.226 437 333.226 477.939 310.825 c 0,17,18
 492.647 302 492.647 302 512 302 c 0,0,1
778.148 763.413 m 1,19,20
 785.606 792.741 785.606 792.741 790.52 815.967 c 0,21,22
 792.264 824.212 792.264 824.212 798.997 829.606 c 128,-1,23
 805.73 835 805.73 835 814 835 c 2,24,-1
 874 835 l 2,25,26
 884 835 884 835 891 828 c 128,-1,27
 898 821 898 821 898 811 c 0,28,29
 898 807.719 898 807.719 897.119 804.557 c 2,30,-1
 812.205 499.867 l 1,31,32
 790 411.051 790 411.051 790 397.5 c 0,33,34
 790 380.371 790 380.371 789.467 370.239 c 0,35,36
 789.186 364.902 789.186 364.902 790.988 358.896 c 0,37,38
 791.211 358.153 791.211 358.153 791.385 357.397 c 0,39,40
 795.675 338.808 795.675 338.808 809.35 325.568 c 0,41,42
 838.782 299 838.782 299 887 299 c 0,43,44
 895.479 299 895.479 299 903.639 300.062 c 0,45,46
 990.682 311.393 990.682 311.393 1049.92 447.398 c 1,47,48
 1075.09 507.993 1075.09 507.993 1077.01 610.496 c 0,49,50
 1078.61 676.971 1078.61 676.971 1063.51 734.61 c 0,51,52
 1025.14 880.977 1025.14 880.977 877.315 973.626 c 0,53,54
 778.173 1035 778.173 1035 645.5 1035 c 0,55,56
 511.397 1035 511.397 1035 418.288 990.817 c 128,-1,57
 325.079 946.586 325.079 946.586 265.523 874.739 c 0,58,59
 149 732.423 149 732.423 149 517 c 0,60,61
 149 327.843 149 327.843 259.247 198.59 c 0,62,63
 383.047 54 383.047 54 607 54 c 0,64,65
 801.17 54 801.17 54 1025.71 172.649 c 1,66,67
 1038.37 181.019 1038.37 181.019 1049.27 186.466 c 0,68,69
 1057.97 190.76 1057.97 190.76 1067.33 187.731 c 128,-1,70
 1076.69 184.702 1076.69 184.702 1081.18 176.294 c 2,71,-1
 1105.18 131.294 l 2,72,73
 1109.71 122.739 1109.71 122.739 1106.93 113.272 c 128,-1,74
 1104.15 103.805 1104.15 103.805 1095.78 99.0911 c 0,75,76
 838.295 -46 838.295 -46 600 -46 c 0,77,78
 463.857 -46 463.857 -46 355.664 2.60795 c 0,79,80
 246.862 51.4901 246.862 51.4901 180.237 135.035 c 0,81,82
 110.69 222.227 110.69 222.227 87.3377 289.099 c 0,83,84
 48 401.938 48 401.938 48 523 c 0,85,86
 48 781.231 48 781.231 203.131 953.022 c 1,87,88
 364.23 1134 364.23 1134 646 1134 c 0,89,90
 955.652 1134 955.652 1134 1102.62 886.288 c 0,91,92
 1136.83 829.268 1136.83 829.268 1154.9 761.121 c 0,93,94
 1175 685.341 1175 685.341 1175 596 c 0,95,96
 1175 448.89 1175 448.89 1101.13 334.925 c 0,97,98
 1024.88 217.901 1024.88 217.901 913.255 205.349 c 0,99,100
 864.341 199.849 864.341 199.849 809.664 214.851 c 0,101,102
 745.836 232.259 745.836 232.259 707.984 290.756 c 0,103,104
 702.294 299.167 702.294 299.167 697.513 308.936 c 1,105,106
 670.971 272.928 670.971 272.928 632.911 243.193 c 0,107,108
 580.453 201 580.453 201 504 201 c 0,109,110
 449.765 201 449.765 201 397.929 241.317 c 1,111,112
 334 294.784 334 294.784 334 417 c 0,113,114
 334 513.99 334 513.99 365.938 587.45 c 0,115,116
 475.086 846 475.086 846 651 846 c 0,117,118
 714.641 846 714.641 846 762.83 784.881 c 0,119,120
 771.336 774.136 771.336 774.136 778.148 763.413 c 1,19,20
EndSplineSet
EndChar

StartChar: A
Encoding: 65 65 36
Width: 1228
Flags: W
LayerCount: 2
Fore
SplineSet
857.042 465 m 1,0,-1
 615.572 1046.28 l 1,1,-1
 375.858 465 l 1,2,-1
 857.042 465 l 1,0,-1
1208 -24 m 2,3,-1
 820 -24 l 2,4,5
 810 -24 810 -24 803 -17 c 128,-1,6
 796 -10 796 -10 796 0 c 2,7,-1
 796 50 l 2,8,9
 796 60 796 60 803 67 c 128,-1,10
 810 74 810 74 820 74 c 2,11,-1
 1013.48 74 l 1,12,-1
 892.786 374 l 1,13,-1
 338.214 374 l 1,14,-1
 217.525 74 l 1,15,-1
 407 74 l 2,16,17
 417 74 417 74 424 67 c 128,-1,18
 431 60 431 60 431 50 c 2,19,-1
 431 0 l 2,20,21
 431 -10 431 -10 424 -17 c 128,-1,22
 417 -24 417 -24 407 -24 c 2,23,-1
 19 -24 l 2,24,25
 9 -24 9 -24 2 -17 c 128,-1,26
 -5 -10 -5 -10 -5 0 c 2,27,-1
 -5 50 l 2,28,29
 -5 60 -5 60 2 67 c 128,-1,30
 9 74 9 74 19 74 c 2,31,-1
 107.919 74 l 1,32,-1
 521.181 1079 l 1,33,-1
 239 1079 l 2,34,35
 229 1079 229 1079 222 1086 c 128,-1,36
 215 1093 215 1093 215 1103 c 2,37,-1
 215 1153 l 2,38,39
 215 1163 215 1163 222 1170 c 128,-1,40
 229 1177 229 1177 239 1177 c 2,41,-1
 657 1177 l 2,42,43
 673.116 1177 673.116 1177 679.215 1162.08 c 2,44,-1
 1124.12 74 l 1,45,-1
 1208 74 l 2,46,47
 1218 74 1218 74 1225 67 c 128,-1,48
 1232 60 1232 60 1232 50 c 2,49,-1
 1232 0 l 2,50,51
 1232 -10 1232 -10 1225 -17 c 128,-1,52
 1218 -24 1218 -24 1208 -24 c 2,3,-1
EndSplineSet
EndChar

StartChar: B
Encoding: 66 66 37
Width: 1228
Flags: W
LayerCount: 2
Fore
SplineSet
697.747 74 m 1,0,1
 717.43 75.9935 717.43 75.9935 735.334 76.4907 c 0,2,3
 752.578 76.9697 752.578 76.9697 773.827 78.9014 c 0,4,5
 937.845 93.8122 937.845 93.8122 993.56 184.578 c 0,6,7
 1022.13 231.003 1022.13 231.003 1026 303.602 c 1,8,9
 1025.6 429.067 1025.6 429.067 915.388 489.996 c 0,10,11
 913.733 490.911 913.733 490.911 911.438 492.701 c 0,12,13
 802.214 551 802.214 551 621 551 c 2,14,-1
 353 551 l 1,15,-1
 353 74 l 1,16,-1
 697.747 74 l 1,0,1
637.795 649 m 1,17,18
 859.608 652.764 859.608 652.764 920.918 765.469 c 1,19,-1
 924.207 770.106 l 1,20,21
 951 817.177 951 817.177 951 864 c 0,22,23
 951 988.993 951 988.993 847.525 1039.41 c 0,24,25
 767.513 1078 767.513 1078 683 1078 c 0,26,27
 681.294 1078 681.294 1078 679.606 1078.24 c 0,28,29
 674.296 1079 674.296 1079 666 1079 c 2,30,-1
 353 1079 l 1,31,-1
 353 649 l 1,32,-1
 637.795 649 l 1,17,18
247 74 m 1,33,-1
 247 1079 l 1,34,-1
 94 1079 l 2,35,36
 84 1079 84 1079 77 1086 c 128,-1,37
 70 1093 70 1093 70 1103 c 2,38,-1
 70 1153 l 2,39,40
 70 1163 70 1163 77 1170 c 128,-1,41
 84 1177 84 1177 94 1177 c 2,42,-1
 652 1177 l 2,43,44
 857.012 1177 857.012 1177 958.989 1087.9 c 1,45,46
 1059 996.577 1059 996.577 1059 868 c 0,47,48
 1059 757.861 1059 757.861 995.716 686.806 c 1,49,50
 947.546 635.47 947.546 635.47 889.225 606.805 c 1,51,52
 986.543 576.413 986.543 576.413 1049.28 510.656 c 0,53,54
 1134 423.766 1134 423.766 1134 304 c 0,55,56
 1134 170.145 1134 170.145 1046.09 81.1469 c 0,57,58
 977.802 11.7801 977.802 11.7801 845.931 -12.6802 c 1,59,60
 768.748 -24 768.748 -24 633 -24 c 2,61,-1
 94 -24 l 2,62,63
 84 -24 84 -24 77 -17 c 128,-1,64
 70 -10 70 -10 70 0 c 2,65,-1
 70 50 l 2,66,67
 70 60 70 60 77 67 c 128,-1,68
 84 74 84 74 94 74 c 2,69,-1
 247 74 l 1,33,-1
EndSplineSet
EndChar

StartChar: C
Encoding: 67 67 38
Width: 1228
Flags: W
LayerCount: 2
Fore
SplineSet
687 45 m 0,0,1
 921.117 45 921.117 45 1154.37 245.211 c 0,2,3
 1161.44 251.264 1161.44 251.264 1170.93 250.891 c 128,-1,4
 1180.42 250.518 1180.42 250.518 1186.97 243.971 c 2,5,-1
 1225.97 204.971 l 2,6,7
 1233.25 197.383 1233.25 197.383 1232.78 187.014 c 128,-1,8
 1232.3 176.644 1232.3 176.644 1225 170.11 c 0,9,10
 1099.16 57.5692 1099.16 57.5692 970.666 1.03244 c 0,11,12
 968.669 0.154081 968.669 0.154081 966.426 -0.378817 c 0,13,14
 826.049 -61 826.049 -61 687 -61 c 0,15,16
 492.866 -61 492.866 -61 341.471 54.8976 c 0,17,18
 294.308 90.5311 294.308 90.5311 258.257 134.004 c 1,19,20
 111 324.813 111 324.813 111 591 c 0,21,22
 111 855.622 111 855.622 279.636 1032.57 c 0,23,24
 443.326 1203.57 443.326 1203.57 681.953 1213.98 c 0,25,26
 682.819 1214.01 682.819 1214.01 683.689 1213.99 c 0,27,28
 889.12 1208.09 889.12 1208.09 1000.22 1075.55 c 1,29,-1
 1001.01 1118.92 l 2,30,31
 1002 1135.71 1002 1135.71 1002 1148.5 c 0,32,33
 1002 1163.7 1002 1163.7 1004.24 1179.39 c 0,34,35
 1005.5 1188.18 1005.5 1188.18 1012.39 1194.09 c 128,-1,36
 1019.28 1200 1019.28 1200 1028 1200 c 2,37,-1
 1081 1200 l 2,38,39
 1091.34 1200 1091.34 1200 1098.49 1192.22 c 128,-1,40
 1105.65 1184.44 1105.65 1184.44 1104.94 1174.33 c 2,41,-1
 1101.96 1131.57 l 1,42,43
 1094.07 972.993 1094.07 972.993 1114.79 816.143 c 0,44,45
 1116.05 806.629 1116.05 806.629 1110.11 798.815 c 128,-1,46
 1104.17 791.002 1104.17 791.002 1095.29 789.387 c 2,47,-1
 1051.29 781.387 l 2,48,49
 1041.82 779.664 1041.82 779.664 1033.68 785.216 c 128,-1,50
 1025.54 790.767 1025.54 790.767 1023.55 799.884 c 0,51,52
 1003.28 892.796 1003.28 892.796 960.993 962.946 c 0,53,54
 955.484 972.086 955.484 972.086 949.481 981.018 c 0,55,56
 852.602 1108 852.602 1108 679 1108 c 0,57,58
 575.382 1108 575.382 1108 489.254 1067.3 c 128,-1,59
 403.197 1026.64 403.197 1026.64 346.603 956.836 c 0,60,61
 225 808.428 225 808.428 225 593 c 0,62,63
 225 446.206 225 446.206 282.091 306.384 c 1,64,65
 352.64 146.999 352.64 146.999 499.765 81.9237 c 0,66,67
 582.133 45 582.133 45 687 45 c 0,0,1
EndSplineSet
EndChar

StartChar: D
Encoding: 68 68 39
Width: 1228
Flags: W
LayerCount: 2
Fore
SplineSet
572 74 m 2,0,1
 660.705 74 660.705 74 715.473 84.5691 c 0,2,3
 823.247 105.187 823.247 105.187 889.029 170.971 c 0,4,5
 1037 318.944 1037 318.944 1037 593 c 0,6,7
 1037 800.269 1037 800.269 936.606 939.861 c 1,8,9
 873.322 1025.48 873.322 1025.48 797.05 1053.35 c 1,10,11
 721.401 1079 721.401 1079 583 1079 c 2,12,-1
 321 1079 l 1,13,-1
 321 74 l 1,14,-1
 572 74 l 2,0,1
216 74 m 1,15,-1
 216 1079 l 1,16,-1
 72 1079 l 2,17,18
 62 1079 62 1079 55 1086 c 128,-1,19
 48 1093 48 1093 48 1103 c 2,20,-1
 48 1153 l 2,21,22
 48 1163 48 1163 55 1170 c 128,-1,23
 62 1177 62 1177 72 1177 c 2,24,-1
 581 1177 l 2,25,26
 736.508 1177 736.508 1177 811.867 1154.5 c 0,27,28
 887.972 1131.77 887.972 1131.77 933.4 1097.7 c 0,29,30
 977.575 1064.57 977.575 1064.57 1017.67 1017.1 c 1,31,32
 1150 846.199 1150 846.199 1150 599 c 0,33,34
 1150 271.845 1150 271.845 972.547 99.6151 c 1,35,36
 876.925 10.3698 876.925 10.3698 749.753 -8.70557 c 1,37,38
 657.987 -24 657.987 -24 572 -24 c 2,39,-1
 72 -24 l 2,40,41
 62 -24 62 -24 55 -17 c 128,-1,42
 48 -10 48 -10 48 0 c 2,43,-1
 48 50 l 2,44,45
 48 60 48 60 55 67 c 128,-1,46
 62 74 62 74 72 74 c 2,47,-1
 216 74 l 1,15,-1
EndSplineSet
EndChar

StartChar: E
Encoding: 69 69 40
Width: 1228
Flags: WO
LayerCount: 2
Fore
SplineSet
1020.96 74 m 1,0,-1
 1032.02 343.982 l 2,1,2
 1032.41 353.59 1032.41 353.59 1039.61 360.295 c 128,-1,3
 1046.8 367 1046.8 367 1056 367 c 2,4,-1
 1104 367 l 2,5,6
 1114 367 1114 367 1121 360 c 128,-1,7
 1128 353 1128 353 1128 343 c 2,8,-1
 1128 0 l 2,9,10
 1128 -10 1128 -10 1121 -17 c 128,-1,11
 1114 -24 1114 -24 1104 -24 c 2,12,-1
 120 -24 l 2,13,14
 110 -24 110 -24 103 -17 c 128,-1,15
 96 -10 96 -10 96 0 c 2,16,-1
 96 50 l 2,17,18
 96 60 96 60 103 67 c 128,-1,19
 110 74 110 74 120 74 c 2,20,-1
 277 74 l 1,21,-1
 277 1079 l 1,22,-1
 120 1079 l 2,23,24
 110 1079 110 1079 103 1086 c 128,-1,25
 96 1093 96 1093 96 1103 c 2,26,-1
 96 1153 l 2,27,28
 96 1163 96 1163 103 1170 c 128,-1,29
 110 1177 110 1177 120 1177 c 2,30,-1
 1085 1177 l 2,31,32
 1094.66 1177 1094.66 1177 1101.71 1170.08 c 128,-1,33
 1108.77 1163.16 1108.77 1163.16 1108.99 1153.56 c 2,34,-1
 1116.99 810.56 l 2,35,36
 1117.23 800.298 1117.23 800.298 1109.63 793.149 c 128,-1,37
 1102.03 786 1102.03 786 1093 786 c 2,38,-1
 1043 786 l 2,39,40
 1033.7 786 1033.7 786 1026.73 792.472 c 128,-1,41
 1019.76 798.944 1019.76 798.944 1019.07 808.203 c 2,42,-1
 998.735 1079 l 1,43,-1
 382 1079 l 1,44,-1
 382 659 l 1,45,-1
 730 659 l 1,46,-1
 730 792 l 2,47,48
 730 802 730 802 737 809 c 128,-1,49
 744 816 744 816 754 816 c 2,50,-1
 802 816 l 2,51,52
 812 816 812 816 819 809 c 128,-1,53
 826 802 826 802 826 792 c 2,54,-1
 826 432 l 2,55,56
 826 422 826 422 819 415 c 128,-1,57
 812 408 812 408 802 408 c 2,58,-1
 754 408 l 2,59,60
 744 408 744 408 737 415 c 128,-1,61
 730 422 730 422 730 432 c 2,62,-1
 730 561 l 1,63,-1
 382 561 l 1,64,-1
 382 74 l 1,65,-1
 1020.96 74 l 1,0,-1
EndSplineSet
EndChar

StartChar: F
Encoding: 70 70 41
Width: 1228
Flags: W
LayerCount: 2
Fore
SplineSet
1126.99 1153.79 m 2,0,-1
 1137.99 818.788 l 2,1,2
 1138.32 808.513 1138.32 808.513 1130.79 801.256 c 128,-1,3
 1123.26 794 1123.26 794 1114 794 c 2,4,-1
 1066 794 l 2,5,6
 1056.75 794 1056.75 794 1049.83 800.458 c 128,-1,7
 1042.91 806.916 1042.91 806.916 1042.1 815.82 c 2,8,-1
 1018.09 1079 l 1,9,-1
 405 1079 l 1,10,-1
 405 659 l 1,11,-1
 754 659 l 1,12,-1
 754 792 l 2,13,14
 754 802 754 802 761 809 c 128,-1,15
 768 816 768 816 778 816 c 2,16,-1
 826 816 l 2,17,18
 836 816 836 816 843 809 c 128,-1,19
 850 802 850 802 850 792 c 2,20,-1
 850 432 l 2,21,22
 850 422 850 422 843 415 c 128,-1,23
 836 408 836 408 826 408 c 2,24,-1
 778 408 l 2,25,26
 768 408 768 408 761 415 c 128,-1,27
 754 422 754 422 754 432 c 2,28,-1
 754 561 l 1,29,-1
 405 561 l 1,30,-1
 405 74 l 1,31,-1
 659 74 l 2,32,33
 669 74 669 74 676 67 c 128,-1,34
 683 60 683 60 683 50 c 2,35,-1
 683 0 l 2,36,37
 683 -10 683 -10 676 -17 c 128,-1,38
 669 -24 669 -24 659 -24 c 2,39,-1
 151 -24 l 2,40,41
 141 -24 141 -24 134 -17 c 128,-1,42
 127 -10 127 -10 127 0 c 2,43,-1
 127 50 l 2,44,45
 127 60 127 60 134 67 c 128,-1,46
 141 74 141 74 151 74 c 2,47,-1
 300 74 l 1,48,-1
 300 1079 l 1,49,-1
 151 1079 l 2,50,51
 141 1079 141 1079 134 1086 c 128,-1,52
 127 1093 127 1093 127 1103 c 2,53,-1
 127 1153 l 2,54,55
 127 1163 127 1163 134 1170 c 128,-1,56
 141 1177 141 1177 151 1177 c 2,57,-1
 1103 1177 l 2,58,59
 1112.64 1177 1112.64 1177 1119.66 1170.08 c 128,-1,60
 1126.68 1163.16 1126.68 1163.16 1126.99 1153.79 c 2,0,-1
EndSplineSet
EndChar

StartChar: G
Encoding: 71 71 42
Width: 1228
Flags: W
LayerCount: 2
Fore
SplineSet
1063.39 790.241 m 0,0,1
 1043.62 787.416 1043.62 787.416 1024.82 782.717 c 0,2,3
 1014.85 780.223 1014.85 780.223 1006.17 786.06 c 128,-1,4
 997.484 791.897 997.484 791.897 995.536 800.954 c 0,5,6
 976.229 890.728 976.229 890.728 953.772 933.303 c 0,7,8
 942.002 955.617 942.002 955.617 927.42 976.547 c 0,9,10
 913.893 995.962 913.893 995.962 897.982 1014.15 c 0,11,12
 820.156 1102.05 820.156 1102.05 639.628 1108 c 1,13,14
 445.796 1107.62 445.796 1107.62 318.799 957.971 c 0,15,16
 190 806.197 190 806.197 190 573 c 128,-1,17
 190 339.68 190 339.68 308.419 197.387 c 0,18,19
 436.196 45 436.196 45 670 45 c 0,20,21
 795.908 45 795.908 45 998 112.239 c 1,22,-1
 998 404 l 1,23,-1
 706 404 l 2,24,25
 696 404 696 404 689 411 c 128,-1,26
 682 418 682 418 682 428 c 2,27,-1
 682 478 l 2,28,29
 682 488 682 488 689 495 c 128,-1,30
 696 502 696 502 706 502 c 2,31,-1
 1183 502 l 2,32,33
 1193 502 1193 502 1200 495 c 128,-1,34
 1207 488 1207 488 1207 478 c 2,35,-1
 1207 428 l 2,36,37
 1207 418 1207 418 1200 411 c 128,-1,38
 1193 404 1193 404 1183 404 c 2,39,-1
 1104 404 l 1,40,-1
 1104 59 l 2,41,42
 1104 42.9314 1104 42.9314 1089.14 36.8097 c 0,43,44
 851.761 -61 851.761 -61 668 -61 c 0,45,46
 419.515 -61 419.515 -61 269.589 79.4873 c 0,47,48
 267.517 81.4291 267.517 81.4291 265.551 84.4149 c 0,49,50
 203.111 146.394 203.111 146.394 161.711 222.342 c 0,51,52
 159.666 225.156 159.666 225.156 158.92 226.528 c 0,53,54
 76 378.894 76 378.894 76 571 c 0,55,56
 76 815.858 76 815.858 221.656 1014.21 c 0,57,58
 222.06 1014.76 222.06 1014.76 222.494 1015.28 c 0,59,60
 336.512 1153.35 336.512 1153.35 518.269 1199.31 c 0,61,62
 592.826 1217.16 592.826 1217.16 649.436 1213.96 c 0,63,64
 873.597 1199.73 873.597 1199.73 979.78 1066.41 c 1,65,66
 979.105 1094.64 979.105 1094.64 978 1131.64 c 0,67,68
 978 1156.63 978 1156.63 981.22 1180.24 c 0,69,70
 982.422 1189.06 982.422 1189.06 989.284 1195.03 c 128,-1,71
 996.147 1201 996.147 1201 1005 1201 c 2,72,-1
 1060 1201 l 2,73,74
 1070.86 1201 1070.86 1201 1077.92 1192.53 c 128,-1,75
 1084.98 1184.06 1084.98 1184.06 1083.84 1174.24 c 0,76,77
 1076.86 1113.99 1076.86 1113.99 1076.09 1015.95 c 0,78,79
 1076 1004.01 1076 1004.01 1076 991.5 c 0,80,81
 1076 876.58 1076 876.58 1083.8 817.121 c 0,82,83
 1085.09 807.271 1085.09 807.271 1078.71 799.395 c 128,-1,84
 1072.33 791.518 1072.33 791.518 1063.39 790.241 c 0,0,1
EndSplineSet
EndChar

StartChar: H
Encoding: 72 72 43
Width: 1228
Flags: W
LayerCount: 2
Fore
SplineSet
1149 -24 m 2,0,-1
 769 -24 l 2,1,2
 759 -24 759 -24 752 -17 c 128,-1,3
 745 -10 745 -10 745 0 c 2,4,-1
 745 50 l 2,5,6
 745 60 745 60 752 67 c 128,-1,7
 759 74 759 74 769 74 c 2,8,-1
 905 74 l 1,9,-1
 905 547 l 1,10,-1
 322 547 l 1,11,-1
 322 74 l 1,12,-1
 458 74 l 2,13,14
 468 74 468 74 475 67 c 128,-1,15
 482 60 482 60 482 50 c 2,16,-1
 482 0 l 2,17,18
 482 -10 482 -10 475 -17 c 128,-1,19
 468 -24 468 -24 458 -24 c 2,20,-1
 81 -24 l 2,21,22
 71 -24 71 -24 64 -17 c 128,-1,23
 57 -10 57 -10 57 0 c 2,24,-1
 57 50 l 2,25,26
 57 60 57 60 64 67 c 128,-1,27
 71 74 71 74 81 74 c 2,28,-1
 217 74 l 1,29,-1
 217 1079 l 1,30,-1
 81 1079 l 2,31,32
 71 1079 71 1079 64 1086 c 128,-1,33
 57 1093 57 1093 57 1103 c 2,34,-1
 57 1153 l 2,35,36
 57 1163 57 1163 64 1170 c 128,-1,37
 71 1177 71 1177 81 1177 c 2,38,-1
 458 1177 l 2,39,40
 468 1177 468 1177 475 1170 c 128,-1,41
 482 1163 482 1163 482 1153 c 2,42,-1
 482 1103 l 2,43,44
 482 1093 482 1093 475 1086 c 128,-1,45
 468 1079 468 1079 458 1079 c 2,46,-1
 322 1079 l 1,47,-1
 322 645 l 1,48,-1
 905 645 l 1,49,-1
 905 1079 l 1,50,-1
 769 1079 l 2,51,52
 759 1079 759 1079 752 1086 c 128,-1,53
 745 1093 745 1093 745 1103 c 2,54,-1
 745 1153 l 2,55,56
 745 1163 745 1163 752 1170 c 128,-1,57
 759 1177 759 1177 769 1177 c 2,58,-1
 1149 1177 l 2,59,60
 1159 1177 1159 1177 1166 1170 c 128,-1,61
 1173 1163 1173 1163 1173 1153 c 2,62,-1
 1173 1103 l 2,63,64
 1173 1093 1173 1093 1166 1086 c 128,-1,65
 1159 1079 1159 1079 1149 1079 c 2,66,-1
 1010 1079 l 1,67,-1
 1010 74 l 1,68,-1
 1149 74 l 2,69,70
 1159 74 1159 74 1166 67 c 128,-1,71
 1173 60 1173 60 1173 50 c 2,72,-1
 1173 0 l 2,73,74
 1173 -10 1173 -10 1166 -17 c 128,-1,75
 1159 -24 1159 -24 1149 -24 c 2,0,-1
EndSplineSet
EndChar

StartChar: I
Encoding: 73 73 44
Width: 1228
Flags: W
LayerCount: 2
Fore
SplineSet
1016 -24 m 2,0,-1
 212 -24 l 2,1,2
 202 -24 202 -24 195 -17 c 128,-1,3
 188 -10 188 -10 188 0 c 2,4,-1
 188 50 l 2,5,6
 188 60 188 60 195 67 c 128,-1,7
 202 74 202 74 212 74 c 2,8,-1
 561 74 l 1,9,-1
 561 1079 l 1,10,-1
 212 1079 l 2,11,12
 202 1079 202 1079 195 1086 c 128,-1,13
 188 1093 188 1093 188 1103 c 2,14,-1
 188 1153 l 2,15,16
 188 1163 188 1163 195 1170 c 128,-1,17
 202 1177 202 1177 212 1177 c 2,18,-1
 1016 1177 l 2,19,20
 1026 1177 1026 1177 1033 1170 c 128,-1,21
 1040 1163 1040 1163 1040 1153 c 2,22,-1
 1040 1103 l 2,23,24
 1040 1093 1040 1093 1033 1086 c 128,-1,25
 1026 1079 1026 1079 1016 1079 c 2,26,-1
 667 1079 l 1,27,-1
 667 74 l 1,28,-1
 1016 74 l 2,29,30
 1026 74 1026 74 1033 67 c 128,-1,31
 1040 60 1040 60 1040 50 c 2,32,-1
 1040 0 l 2,33,34
 1040 -10 1040 -10 1033 -17 c 128,-1,35
 1026 -24 1026 -24 1016 -24 c 2,0,-1
EndSplineSet
EndChar

StartChar: J
Encoding: 74 74 45
Width: 1228
Flags: W
LayerCount: 2
Fore
SplineSet
874.313 74.7524 m 0,0,1
 825.497 8.57681 825.497 8.57681 745.096 -26.4979 c 0,2,3
 666.008 -61 666.008 -61 605 -61 c 0,4,5
 514.16 -61 514.16 -61 423.899 -39.3373 c 0,6,7
 334.419 -17.8622 334.419 -17.8622 297.546 -2.05948 c 0,8,9
 262.66 12.8914 262.66 12.8914 230.293 26.3361 c 0,10,11
 197.212 40.0778 197.212 40.0778 173.729 51.3086 c 0,12,13
 142.788 65.8122 142.788 65.8122 132.798 69.445 c 0,14,15
 117.759 74.914 117.759 74.914 117.025 90.9002 c 0,16,17
 112.02 200.027 112.02 200.027 108.514 301.673 c 0,18,19
 105.02 403.022 105.02 403.022 100.026 510.89 c 0,20,21
 99.5492 521.181 99.5492 521.181 106.987 528.59 c 128,-1,22
 114.425 536 114.425 536 124 536 c 2,23,-1
 177 536 l 2,24,25
 186.595 536 186.595 536 193.562 529.09 c 128,-1,26
 200.528 522.18 200.528 522.18 200.971 513.179 c 2,27,-1
 209.975 330.089 l 2,28,29
 211.984 281.872 211.984 281.872 213.487 235.782 c 0,30,31
 214.865 193.535 214.865 193.535 221.102 176.072 c 0,32,33
 227.415 158.396 227.415 158.396 232.321 151.737 c 0,34,35
 237.453 144.773 237.453 144.773 245.251 138.534 c 0,36,37
 256.648 128.891 256.648 128.891 294.195 107.248 c 1,38,39
 422.042 45.9616 422.042 45.9616 570.655 44.9995 c 0,40,41
 712.422 44.0818 712.422 44.0818 783.525 140.026 c 1,42,43
 832 209.23 832 209.23 832 376 c 2,44,-1
 832 1079 l 1,45,-1
 435 1079 l 2,46,47
 425 1079 425 1079 418 1086 c 128,-1,48
 411 1093 411 1093 411 1103 c 2,49,-1
 411 1153 l 2,50,51
 411 1163 411 1163 418 1170 c 128,-1,52
 425 1177 425 1177 435 1177 c 2,53,-1
 1184 1177 l 2,54,55
 1194 1177 1194 1177 1201 1170 c 128,-1,56
 1208 1163 1208 1163 1208 1153 c 2,57,-1
 1208 1103 l 2,58,59
 1208 1093 1208 1093 1201 1086 c 128,-1,60
 1194 1079 1194 1079 1184 1079 c 2,61,-1
 937 1079 l 1,62,-1
 937 411 l 2,63,64
 937 300.314 937 300.314 925.768 220.169 c 0,65,66
 914.034 136.447 914.034 136.447 875.188 76.0218 c 0,67,68
 874.772 75.3737 874.772 75.3737 874.313 74.7524 c 0,0,1
EndSplineSet
EndChar

StartChar: K
Encoding: 75 75 46
Width: 1228
Flags: W
LayerCount: 2
Fore
SplineSet
1203 -24 m 2,0,-1
 971 -24 l 2,1,2
 954.582 -24 954.582 -24 948.632 -8.69871 c 0,3,4
 907.325 97.5256 907.325 97.5256 817.097 263.201 c 1,5,6
 719.545 429.688 719.545 429.688 611.927 506.559 c 0,7,8
 577.693 531.664 577.693 531.664 539.965 552.535 c 0,9,10
 537.378 553.965 537.378 553.965 534.089 555.748 c 1,11,-1
 385 413.716 l 1,12,-1
 385 74 l 1,13,-1
 542 74 l 2,14,15
 552 74 552 74 559 67 c 128,-1,16
 566 60 566 60 566 50 c 2,17,-1
 566 0 l 2,18,19
 566 -10 566 -10 559 -17 c 128,-1,20
 552 -24 552 -24 542 -24 c 2,21,-1
 125 -24 l 2,22,23
 115 -24 115 -24 108 -17 c 128,-1,24
 101 -10 101 -10 101 0 c 2,25,-1
 101 50 l 2,26,27
 101 60 101 60 108 67 c 128,-1,28
 115 74 115 74 125 74 c 2,29,-1
 280 74 l 1,30,-1
 280 1079 l 1,31,-1
 125 1079 l 2,32,33
 115 1079 115 1079 108 1086 c 128,-1,34
 101 1093 101 1093 101 1103 c 2,35,-1
 101 1153 l 2,36,37
 101 1163 101 1163 108 1170 c 128,-1,38
 115 1177 115 1177 125 1177 c 2,39,-1
 542 1177 l 2,40,41
 552 1177 552 1177 559 1170 c 128,-1,42
 566 1163 566 1163 566 1153 c 2,43,-1
 566 1103 l 2,44,45
 566 1093 566 1093 559 1086 c 128,-1,46
 552 1079 552 1079 542 1079 c 2,47,-1
 385 1079 l 1,48,-1
 385 551.83 l 1,49,-1
 926.91 1079 l 1,50,-1
 774 1079 l 2,51,52
 764 1079 764 1079 757 1086 c 128,-1,53
 750 1093 750 1093 750 1103 c 2,54,-1
 750 1153 l 2,55,56
 750 1163 750 1163 757 1170 c 128,-1,57
 764 1177 764 1177 774 1177 c 2,58,-1
 1141 1177 l 2,59,60
 1151 1177 1151 1177 1158 1170 c 128,-1,61
 1165 1163 1165 1163 1165 1153 c 2,62,-1
 1165 1103 l 2,63,64
 1165 1093 1165 1093 1158 1086 c 128,-1,65
 1151 1079 1151 1079 1141 1079 c 2,66,-1
 1069.74 1079 l 1,67,-1
 604.109 626.484 l 1,68,69
 657.754 599.184 657.754 599.184 684.659 579.006 c 0,70,71
 744.221 531.768 744.221 531.768 793.76 475.15 c 1,72,73
 903.766 358.816 903.766 358.816 1030.62 74 c 1,74,-1
 1203 74 l 2,75,76
 1213 74 1213 74 1220 67 c 128,-1,77
 1227 60 1227 60 1227 50 c 2,78,-1
 1227 0 l 2,79,80
 1227 -10 1227 -10 1220 -17 c 128,-1,81
 1213 -24 1213 -24 1203 -24 c 2,0,-1
EndSplineSet
EndChar

StartChar: L
Encoding: 76 76 47
Width: 1228
Flags: W
LayerCount: 2
Fore
SplineSet
1024.56 74 m 1,0,-1
 1052.05 483.607 l 2,1,2
 1052.69 493.132 1052.69 493.132 1060.04 499.566 c 128,-1,3
 1067.38 506 1067.38 506 1076 506 c 2,4,-1
 1128 506 l 2,5,6
 1138.3 506 1138.3 506 1145.36 498.228 c 128,-1,7
 1152.41 490.455 1152.41 490.455 1151.98 480.906 c 2,8,-1
 1129.98 -1.0943 l 2,9,10
 1129.54 -10.6888 1129.54 -10.6888 1122.31 -17.3444 c 128,-1,11
 1115.09 -24 1115.09 -24 1106 -24 c 2,12,-1
 123 -24 l 2,13,14
 113 -24 113 -24 106 -17 c 128,-1,15
 99 -10 99 -10 99 0 c 2,16,-1
 99 50 l 2,17,18
 99 60 99 60 106 67 c 128,-1,19
 113 74 113 74 123 74 c 2,20,-1
 313 74 l 1,21,-1
 313 1079 l 1,22,-1
 123 1079 l 2,23,24
 113 1079 113 1079 106 1086 c 128,-1,25
 99 1093 99 1093 99 1103 c 2,26,-1
 99 1153 l 2,27,28
 99 1163 99 1163 106 1170 c 128,-1,29
 113 1177 113 1177 123 1177 c 2,30,-1
 656 1177 l 2,31,32
 666 1177 666 1177 673 1170 c 128,-1,33
 680 1163 680 1163 680 1153 c 2,34,-1
 680 1103 l 2,35,36
 680 1093 680 1093 673 1086 c 128,-1,37
 666 1079 666 1079 656 1079 c 2,38,-1
 417 1079 l 1,39,-1
 417 74 l 1,40,-1
 1024.56 74 l 1,0,-1
EndSplineSet
EndChar

StartChar: M
Encoding: 77 77 48
Width: 1228
Flags: W
LayerCount: 2
Fore
SplineSet
609.101 395.314 m 1,0,1
 673.486 567.888 673.486 567.888 890.46 1161.24 c 0,2,3
 896.222 1177 896.222 1177 913 1177 c 2,4,-1
 1213 1177 l 2,5,6
 1223 1177 1223 1177 1230 1170 c 128,-1,7
 1237 1163 1237 1163 1237 1153 c 2,8,-1
 1237 1103 l 2,9,10
 1237 1093 1237 1093 1230 1086 c 128,-1,11
 1223 1079 1223 1079 1213 1079 c 2,12,-1
 1085.91 1079 l 1,13,-1
 1123.13 74 l 1,14,-1
 1229 74 l 2,15,16
 1239 74 1239 74 1246 67 c 128,-1,17
 1253 60 1253 60 1253 50 c 2,18,-1
 1253 0 l 2,19,20
 1253 -10 1253 -10 1246 -17 c 128,-1,21
 1239 -24 1239 -24 1229 -24 c 2,22,-1
 826 -24 l 2,23,24
 816 -24 816 -24 809 -17 c 128,-1,25
 802 -10 802 -10 802 0 c 2,26,-1
 802 50 l 2,27,28
 802 60 802 60 809 67 c 128,-1,29
 816 74 816 74 826 74 c 2,30,-1
 1031.19 74 l 1,31,-1
 997.784 1079 l 1,32,-1
 958.615 1079 l 1,33,-1
 665.464 299.551 l 2,34,35
 659.615 284 659.615 284 643 284 c 2,36,-1
 567 284 l 2,37,38
 549.967 284 549.967 284 544.345 300.078 c 2,39,-1
 271.967 1079 l 1,40,-1
 231.238 1079 l 1,41,-1
 198.787 74 l 1,42,-1
 404 74 l 2,43,44
 414 74 414 74 421 67 c 128,-1,45
 428 60 428 60 428 50 c 2,46,-1
 428 0 l 2,47,48
 428 -10 428 -10 421 -17 c 128,-1,49
 414 -24 414 -24 404 -24 c 2,50,-1
 1 -24 l 2,51,52
 -9 -24 -9 -24 -16 -17 c 128,-1,53
 -23 -10 -23 -10 -23 0 c 2,54,-1
 -23 50 l 2,55,56
 -23 60 -23 60 -16 67 c 128,-1,57
 -9 74 -9 74 1 74 c 2,58,-1
 106.872 74 l 1,59,-1
 144.095 1079 l 1,60,-1
 15 1079 l 2,61,62
 5 1079 5 1079 -2 1086 c 128,-1,63
 -9 1093 -9 1093 -9 1103 c 2,64,-1
 -9 1153 l 2,65,66
 -9 1163 -9 1163 -2 1170 c 128,-1,67
 5 1177 5 1177 15 1177 c 2,68,-1
 329 1177 l 2,69,70
 346.25 1177 346.25 1177 351.748 1160.65 c 2,71,-1
 609.101 395.314 l 1,0,1
EndSplineSet
EndChar

StartChar: N
Encoding: 78 78 49
Width: 1228
Flags: W
LayerCount: 2
Fore
SplineSet
1071 -52 m 2,0,-1
 921 -52 l 2,1,2
 906.255 -52 906.255 -52 899.591 -38.8466 c 2,3,-1
 333.255 1079 l 1,4,-1
 296 1079 l 1,5,-1
 296 74 l 1,6,-1
 514 74 l 2,7,8
 524 74 524 74 531 67 c 128,-1,9
 538 60 538 60 538 50 c 2,10,-1
 538 0 l 2,11,12
 538 -10 538 -10 531 -17 c 128,-1,13
 524 -24 524 -24 514 -24 c 2,14,-1
 57 -24 l 2,15,16
 47 -24 47 -24 40 -17 c 128,-1,17
 33 -10 33 -10 33 0 c 2,18,-1
 33 50 l 2,19,20
 33 60 33 60 40 67 c 128,-1,21
 47 74 47 74 57 74 c 2,22,-1
 200 74 l 1,23,-1
 200 1079 l 1,24,-1
 57 1079 l 2,25,26
 47 1079 47 1079 40 1086 c 128,-1,27
 33 1093 33 1093 33 1103 c 2,28,-1
 33 1153 l 2,29,30
 33 1163 33 1163 40 1170 c 128,-1,31
 47 1177 47 1177 57 1177 c 2,32,-1
 383 1177 l 2,33,34
 397.768 1177 397.768 1177 404.424 1163.82 c 2,35,-1
 959.768 64 l 1,36,-1
 999 64 l 1,37,-1
 999 1079 l 1,38,-1
 784 1079 l 2,39,40
 774 1079 774 1079 767 1086 c 128,-1,41
 760 1093 760 1093 760 1103 c 2,42,-1
 760 1153 l 2,43,44
 760 1163 760 1163 767 1170 c 128,-1,45
 774 1177 774 1177 784 1177 c 2,46,-1
 1210 1177 l 2,47,48
 1220 1177 1220 1177 1227 1170 c 128,-1,49
 1234 1163 1234 1163 1234 1153 c 2,50,-1
 1234 1103 l 2,51,52
 1234 1093 1234 1093 1227 1086 c 128,-1,53
 1220 1079 1220 1079 1210 1079 c 2,54,-1
 1095 1079 l 1,55,-1
 1095 -28 l 2,56,57
 1095 -38 1095 -38 1088 -45 c 128,-1,58
 1081 -52 1081 -52 1071 -52 c 2,0,-1
EndSplineSet
EndChar

StartChar: O
Encoding: 79 79 50
Width: 1228
Flags: W
LayerCount: 2
Fore
SplineSet
843.484 1034.63 m 0,0,1
 743.702 1108 743.702 1108 628 1108 c 0,2,3
 398.004 1108 398.004 1108 285.036 934.788 c 1,4,5
 179 775.733 179 775.733 179 578 c 0,6,7
 179 367.726 179 367.726 289.471 214.032 c 0,8,9
 411.285 45 411.285 45 613 45 c 0,10,11
 852.596 45 852.596 45 974.844 274.333 c 0,12,13
 1048 410.053 1048 410.053 1048 563 c 0,14,15
 1048 879.065 1048 879.065 847.513 1030.87 c 0,16,17
 846.006 1032.01 846.006 1032.01 843.484 1034.63 c 0,0,1
613 -61 m 0,18,19
 368.791 -61 368.791 -61 212.525 125.68 c 0,20,21
 164.421 184.242 164.421 184.242 132.167 256.033 c 0,22,23
 66 398.705 66 398.705 66 575 c 0,24,25
 66 740.835 66 740.835 131.033 895.675 c 1,26,27
 236.72 1124.84 236.72 1124.84 459.008 1191.96 c 0,28,29
 531.434 1214 531.434 1214 635.5 1214 c 0,30,31
 741.777 1214 741.777 1214 843.909 1161.88 c 0,32,33
 945.447 1110.06 945.447 1110.06 1016.66 1022.1 c 0,34,35
 1162 842.502 1162 842.502 1162 575 c 0,36,37
 1162 311.557 1162 311.557 1014.8 128.075 c 1,38,39
 945.454 39.819 945.454 39.819 841.471 -10.5955 c 128,-1,40
 737.508 -61 737.508 -61 613 -61 c 0,18,19
EndSplineSet
EndChar

StartChar: P
Encoding: 80 80 51
Width: 1228
Flags: W
LayerCount: 2
Fore
SplineSet
865.626 1038.54 m 0,0,1
 787.181 1079 787.181 1079 613 1079 c 2,2,-1
 403 1079 l 1,3,-1
 403 547 l 1,4,-1
 651.44 547 l 1,5,6
 693.991 548.999 693.991 548.999 754.047 553.92 c 0,7,8
 853.172 561.908 853.172 561.908 911.06 608.362 c 128,-1,9
 968.949 654.815 968.949 654.815 990.749 742.952 c 0,10,11
 999 774.118 999 774.118 999 812.5 c 0,12,13
 999 850.49 999 850.49 988.504 885.631 c 128,-1,14
 977.983 920.857 977.983 920.857 959.683 949.222 c 0,15,16
 924.907 1005.96 924.907 1005.96 869.58 1035.89 c 0,17,18
 867.921 1036.79 867.921 1036.79 865.626 1038.54 c 0,0,1
694 -24 m 2,19,-1
 149 -24 l 2,20,21
 139 -24 139 -24 132 -17 c 128,-1,22
 125 -10 125 -10 125 0 c 2,23,-1
 125 50 l 2,24,25
 125 60 125 60 132 67 c 128,-1,26
 139 74 139 74 149 74 c 2,27,-1
 298 74 l 1,28,-1
 298 1079 l 1,29,-1
 149 1079 l 2,30,31
 139 1079 139 1079 132 1086 c 128,-1,32
 125 1093 125 1093 125 1103 c 2,33,-1
 125 1153 l 2,34,35
 125 1163 125 1163 132 1170 c 128,-1,36
 139 1177 139 1177 149 1177 c 2,37,-1
 613 1177 l 2,38,39
 733.124 1177 733.124 1177 802.701 1164.63 c 0,40,41
 874.146 1151.93 874.146 1151.93 922.487 1125.07 c 0,42,43
 1014.54 1075.83 1014.54 1075.83 1063.96 987.188 c 0,44,45
 1113 899.229 1113 899.229 1113 808 c 128,-1,46
 1113 716.894 1113 716.894 1079.16 654.676 c 0,47,48
 1026.04 553.736 1026.04 553.736 972.027 522.231 c 0,49,50
 880.797 469.799 880.797 469.799 821.212 462.215 c 0,51,52
 728.705 449 728.705 449 523 449 c 2,53,-1
 403 449 l 1,54,-1
 403 74 l 1,55,-1
 694 74 l 2,56,57
 704 74 704 74 711 67 c 128,-1,58
 718 60 718 60 718 50 c 2,59,-1
 718 0 l 2,60,61
 718 -10 718 -10 711 -17 c 128,-1,62
 704 -24 704 -24 694 -24 c 2,19,-1
EndSplineSet
EndChar

StartChar: Q
Encoding: 81 81 52
Width: 1228
Flags: W
LayerCount: 2
Fore
SplineSet
844.486 1034.63 m 0,0,1
 744.702 1108 744.702 1108 628 1108 c 0,2,3
 399.003 1108 399.003 1108 286.036 934.788 c 1,4,5
 180 775.733 180 775.733 180 578 c 0,6,7
 180 367.784 180 367.784 291.475 214.026 c 1,8,9
 412.342 45 412.342 45 614 45 c 0,10,11
 853.657 45 853.657 45 976.83 274.307 c 0,12,13
 1049 409.988 1049 409.988 1049 563 c 0,14,15
 1049 879.065 1049 879.065 848.513 1030.87 c 0,16,17
 847.006 1032.01 847.006 1032.01 844.486 1034.63 c 0,0,1
1090.51 -153.727 m 2,18,-1
 1123.51 -193.727 l 2,19,20
 1130.28 -202.783 1130.28 -202.783 1128.28 -213.223 c 128,-1,21
 1126.27 -223.664 1126.27 -223.664 1118.31 -228.969 c 0,22,23
 1016.27 -297 1016.27 -297 926 -297 c 0,24,25
 868.428 -297 868.428 -297 821.176 -278.319 c 0,26,27
 778.019 -261.257 778.019 -261.257 736.133 -241.88 c 1,28,29
 646.549 -203 646.549 -203 563.5 -203 c 0,30,31
 549.778 -203 549.778 -203 534.479 -205.159 c 0,32,33
 458.467 -215.885 458.467 -215.885 346.795 -278.902 c 0,34,35
 338.275 -283.607 338.275 -283.607 328.814 -281.052 c 128,-1,36
 319.352 -278.497 319.352 -278.497 314.468 -270.427 c 2,37,-1
 291.468 -232.427 l 2,38,39
 286.628 -223.775 286.628 -223.775 288.886 -214.502 c 128,-1,40
 291.144 -205.229 291.144 -205.229 298.374 -200.243 c 0,41,42
 354.029 -161.86 354.029 -161.86 386.626 -125.483 c 0,43,44
 421.21 -86.8899 421.21 -86.8899 432.139 -74.9677 c 0,45,46
 448.182 -56.7121 448.182 -56.7121 460.828 -38.1488 c 1,47,48
 272.688 29.8745 272.688 29.8745 172.755 185.111 c 1,49,50
 67 353.077 67 353.077 67 575 c 0,51,52
 67 872.545 67 872.545 231.69 1046.63 c 1,53,54
 394.895 1214 394.895 1214 612 1214 c 0,55,56
 765.956 1214 765.956 1214 890.335 1135.28 c 0,57,58
 1014.46 1056.72 1014.46 1056.72 1089.47 906.733 c 0,59,60
 1090.74 904.193 1090.74 904.193 1091.64 900.296 c 0,61,62
 1163 753.218 1163 753.218 1163 567 c 0,63,64
 1163 381.457 1163 381.457 1084.36 220.051 c 1,65,66
 1040.46 138.52 1040.46 138.52 975.692 73.7504 c 1,67,68
 830.962 -61.7379 830.962 -61.7379 576.084 -61.1137 c 1,69,-1
 535.588 -108.359 l 1,70,-1
 550.624 -106.239 l 2,71,72
 559.294 -105 559.294 -105 568 -105 c 2,73,-1
 583 -105 l 2,74,75
 666.762 -105 666.762 -105 740.162 -135.318 c 0,76,77
 808.645 -163.604 808.645 -163.604 833.129 -172.419 c 0,78,79
 859.049 -181.75 859.049 -181.75 870.841 -187.11 c 0,80,81
 884.093 -193 884.093 -193 937 -193 c 0,82,83
 988.131 -193 988.131 -193 1059.3 -148.633 c 0,84,85
 1067.67 -143.944 1067.67 -143.944 1076.52 -145.717 c 128,-1,86
 1085.37 -147.49 1085.37 -147.49 1090.51 -153.727 c 2,18,-1
EndSplineSet
EndChar

StartChar: R
Encoding: 82 82 53
Width: 1228
Flags: W
LayerCount: 2
Fore
SplineSet
592 626 m 2,0,1
 764 626 764 626 844 684.5 c 128,-1,2
 924 743 924 743 924 862 c 0,3,4
 924 952.783 924 952.783 884.306 1003.38 c 128,-1,5
 844.611 1053.98 844.611 1053.98 761.466 1070.43 c 0,6,7
 715.78 1079 715.78 1079 613 1079 c 2,8,-1
 349 1079 l 1,9,-1
 349 626 l 1,10,-1
 592 626 l 2,0,1
1180 -24 m 2,11,-1
 954 -24 l 2,12,13
 938.83 -24 938.83 -24 932.321 -10.2974 c 0,14,15
 876.026 108.214 876.026 108.214 722.075 340.62 c 0,16,17
 690.833 386.506 690.833 386.506 645.59 440.603 c 0,18,19
 602.38 492.268 602.38 492.268 586.231 504.338 c 1,20,21
 552.198 527 552.198 527 504 527 c 2,22,-1
 349 527 l 1,23,-1
 349 74 l 1,24,-1
 516 74 l 2,25,26
 526 74 526 74 533 67 c 128,-1,27
 540 60 540 60 540 50 c 2,28,-1
 540 0 l 2,29,30
 540 -10 540 -10 533 -17 c 128,-1,31
 526 -24 526 -24 516 -24 c 2,32,-1
 93 -24 l 2,33,34
 83 -24 83 -24 76 -17 c 128,-1,35
 69 -10 69 -10 69 0 c 2,36,-1
 69 50 l 2,37,38
 69 60 69 60 76 67 c 128,-1,39
 83 74 83 74 93 74 c 2,40,-1
 245 74 l 1,41,-1
 245 1079 l 1,42,-1
 93 1079 l 2,43,44
 83 1079 83 1079 76 1086 c 128,-1,45
 69 1093 69 1093 69 1103 c 2,46,-1
 69 1153 l 2,47,48
 69 1163 69 1163 76 1170 c 128,-1,49
 83 1177 83 1177 93 1177 c 2,50,-1
 617 1177 l 2,51,52
 779.381 1177 779.381 1177 852.534 1149.43 c 0,53,54
 881.201 1138.4 881.201 1138.4 908.586 1119.78 c 0,55,56
 1036 1031.58 1036 1031.58 1036 861 c 0,57,58
 1036 721.843 1036 721.843 951.286 637.997 c 128,-1,59
 866.572 554.151 866.572 554.151 705.429 529.148 c 1,60,61
 816.785 404.175 816.785 404.175 1015.58 74 c 1,62,-1
 1180 74 l 2,63,64
 1190 74 1190 74 1197 67 c 128,-1,65
 1204 60 1204 60 1204 50 c 2,66,-1
 1204 0 l 2,67,68
 1204 -10 1204 -10 1197 -17 c 128,-1,69
 1190 -24 1190 -24 1180 -24 c 2,11,-1
EndSplineSet
EndChar

StartChar: S
Encoding: 83 83 54
Width: 1228
Flags: W
LayerCount: 2
Fore
SplineSet
958.3 802.22 m 0,0,1
 937.347 933.56 937.347 933.56 875.801 1006.75 c 128,-1,2
 814.255 1079.94 814.255 1079.94 710.206 1100.22 c 0,3,4
 670.28 1108 670.28 1108 624 1108 c 0,5,6
 463.941 1108 463.941 1108 376.971 1021.03 c 0,7,8
 299.952 944.011 299.952 944.011 299.5 848.386 c 0,9,10
 299.059 755.316 299.059 755.316 377.939 699.037 c 0,11,12
 461.552 639.381 461.552 639.381 626.044 625.913 c 0,13,14
 739.527 615.781 739.527 615.781 809.936 600.987 c 0,15,16
 883.409 585.549 883.409 585.549 943.37 545.932 c 1,17,18
 1070 459.698 1070 459.698 1070 302 c 0,19,20
 1070 126.626 1070 126.626 927.934 25.4589 c 0,21,22
 806.681 -61 806.681 -61 632 -61 c 0,23,24
 456.865 -61 456.865 -61 339.866 36.3692 c 0,25,26
 323.024 49.7854 323.024 49.7854 302.784 71.4043 c 1,27,28
 302.079 41.0631 302.079 41.0631 299.95 4.449 c 0,29,30
 298 -22.8517 298 -22.8517 298 -43 c 0,31,32
 298 -53 298 -53 291 -60 c 128,-1,33
 284 -67 284 -67 274 -67 c 2,34,-1
 218 -67 l 2,35,36
 207.105 -67 207.105 -67 199.872 -58.5075 c 128,-1,37
 192.638 -50.015 192.638 -50.015 194.279 -39.3506 c 0,38,39
 206 36.8371 206 36.8371 206 101 c 0,40,41
 206 165.783 206 165.783 190.125 320.551 c 0,42,43
 189.018 331.343 189.018 331.343 196.722 339.172 c 128,-1,44
 204.426 347 204.426 347 214 347 c 2,45,-1
 261 347 l 2,46,47
 269.333 347 269.333 347 275.956 341.568 c 128,-1,48
 282.58 336.136 282.58 336.136 284.372 328.454 c 0,49,50
 311.154 213.676 311.154 213.676 341.885 174.811 c 0,51,52
 394.772 106.814 394.772 106.814 453.699 75.7271 c 0,53,54
 511.942 45 511.942 45 614 45 c 0,55,56
 717.687 45 717.687 45 783.643 69.4982 c 0,57,58
 849.021 93.7812 849.021 93.7812 887.476 130.406 c 0,59,60
 956 195.323 956 195.323 956 292 c 0,61,62
 956 384.726 956 384.726 883.781 440.28 c 128,-1,63
 811.561 495.834 811.561 495.834 657.294 514.153 c 1,64,65
 343.31 548.117 343.31 548.117 237.619 677.563 c 1,66,67
 187 736.737 187 736.737 187 847 c 0,68,69
 187 994.79 187 994.79 311.065 1104.95 c 0,70,71
 434.409 1214.46 434.409 1214.46 625.689 1204.97 c 0,72,73
 680.368 1202.26 680.368 1202.26 728.358 1192.93 c 0,74,75
 846.773 1169.91 846.773 1169.91 925.45 1106.37 c 0,76,77
 935.054 1097.97 935.054 1097.97 943.989 1089.33 c 1,78,79
 944.917 1106.26 944.917 1106.26 946.01 1124.87 c 0,80,81
 946.138 1129.91 946.138 1129.91 948.05 1159.55 c 0,82,83
 948.102 1160.36 948.102 1160.36 948.211 1161.17 c 0,84,85
 949.284 1169.23 949.284 1169.23 949.334 1173.01 c 0,86,87
 947.796 1182.17 947.796 1182.17 952.989 1190.1 c 128,-1,88
 958.183 1198.03 958.183 1198.03 967.179 1200.28 c 1,89,-1
 973 1201 l 1,90,-1
 1026 1201 l 2,91,92
 1037.44 1201 1037.44 1201 1044.43 1191.82 c 128,-1,93
 1051.42 1182.64 1051.42 1182.64 1049.61 1172.71 c 0,94,95
 1041.88 1130.17 1041.88 1130.17 1039.3 1082.37 c 0,96,97
 1038 1058.34 1038 1058.34 1038 1033 c 0,98,99
 1038 956.209 1038 956.209 1052.87 816.539 c 0,100,101
 1053.88 807.051 1053.88 807.051 1047.75 799.454 c 128,-1,102
 1041.62 791.856 1041.62 791.856 1033.17 790.365 c 0,103,104
 1016.82 787.48 1016.82 787.48 1006.59 786.253 c 2,105,-1
 986.491 782.424 l 2,106,107
 976.396 780.501 976.396 780.501 968.072 786.822 c 128,-1,108
 959.747 793.144 959.747 793.144 958.3 802.22 c 0,0,1
EndSplineSet
EndChar

StartChar: T
Encoding: 84 84 55
Width: 1228
Flags: W
LayerCount: 2
Fore
SplineSet
1127.98 1154.08 m 2,0,-1
 1148.98 687.078 l 2,1,2
 1149.44 676.789 1149.44 676.789 1141.99 669.394 c 128,-1,3
 1134.54 662 1134.54 662 1125 662 c 2,4,-1
 1072 662 l 2,5,6
 1062.45 662 1062.45 662 1055.53 668.899 c 128,-1,7
 1048.61 675.798 1048.61 675.798 1048.05 684.449 c 2,8,-1
 1022.5 1079 l 1,9,-1
 668 1079 l 1,10,-1
 668 74 l 1,11,-1
 901 74 l 2,12,13
 911 74 911 74 918 67 c 128,-1,14
 925 60 925 60 925 50 c 2,15,-1
 925 0 l 2,16,17
 925 -10 925 -10 918 -17 c 128,-1,18
 911 -24 911 -24 901 -24 c 2,19,-1
 327 -24 l 2,20,21
 317 -24 317 -24 310 -17 c 128,-1,22
 303 -10 303 -10 303 0 c 2,23,-1
 303 50 l 2,24,25
 303 60 303 60 310 67 c 128,-1,26
 317 74 317 74 327 74 c 2,27,-1
 562 74 l 1,28,-1
 562 1079 l 1,29,-1
 206.389 1079 l 1,30,-1
 178.942 684.335 l 2,31,32
 178.28 674.819 178.28 674.819 170.923 668.409 c 128,-1,33
 163.566 662 163.566 662 155 662 c 2,34,-1
 105 662 l 2,35,36
 94.7004 662 94.7004 662 87.648 669.772 c 128,-1,37
 80.5955 677.544 80.5955 677.544 81.0242 687.078 c 2,38,-1
 102.024 1154.08 l 2,39,40
 102.456 1163.67 102.456 1163.67 109.675 1170.34 c 128,-1,41
 116.894 1177 116.894 1177 126 1177 c 2,42,-1
 1104 1177 l 2,43,44
 1113.61 1177 1113.61 1177 1120.59 1170.09 c 128,-1,45
 1127.57 1163.17 1127.57 1163.17 1127.98 1154.08 c 2,0,-1
EndSplineSet
EndChar

StartChar: U
Encoding: 85 85 56
Width: 1228
Flags: W
LayerCount: 2
Fore
SplineSet
932.493 266.84 m 0,0,1
 946 332.443 946 332.443 946 454 c 2,2,-1
 946 1079 l 1,3,-1
 752 1079 l 2,4,5
 742 1079 742 1079 735 1086 c 128,-1,6
 728 1093 728 1093 728 1103 c 2,7,-1
 728 1153 l 2,8,9
 728 1163 728 1163 735 1170 c 128,-1,10
 742 1177 742 1177 752 1177 c 2,11,-1
 1181 1177 l 2,12,13
 1191 1177 1191 1177 1198 1170 c 128,-1,14
 1205 1163 1205 1163 1205 1153 c 2,15,-1
 1205 1103 l 2,16,17
 1205 1093 1205 1093 1198 1086 c 128,-1,18
 1191 1079 1191 1079 1181 1079 c 2,19,-1
 1051 1079 l 1,20,-1
 1051 454 l 2,21,22
 1051 202.261 1051 202.261 974.483 95.9857 c 0,23,24
 930.08 34.2533 930.08 34.2533 836.378 -13.3932 c 128,-1,25
 742.631 -61.0625 742.631 -61.0625 644.719 -59.9984 c 0,26,27
 480.006 -57.9266 480.006 -57.9266 394.018 -13.3399 c 0,28,29
 296.833 36.3082 296.833 36.3082 254.506 96.0004 c 0,30,31
 219.817 143.698 219.817 143.698 204.678 205.336 c 0,32,33
 180 308.162 180 308.162 180 454 c 2,34,-1
 180 1079 l 1,35,-1
 49 1079 l 2,36,37
 39 1079 39 1079 32 1086 c 128,-1,38
 25 1093 25 1093 25 1103 c 2,39,-1
 25 1153 l 2,40,41
 25 1163 25 1163 32 1170 c 128,-1,42
 39 1177 39 1177 49 1177 c 2,43,-1
 478 1177 l 2,44,45
 488 1177 488 1177 495 1170 c 128,-1,46
 502 1163 502 1163 502 1153 c 2,47,-1
 502 1103 l 2,48,49
 502 1093 502 1093 495 1086 c 128,-1,50
 488 1079 488 1079 478 1079 c 2,51,-1
 285 1079 l 1,52,-1
 285 396 l 2,53,54
 285 263.219 285 263.219 326.125 180.418 c 1,55,56
 404.339 47 404.339 47 619.5 47 c 0,57,58
 834.351 47 834.351 47 902.652 179.966 c 0,59,60
 903.515 181.647 903.515 181.647 905.407 184.233 c 0,61,62
 921.686 216.329 921.686 216.329 932 261.115 c 0,63,64
 932 264.445 932 264.445 932.493 266.84 c 0,0,1
EndSplineSet
EndChar

StartChar: V
Encoding: 86 86 57
Width: 1228
Flags: W
LayerCount: 2
Fore
SplineSet
653 -24 m 2,0,-1
 585 -24 l 2,1,2
 568.43 -24 568.43 -24 562.557 -8.50495 c 2,3,-1
 150.43 1079 l 1,4,-1
 11 1079 l 2,5,6
 1 1079 1 1079 -6 1086 c 128,-1,7
 -13 1093 -13 1093 -13 1103 c 2,8,-1
 -13 1153 l 2,9,10
 -13 1163 -13 1163 -6 1170 c 128,-1,11
 1 1177 1 1177 11 1177 c 2,12,-1
 419 1177 l 2,13,14
 429 1177 429 1177 436 1170 c 128,-1,15
 443 1163 443 1163 443 1153 c 2,16,-1
 443 1103 l 2,17,18
 443 1093 443 1093 436 1086 c 128,-1,19
 429 1079 429 1079 419 1079 c 2,20,-1
 256.984 1079 l 1,21,-1
 622.097 132.648 l 1,22,-1
 990.889 1079 l 1,23,-1
 813 1079 l 2,24,25
 803 1079 803 1079 796 1086 c 128,-1,26
 789 1093 789 1093 789 1103 c 2,27,-1
 789 1153 l 2,28,29
 789 1163 789 1163 796 1170 c 128,-1,30
 803 1177 803 1177 813 1177 c 2,31,-1
 1218 1177 l 2,32,33
 1228 1177 1228 1177 1235 1170 c 128,-1,34
 1242 1163 1242 1163 1242 1153 c 2,35,-1
 1242 1103 l 2,36,37
 1242 1093 1242 1093 1235 1086 c 128,-1,38
 1228 1079 1228 1079 1218 1079 c 2,39,-1
 1091.51 1079 l 1,40,-1
 675.415 -8.57599 l 2,41,42
 669.514 -24 669.514 -24 653 -24 c 2,0,-1
EndSplineSet
EndChar

StartChar: W
Encoding: 87 87 58
Width: 1228
Flags: W
LayerCount: 2
Fore
SplineSet
301.823 166.142 m 1,0,1
 425.125 511.144 425.125 511.144 577.377 941.012 c 0,2,3
 583.04 957 583.04 957 600 957 c 2,4,-1
 636 957 l 2,5,6
 653.121 957 653.121 957 658.693 940.811 c 2,7,-1
 925.654 165.182 l 1,8,-1
 1053.41 1079 l 1,9,-1
 859 1079 l 2,10,11
 849 1079 849 1079 842 1086 c 128,-1,12
 835 1093 835 1093 835 1103 c 2,13,-1
 835 1153 l 2,14,15
 835 1163 835 1163 842 1170 c 128,-1,16
 849 1177 849 1177 859 1177 c 2,17,-1
 1226 1177 l 2,18,19
 1236 1177 1236 1177 1243 1170 c 128,-1,20
 1250 1163 1250 1163 1250 1153 c 2,21,-1
 1250 1103 l 2,22,23
 1250 1093 1250 1093 1243 1086 c 128,-1,24
 1236 1079 1236 1079 1226 1079 c 2,25,-1
 1150.77 1079 l 1,26,-1
 993.751 -3.44535 l 2,27,28
 992.479 -12.2163 992.479 -12.2163 985.58 -18.1082 c 128,-1,29
 978.682 -24 978.682 -24 970 -24 c 2,30,-1
 903 -24 l 2,31,32
 885.963 -24 885.963 -24 880.343 -7.91625 c 2,33,-1
 611.355 761.946 l 1,34,-1
 338.623 -8.01334 l 2,35,36
 332.96 -24 332.96 -24 316 -24 c 2,37,-1
 249 -24 l 2,38,39
 240.104 -24 240.104 -24 233.258 -18.0069 c 128,-1,40
 226.413 -12.0137 226.413 -12.0137 225.219 -3.23406 c 2,41,-1
 78.0429 1079 l 1,42,-1
 2 1079 l 2,43,44
 -8 1079 -8 1079 -15 1086 c 128,-1,45
 -22 1093 -22 1093 -22 1103 c 2,46,-1
 -22 1153 l 2,47,48
 -22 1163 -22 1163 -15 1170 c 128,-1,49
 -8 1177 -8 1177 2 1177 c 2,50,-1
 373 1177 l 2,51,52
 383 1177 383 1177 390 1170 c 128,-1,53
 397 1163 397 1163 397 1153 c 2,54,-1
 397 1103 l 2,55,56
 397 1093 397 1093 390 1086 c 128,-1,57
 383 1079 383 1079 373 1079 c 2,58,-1
 180.404 1079 l 1,59,-1
 301.823 166.142 l 1,0,1
EndSplineSet
EndChar

StartChar: X
Encoding: 88 88 59
Width: 1228
Flags: W
LayerCount: 2
Fore
SplineSet
1159 -24 m 2,0,-1
 778 -24 l 2,1,2
 768 -24 768 -24 761 -17 c 128,-1,3
 754 -10 754 -10 754 0 c 2,4,-1
 754 50 l 2,5,6
 754 60 754 60 761 67 c 128,-1,7
 768 74 768 74 778 74 c 2,8,-1
 946.81 74 l 1,9,-1
 614.651 529.733 l 1,10,-1
 270.222 74 l 1,11,-1
 474 74 l 2,12,13
 484 74 484 74 491 67 c 128,-1,14
 498 60 498 60 498 50 c 2,15,-1
 498 0 l 2,16,17
 498 -10 498 -10 491 -17 c 128,-1,18
 484 -24 484 -24 474 -24 c 2,19,-1
 69 -24 l 2,20,21
 59 -24 59 -24 52 -17 c 128,-1,22
 45 -10 45 -10 45 0 c 2,23,-1
 45 50 l 2,24,25
 45 60 45 60 52 67 c 128,-1,26
 59 74 59 74 69 74 c 2,27,-1
 153.073 74 l 1,28,-1
 556.872 606.977 l 1,29,-1
 198.096 1079 l 1,30,-1
 108 1079 l 2,31,32
 98 1079 98 1079 91 1086 c 128,-1,33
 84 1093 84 1093 84 1103 c 2,34,-1
 84 1153 l 2,35,36
 84 1163 84 1163 91 1170 c 128,-1,37
 98 1177 98 1177 108 1177 c 2,38,-1
 474 1177 l 2,39,40
 484 1177 484 1177 491 1170 c 128,-1,41
 498 1163 498 1163 498 1153 c 2,42,-1
 498 1103 l 2,43,44
 498 1093 498 1093 491 1086 c 128,-1,45
 484 1079 484 1079 474 1079 c 2,46,-1
 321.791 1079 l 1,47,-1
 615.277 684.816 l 1,48,-1
 917.37 1079 l 1,49,-1
 778 1079 l 2,50,51
 768 1079 768 1079 761 1086 c 128,-1,52
 754 1093 754 1093 754 1103 c 2,53,-1
 754 1153 l 2,54,55
 754 1163 754 1163 761 1170 c 128,-1,56
 768 1177 768 1177 778 1177 c 2,57,-1
 1118 1177 l 2,58,59
 1128 1177 1128 1177 1135 1170 c 128,-1,60
 1142 1163 1142 1163 1142 1153 c 2,61,-1
 1142 1103 l 2,62,63
 1142 1093 1142 1093 1135 1086 c 128,-1,64
 1128 1079 1128 1079 1118 1079 c 2,65,-1
 1033.89 1079 l 1,66,-1
 675.051 607.846 l 1,67,-1
 1073.04 74 l 1,68,-1
 1159 74 l 2,69,70
 1169 74 1169 74 1176 67 c 128,-1,71
 1183 60 1183 60 1183 50 c 2,72,-1
 1183 0 l 2,73,74
 1183 -10 1183 -10 1176 -17 c 128,-1,75
 1169 -24 1169 -24 1159 -24 c 2,0,-1
EndSplineSet
EndChar

StartChar: Y
Encoding: 89 89 60
Width: 1228
Flags: W
LayerCount: 2
Fore
SplineSet
897 -24 m 2,0,-1
 335 -24 l 2,1,2
 325 -24 325 -24 318 -17 c 128,-1,3
 311 -10 311 -10 311 0 c 2,4,-1
 311 50 l 2,5,6
 311 60 311 60 318 67 c 128,-1,7
 325 74 325 74 335 74 c 2,8,-1
 564 74 l 1,9,-1
 564 441.309 l 1,10,-1
 178.465 1079 l 1,11,-1
 68 1079 l 2,12,13
 58 1079 58 1079 51 1086 c 128,-1,14
 44 1093 44 1093 44 1103 c 2,15,-1
 44 1153 l 2,16,17
 44 1163 44 1163 51 1170 c 128,-1,18
 58 1177 58 1177 68 1177 c 2,19,-1
 436 1177 l 2,20,21
 446 1177 446 1177 453 1170 c 128,-1,22
 460 1163 460 1163 460 1153 c 2,23,-1
 460 1103 l 2,24,25
 460 1093 460 1093 453 1086 c 128,-1,26
 446 1079 446 1079 436 1079 c 2,27,-1
 296.824 1079 l 1,28,-1
 622.803 546.301 l 1,29,-1
 942.599 1079 l 1,30,-1
 798 1079 l 2,31,32
 788 1079 788 1079 781 1086 c 128,-1,33
 774 1093 774 1093 774 1103 c 2,34,-1
 774 1153 l 2,35,36
 774 1163 774 1163 781 1170 c 128,-1,37
 788 1177 788 1177 798 1177 c 2,38,-1
 1162 1177 l 2,39,40
 1172 1177 1172 1177 1179 1170 c 128,-1,41
 1186 1163 1186 1163 1186 1153 c 2,42,-1
 1186 1103 l 2,43,44
 1186 1093 1186 1093 1179 1086 c 128,-1,45
 1172 1079 1172 1079 1162 1079 c 2,46,-1
 1051.61 1079 l 1,47,-1
 670 441.367 l 1,48,-1
 670 74 l 1,49,-1
 897 74 l 2,50,51
 907 74 907 74 914 67 c 128,-1,52
 921 60 921 60 921 50 c 2,53,-1
 921 0 l 2,54,55
 921 -10 921 -10 914 -17 c 128,-1,56
 907 -24 907 -24 897 -24 c 2,0,-1
EndSplineSet
EndChar

StartChar: Z
Encoding: 90 90 61
Width: 1228
Flags: W
LayerCount: 2
Fore
SplineSet
1052 -24 m 2,0,-1
 178 -24 l 2,1,2
 168 -24 168 -24 161 -17 c 128,-1,3
 154 -10 154 -10 154 0 c 2,4,-1
 154 68 l 2,5,6
 154 75.8819 154 75.8819 158.673 82.2291 c 2,7,-1
 892.528 1079 l 1,8,-1
 268 1079 l 1,9,-1
 268 791 l 2,10,11
 268 781 268 781 261 774 c 128,-1,12
 254 767 254 767 244 767 c 2,13,-1
 193 767 l 2,14,15
 183 767 183 767 176 774 c 128,-1,16
 169 781 169 781 169 791 c 2,17,-1
 169 1153 l 2,18,19
 169 1163 169 1163 176 1170 c 128,-1,20
 183 1177 183 1177 193 1177 c 2,21,-1
 1002 1177 l 2,22,23
 1012 1177 1012 1177 1019 1170 c 128,-1,24
 1026 1163 1026 1163 1026 1153 c 2,25,-1
 1026 1098 l 2,26,27
 1026 1090.13 1026 1090.13 1021.34 1083.79 c 2,28,-1
 279.415 74 l 1,29,-1
 977 74 l 1,30,-1
 977 397 l 2,31,32
 977 407 977 407 984 414 c 128,-1,33
 991 421 991 421 1001 421 c 2,34,-1
 1052 421 l 2,35,36
 1062 421 1062 421 1069 414 c 128,-1,37
 1076 407 1076 407 1076 397 c 2,38,-1
 1076 0 l 2,39,40
 1076 -10 1076 -10 1069 -17 c 128,-1,41
 1062 -24 1062 -24 1052 -24 c 2,0,-1
EndSplineSet
EndChar

StartChar: bracketleft
Encoding: 91 91 62
Width: 1228
Flags: W
LayerCount: 2
Fore
SplineSet
978 -217 m 2,0,-1
 648 -217 l 2,1,2
 638 -217 638 -217 631 -210 c 128,-1,3
 624 -203 624 -203 624 -193 c 2,4,-1
 624 1339 l 2,5,6
 624 1349 624 1349 631 1356 c 128,-1,7
 638 1363 638 1363 648 1363 c 2,8,-1
 978 1363 l 2,9,10
 988 1363 988 1363 995 1356 c 128,-1,11
 1002 1349 1002 1349 1002 1339 c 2,12,-1
 1002 1282 l 2,13,14
 1002 1272 1002 1272 995 1265 c 128,-1,15
 988 1258 988 1258 978 1258 c 2,16,-1
 730 1258 l 1,17,-1
 730 -111 l 1,18,-1
 978 -111 l 2,19,20
 988 -111 988 -111 995 -118 c 128,-1,21
 1002 -125 1002 -125 1002 -135 c 2,22,-1
 1002 -193 l 2,23,24
 1002 -203 1002 -203 995 -210 c 128,-1,25
 988 -217 988 -217 978 -217 c 2,0,-1
EndSplineSet
EndChar

StartChar: backslash
Encoding: 92 92 63
Width: 1228
Flags: W
LayerCount: 2
Fore
SplineSet
955.149 -280.925 m 2,0,-1
 191.149 1401.07 l 2,1,2
 186.898 1410.43 186.898 1410.43 191.075 1420.02 c 128,-1,3
 195.252 1429.6 195.252 1429.6 203.769 1433.15 c 2,4,-1
 251.769 1453.15 l 2,5,6
 260.665 1456.86 260.665 1456.86 269.811 1453.18 c 128,-1,7
 278.956 1449.49 278.956 1449.49 282.847 1440.94 c 2,8,-1
 1046.85 -239.065 l 2,9,10
 1050.81 -248.52 1050.81 -248.52 1047.1 -257.746 c 128,-1,11
 1043.39 -266.972 1043.39 -266.972 1035 -270.818 c 2,12,-1
 987 -292.818 l 2,13,14
 977.701 -297.08 977.701 -297.08 968.195 -292.901 c 128,-1,15
 958.69 -288.722 958.69 -288.722 955.149 -280.925 c 2,0,-1
EndSplineSet
EndChar

StartChar: bracketright
Encoding: 93 93 64
Width: 1228
Flags: W
LayerCount: 2
Fore
SplineSet
582 -217 m 2,0,-1
 252 -217 l 2,1,2
 242 -217 242 -217 235 -210 c 128,-1,3
 228 -203 228 -203 228 -193 c 2,4,-1
 228 -135 l 2,5,6
 228 -125 228 -125 235 -118 c 128,-1,7
 242 -111 242 -111 252 -111 c 2,8,-1
 501 -111 l 1,9,-1
 501 1258 l 1,10,-1
 252 1258 l 2,11,12
 242 1258 242 1258 235 1265 c 128,-1,13
 228 1272 228 1272 228 1282 c 2,14,-1
 228 1339 l 2,15,16
 228 1349 228 1349 235 1356 c 128,-1,17
 242 1363 242 1363 252 1363 c 2,18,-1
 582 1363 l 2,19,20
 592 1363 592 1363 599 1356 c 128,-1,21
 606 1349 606 1349 606 1339 c 2,22,-1
 606 -193 l 2,23,24
 606 -203 606 -203 599 -210 c 128,-1,25
 592 -217 592 -217 582 -217 c 2,0,-1
EndSplineSet
EndChar

StartChar: asciicircum
Encoding: 94 94 65
Width: 1228
Flags: W
LayerCount: 2
Fore
SplineSet
140.24 326.125 m 2,0,-1
 529.24 1162.12 l 2,1,2
 535.697 1176 535.697 1176 551 1176 c 2,3,-1
 677 1176 l 2,4,5
 692.303 1176 692.303 1176 698.76 1162.12 c 2,6,-1
 1087.76 326.125 l 2,7,8
 1091.9 317.236 1091.9 317.236 1088.46 307.806 c 128,-1,9
 1085.01 298.377 1085.01 298.377 1076.12 294.24 c 0,10,11
 1071.31 292 1071.31 292 1066 292 c 2,12,-1
 984 292 l 2,13,14
 968.724 292 968.724 292 962.257 305.84 c 2,15,-1
 613.763 1051.64 l 1,16,17
 566.206 951.797 566.206 951.797 267.787 305.934 c 0,18,19
 261.349 292 261.349 292 246 292 c 2,20,-1
 162 292 l 2,21,22
 152 292 152 292 145 299 c 128,-1,23
 138 306 138 306 138 316 c 0,24,25
 138 321.31 138 321.31 140.24 326.125 c 2,0,-1
EndSplineSet
EndChar

StartChar: underscore
Encoding: 95 95 66
Width: 1228
Flags: W
LayerCount: 2
Fore
SplineSet
1324 -280 m 2,0,-1
 -96 -280 l 2,1,2
 -106 -280 -106 -280 -113 -273 c 128,-1,3
 -120 -266 -120 -266 -120 -256 c 2,4,-1
 -120 -199 l 2,5,6
 -120 -189 -120 -189 -113 -182 c 128,-1,7
 -106 -175 -106 -175 -96 -175 c 2,8,-1
 1324 -175 l 2,9,10
 1334 -175 1334 -175 1341 -182 c 128,-1,11
 1348 -189 1348 -189 1348 -199 c 2,12,-1
 1348 -256 l 2,13,14
 1348 -266 1348 -266 1341 -273 c 128,-1,15
 1334 -280 1334 -280 1324 -280 c 2,0,-1
EndSplineSet
EndChar

StartChar: grave
Encoding: 96 96 67
Width: 1228
Flags: W
LayerCount: 2
Fore
SplineSet
711 1043 m 2,0,-1
 654 1043 l 2,1,2
 645.065 1043 645.065 1043 638.305 1048.84 c 0,3,4
 579.548 1099.63 579.548 1099.63 523.105 1149.52 c 0,5,6
 466.888 1199.21 466.888 1199.21 410.355 1247.8 c 0,7,8
 402.92 1254.19 402.92 1254.19 402.164 1264.2 c 128,-1,9
 401.409 1274.21 401.409 1274.21 407.8 1281.65 c 0,10,11
 414.983 1290 414.983 1290 426 1290 c 2,12,-1
 576 1290 l 2,13,14
 588.72 1290 588.72 1290 595.861 1279.47 c 2,15,-1
 730.861 1080.47 l 2,16,17
 736.365 1072.36 736.365 1072.36 734.476 1062.5 c 128,-1,18
 732.587 1052.64 732.587 1052.64 724.474 1047.14 c 0,19,20
 718.373 1043 718.373 1043 711 1043 c 2,0,-1
EndSplineSet
EndChar

StartChar: a
Encoding: 97 97 68
Width: 1228
Flags: W
LayerCount: 2
Fore
SplineSet
857 451.817 m 1,0,1
 725.383 474 725.383 474 614 474 c 0,2,3
 494.493 474 494.493 474 437.434 462.013 c 128,-1,4
 380.501 450.052 380.501 450.052 341.074 432.216 c 0,5,6
 225.757 377.737 225.757 377.737 208.635 267.798 c 0,7,8
 208 264.624 208 264.624 208 260 c 2,9,-1
 208 247 l 2,10,11
 208 166.086 208 166.086 277.061 107.272 c 0,12,13
 347.834 47 347.834 47 440 47 c 0,14,15
 649.078 47 649.078 47 857 276.209 c 1,16,-1
 857 451.817 l 1,0,1
206.995 861.247 m 0,17,18
 421.331 948 421.331 948 595 948 c 0,19,20
 857.376 948 857.376 948 933.879 781.866 c 0,21,22
 950.371 744.483 950.371 744.483 955.309 705.518 c 0,23,24
 959.836 669.8 959.836 669.8 960.836 661.304 c 0,25,26
 962 651.405 962 651.405 962 639 c 2,27,-1
 962 75 l 1,28,-1
 1131 75 l 2,29,30
 1141 75 1141 75 1148 68 c 128,-1,31
 1155 61 1155 61 1155 51 c 2,32,-1
 1155 0 l 2,33,34
 1155 -10 1155 -10 1148 -17 c 128,-1,35
 1141 -24 1141 -24 1131 -24 c 2,36,-1
 881 -24 l 2,37,38
 871 -24 871 -24 864 -17 c 128,-1,39
 857 -10 857 -10 857 0 c 2,40,-1
 857 134.75 l 1,41,42
 633.834 -55 633.834 -55 442 -55 c 0,43,44
 290.53 -55 290.53 -55 191.464 37.6047 c 1,45,46
 94.4279 131.405 94.4279 131.405 94.0002 249.445 c 1,47,48
 89.997 345.059 89.997 345.059 170.008 435.883 c 0,49,50
 293.198 575 293.198 575 552 575 c 0,51,52
 699.781 575 699.781 575 857 546.05 c 1,53,-1
 857 614.294 l 1,54,55
 859.339 709.844 859.339 709.844 822.043 762.848 c 128,-1,56
 784.746 815.853 784.746 815.853 704.794 833.572 c 0,57,58
 653.173 845.042 653.173 845.042 592.811 846 c 0,59,60
 435.841 846 435.841 846 245.303 765.876 c 0,61,62
 236.151 762.028 236.151 762.028 226.878 766.099 c 128,-1,63
 217.605 770.17 217.605 770.17 214.012 778.38 c 0,64,65
 206.739 795.003 206.739 795.003 193.502 830.643 c 0,66,67
 190.144 839.685 190.144 839.685 194.181 848.69 c 128,-1,68
 198.219 857.694 198.219 857.694 206.995 861.247 c 0,17,18
EndSplineSet
EndChar

StartChar: b
Encoding: 98 98 69
Width: 1228
Flags: W
LayerCount: 2
Fore
SplineSet
398.08 169.861 m 1,0,1
 507.939 60 507.939 60 666.5 60 c 0,2,3
 824.658 60 824.658 60 928.554 169.981 c 0,4,5
 1033 280.545 1033 280.545 1033 433.5 c 128,-1,6
 1033 586.424 1033 586.424 928.091 696.98 c 0,7,8
 823.69 807 823.69 807 666 807 c 0,9,10
 507.941 807 507.941 807 398.471 697.529 c 128,-1,11
 289 588.059 289 588.059 289 435 c 128,-1,12
 289 281.762 289 281.762 398.08 169.861 c 1,0,1
4.30214 1316.94 m 0,13,14
 145.405 1326.96 145.405 1326.96 261.554 1333.96 c 0,15,16
 271.858 1334.58 271.858 1334.58 279.429 1327.24 c 128,-1,17
 287 1319.91 287 1319.91 287 1310 c 2,18,-1
 287 733.183 l 1,19,20
 337.236 799.184 337.236 799.184 416.014 844.793 c 0,21,22
 534.492 912.941 534.492 912.941 647.776 913.999 c 0,23,24
 759.822 915.045 759.822 915.045 848.454 877.06 c 0,25,26
 936.618 839.274 936.618 839.274 1003.85 773.092 c 0,27,28
 1151.21 627.823 1151.21 627.823 1147 431.739 c 1,29,30
 1147 241.382 1147 241.382 1015.38 103.454 c 0,31,32
 874.296 -45 874.296 -45 672 -45 c 0,33,34
 489.974 -45 489.974 -45 378.297 52.8499 c 0,35,36
 328.954 94.9964 328.954 94.9964 302.213 126.456 c 0,37,38
 294.955 134.996 294.955 134.996 287 145.697 c 1,39,-1
 287 0 l 2,40,41
 287 -10 287 -10 280 -17 c 128,-1,42
 273 -24 273 -24 263 -24 c 2,43,-1
 32 -24 l 2,44,45
 22 -24 22 -24 15 -17 c 128,-1,46
 8 -10 8 -10 8 0 c 2,47,-1
 8 51 l 2,48,49
 8 61 8 61 15 68 c 128,-1,50
 22 75 22 75 32 75 c 2,51,-1
 182 75 l 1,52,-1
 182 1227.77 l 1,53,-1
 7.1985 1219.03 l 2,54,55
 -3.09585 1218.52 -3.09585 1218.52 -10.5479 1225.93 c 128,-1,56
 -18 1233.34 -18 1233.34 -18 1243 c 2,57,-1
 -18 1293 l 2,58,59
 -18 1302.54 -18 1302.54 -11.1063 1309.44 c 128,-1,60
 -4.21252 1316.34 -4.21252 1316.34 4.30214 1316.94 c 0,13,14
EndSplineSet
EndChar

StartChar: c
Encoding: 99 99 70
Width: 1228
Flags: W
LayerCount: 2
Fore
SplineSet
1091.75 878.537 m 0,0,1
 1078 784.243 1078 784.243 1078 726.5 c 0,2,3
 1078 667.748 1078 667.748 1081.95 604.497 c 0,4,5
 1082.53 595.316 1082.53 595.316 1076.53 588.05 c 128,-1,6
 1070.53 580.783 1070.53 580.783 1062.02 579.339 c 2,7,-1
 1009.02 570.339 l 2,8,9
 999.989 568.806 999.989 568.806 992.165 573.997 c 128,-1,10
 984.34 579.189 984.34 579.189 981.975 587.228 c 0,11,12
 976.791 604.854 976.791 604.854 975.229 617.529 c 0,13,14
 963.519 678.263 963.519 678.263 928.702 721.734 c 0,15,16
 914.27 739.754 914.27 739.754 895.766 754.955 c 0,17,18
 830.612 808.478 830.612 808.478 741.772 824.375 c 0,19,20
 741.134 824.489 741.134 824.489 740.503 824.638 c 0,21,22
 709.219 832 709.219 832 626 832 c 0,23,24
 544.867 832 544.867 832 464.36 797.9 c 0,25,26
 384.488 764.07 384.488 764.07 336.187 708.34 c 0,27,28
 235 590.129 235 590.129 235 444 c 0,29,30
 235 296.577 235 296.577 329.623 181.139 c 0,31,32
 376.1 123.508 376.1 123.508 455.902 87.362 c 0,33,34
 536.182 51 536.182 51 640 51 c 0,35,36
 827.66 51 827.66 51 1078.54 220.874 c 0,37,38
 1086.67 226.25 1086.67 226.25 1096.29 224.472 c 128,-1,39
 1105.92 222.694 1105.92 222.694 1111.43 215.087 c 2,40,-1
 1140.43 175.087 l 2,41,42
 1146.17 166.542 1146.17 166.542 1144.37 156.82 c 128,-1,43
 1142.57 147.098 1142.57 147.098 1135.27 141.7 c 0,44,45
 1064.93 89.7118 1064.93 89.7118 1023.97 67.4203 c 0,46,47
 987.925 47.7984 987.925 47.7984 954.872 28.9939 c 0,48,49
 952.633 27.0815 952.633 27.0815 950.37 25.864 c 0,50,51
 800.044 -55 800.044 -55 629.232 -55 c 1,52,53
 412.351 -59.1912 412.351 -59.1912 262.121 88.9387 c 0,54,55
 115.072 234.939 115.072 234.939 121 441.368 c 1,56,57
 121.348 627.148 121.348 627.148 245.617 775.43 c 0,58,59
 307.267 848.774 307.267 848.774 409.464 893.024 c 0,60,61
 511.027 937 511.027 937 637 937 c 0,62,63
 841.246 937 841.246 937 974.102 816.797 c 0,64,65
 974.547 816.394 974.547 816.394 974.971 815.971 c 0,66,67
 976.934 814.007 976.934 814.007 979.712 811.007 c 1,68,69
 980.146 815.655 980.146 815.655 980.619 820.388 c 0,70,71
 983.14 845.598 983.14 845.598 984.671 858.359 c 0,72,73
 986.079 870.095 986.079 870.095 987.037 887.331 c 0,74,75
 987.606 897.565 987.606 897.565 995.741 904.062 c 128,-1,76
 1003.88 910.559 1003.88 910.559 1012.68 909.941 c 2,77,-1
 1069.68 905.941 l 2,78,79
 1080 905.217 1080 905.217 1086.61 896.951 c 128,-1,80
 1093.23 888.685 1093.23 888.685 1091.75 878.537 c 0,0,1
EndSplineSet
EndChar

StartChar: d
Encoding: 100 100 71
Width: 1228
Flags: W
LayerCount: 2
Fore
SplineSet
557 807 m 0,0,1
 409.597 807 409.597 807 300.554 703.122 c 0,2,3
 192 599.712 192 599.712 192 436.5 c 0,4,5
 192 272.974 192 272.974 298.933 166.508 c 128,-1,6
 405.909 60 405.909 60 557.5 60 c 128,-1,7
 709.119 60 709.119 60 816.604 166.545 c 128,-1,8
 924 273.002 924 273.002 924 429 c 0,9,10
 924 568.515 924 568.515 832.299 681.958 c 0,11,12
 787.66 737.757 787.66 737.757 716.05 772.394 c 128,-1,13
 644.506 807 644.506 807 557 807 c 0,0,1
597.843 1291.9 m 2,14,-1
 1007.84 1328.9 l 2,15,16
 1018.63 1329.88 1018.63 1329.88 1026.32 1322.08 c 128,-1,17
 1034 1314.28 1034 1314.28 1034 1305 c 2,18,-1
 1034 75 l 1,19,-1
 1194 75 l 2,20,21
 1204 75 1204 75 1211 68 c 128,-1,22
 1218 61 1218 61 1218 51 c 2,23,-1
 1218 0 l 2,24,25
 1218 -10 1218 -10 1211 -17 c 128,-1,26
 1204 -24 1204 -24 1194 -24 c 2,27,-1
 952 -24 l 2,28,29
 942 -24 942 -24 935 -17 c 128,-1,30
 928 -10 928 -10 928 0 c 2,31,-1
 928 139.309 l 1,32,33
 876.441 69.4032 876.441 69.4032 798.349 22.4207 c 0,34,35
 685.628 -45 685.628 -45 557 -45 c 0,36,37
 357.004 -45 357.004 -45 217.466 95.5934 c 128,-1,38
 78 236.113 78 236.113 78 434 c 0,39,40
 78 574.956 78 574.956 148.224 685.841 c 0,41,42
 218.08 796.145 218.08 796.145 326.615 854.628 c 0,43,44
 434.944 913 434.944 913 553 913 c 0,45,46
 693.304 913 693.304 913 817.871 829.43 c 0,47,48
 884.76 784.556 884.76 784.556 928 723.172 c 1,49,-1
 928 1218.3 l 1,50,-1
 603.642 1196.06 l 2,51,52
 593.425 1195.36 593.425 1195.36 585.989 1202.63 c 128,-1,53
 578.553 1209.89 578.553 1209.89 578.041 1218.59 c 0,54,55
 577 1236.3 577 1236.3 577 1247 c 0,56,57
 577 1255.91 577 1255.91 576.099 1265.83 c 0,58,59
 575.173 1276.01 575.173 1276.01 582.276 1283.57 c 128,-1,60
 589.379 1291.14 589.379 1291.14 597.843 1291.9 c 2,14,-1
EndSplineSet
EndChar

StartChar: e
Encoding: 101 101 72
Width: 1228
Flags: W
LayerCount: 2
Fore
SplineSet
1012.05 511 m 1,0,1
 1003.46 638.81 1003.46 638.81 923.287 725.806 c 0,2,3
 823.361 836 823.361 836 637 836 c 0,4,5
 473.685 836 473.685 836 377.256 750.341 c 1,6,7
 282.941 660.521 282.941 660.521 256.866 576.709 c 0,8,9
 246.154 543.902 246.154 543.902 239.017 511 c 1,10,-1
 1012.05 511 l 1,0,1
652 47 m 0,11,12
 825.499 47 825.499 47 1102.51 181.587 c 0,13,14
 1111.62 185.585 1111.62 185.585 1120.6 182.491 c 128,-1,15
 1129.58 179.397 1129.58 179.397 1133.86 171.863 c 2,16,-1
 1162.86 120.863 l 2,17,18
 1167.77 111.398 1167.77 111.398 1164.57 101.721 c 128,-1,19
 1161.38 92.0445 1161.38 92.0445 1153.11 87.7276 c 0,20,21
 879.891 -55 879.891 -55 650 -55 c 0,22,23
 393.493 -55 393.493 -55 254.31 95.7811 c 1,24,25
 126 236.712 126 236.712 126 438 c 0,26,27
 126 573.064 126 573.064 186.381 684.902 c 0,28,29
 247.034 797.242 247.034 797.242 364.747 867.137 c 128,-1,30
 482.408 937 482.408 937 619 937 c 0,31,32
 871.435 937 871.435 937 1004.47 794.46 c 1,33,34
 1128 664.592 1128 664.592 1128 508 c 2,35,-1
 1128 436 l 2,36,37
 1128 426 1128 426 1121 419 c 128,-1,38
 1114 412 1114 412 1104 412 c 2,39,-1
 239.012 412 l 1,40,41
 249.128 314.421 249.128 314.421 291.074 233.494 c 1,42,43
 374.76 87.5859 374.76 87.5859 561.201 54.6295 c 0,44,45
 604.117 47 604.117 47 652 47 c 0,11,12
EndSplineSet
EndChar

StartChar: f
Encoding: 102 102 73
Width: 1228
Flags: W
LayerCount: 2
Fore
SplineSet
1049.91 1263.21 m 1,0,1
 1029.27 1217.02 1029.27 1217.02 1025.56 1206.8 c 0,2,3
 1022.44 1198.23 1022.44 1198.23 1014.08 1194.01 c 128,-1,4
 1005.72 1189.8 1005.72 1189.8 997.759 1191.58 c 0,5,6
 857.252 1223.02 857.252 1223.02 725.82 1224 c 0,7,8
 564.805 1224.9 564.805 1224.9 527.12 1136.69 c 0,9,10
 511.993 1100.2 511.993 1100.2 510 1044.61 c 1,11,-1
 510 879 l 1,12,-1
 947 879 l 2,13,14
 957 879 957 879 964 872 c 128,-1,15
 971 865 971 865 971 855 c 2,16,-1
 971 804 l 2,17,18
 971 794 971 794 964 787 c 128,-1,19
 957 780 957 780 947 780 c 2,20,-1
 510 780 l 1,21,-1
 510 75 l 1,22,-1
 947 75 l 2,23,24
 957 75 957 75 964 68 c 128,-1,25
 971 61 971 61 971 51 c 2,26,-1
 971 0 l 2,27,28
 971 -10 971 -10 964 -17 c 128,-1,29
 957 -24 957 -24 947 -24 c 2,30,-1
 203 -24 l 2,31,32
 193 -24 193 -24 186 -17 c 128,-1,33
 179 -10 179 -10 179 0 c 2,34,-1
 179 51 l 2,35,36
 179 61 179 61 186 68 c 128,-1,37
 193 75 193 75 203 75 c 2,38,-1
 404 75 l 1,39,-1
 404 780 l 1,40,-1
 203 780 l 2,41,42
 193 780 193 780 186 787 c 128,-1,43
 179 794 179 794 179 804 c 2,44,-1
 179 855 l 2,45,46
 179 865 179 865 186 872 c 128,-1,47
 193 879 193 879 203 879 c 2,48,-1
 404 879 l 1,49,-1
 404 1002 l 2,50,51
 404 1042.53 404 1042.53 414.192 1122.53 c 0,52,53
 425.518 1211.43 425.518 1211.43 504.05 1267.53 c 0,54,55
 580.3 1322 580.3 1322 735 1322 c 0,56,57
 884.09 1322 884.09 1322 1032.05 1296.66 c 0,58,59
 1041.71 1295 1041.71 1295 1047.51 1286.81 c 128,-1,60
 1053.31 1278.61 1053.31 1278.61 1051.66 1268.95 c 1,61,-1
 1049.91 1263.21 l 1,0,1
EndSplineSet
EndChar

StartChar: g
Encoding: 103 103 74
Width: 1228
Flags: W
LayerCount: 2
Fore
SplineSet
282.702 702.038 m 1,0,1
 183 603.823 183 603.823 183 459 c 0,2,3
 183 308.943 183 308.943 285.971 205.971 c 128,-1,4
 388.939 103 388.939 103 537 103 c 0,5,6
 684.661 103 684.661 103 782.063 205.991 c 0,7,8
 880 309.548 880 309.548 880 460 c 0,9,10
 880 609.891 880 609.891 779.229 708.332 c 0,11,12
 678.226 807 678.226 807 537 807 c 0,13,14
 395.563 807 395.563 807 289.502 706.573 c 0,15,16
 286.741 703.959 286.741 703.959 282.702 702.038 c 1,0,1
765.409 65.0955 m 0,17,18
 664.331 -3 664.331 -3 533.5 -3 c 0,19,20
 406.763 -3 406.763 -3 300.049 57.3158 c 0,21,22
 296.932 58.607 296.932 58.607 295.207 59.6938 c 0,23,24
 190.381 125.734 190.381 125.734 128.188 229.038 c 1,25,26
 68 338.854 68 338.854 68 461 c 0,27,28
 68 583.836 68 583.836 133.602 689.647 c 0,29,30
 198.881 794.934 198.881 794.934 304.818 853.965 c 128,-1,31
 410.763 913 410.763 913 531 913 c 0,32,33
 610.039 913 610.039 913 651.361 898.676 c 0,34,35
 690.278 885.186 690.278 885.186 728.115 866.525 c 0,36,37
 766.884 847.404 766.884 847.404 806.791 815.901 c 0,38,39
 849.303 782.886 849.303 782.886 880 745.29 c 1,40,-1
 880 881 l 2,41,42
 880 891 880 891 887 898 c 128,-1,43
 894 905 894 905 904 905 c 2,44,-1
 1138 905 l 2,45,46
 1148 905 1148 905 1155 898 c 128,-1,47
 1162 891 1162 891 1162 881 c 2,48,-1
 1162 829 l 2,49,50
 1162 819 1162 819 1155 812 c 128,-1,51
 1148 805 1148 805 1138 805 c 2,52,-1
 987 805 l 1,53,-1
 987 58 l 2,54,55
 987 -44.7547 987 -44.7547 964.352 -115.333 c 0,56,57
 941.003 -188.099 941.003 -188.099 884.624 -242.31 c 0,58,59
 776.658 -346 776.658 -346 492 -346 c 2,60,-1
 381 -346 l 2,61,62
 371 -346 371 -346 364 -339 c 128,-1,63
 357 -332 357 -332 357 -322 c 2,64,-1
 357 -270 l 2,65,66
 357 -260 357 -260 364 -253 c 128,-1,67
 371 -246 371 -246 381 -246 c 2,68,-1
 429.742 -246 l 1,69,-1
 522.235 -244.011 l 1,70,71
 592.011 -241.062 592.011 -241.062 639.023 -235.185 c 0,72,73
 722.262 -224.78 722.262 -224.78 746.093 -211.162 c 0,74,75
 772.886 -195.851 772.886 -195.851 790.763 -182.679 c 0,76,77
 807.766 -170.15 807.766 -170.15 823.067 -153.049 c 0,78,79
 856.956 -114.7 856.956 -114.7 868.097 -65.6811 c 0,80,81
 880 -13.3061 880 -13.3061 880 58 c 2,82,-1
 880 168.308 l 1,83,84
 868.743 153.886 868.743 153.886 855.562 139.642 c 0,85,86
 810.892 91.9949 810.892 91.9949 767.752 66.8911 c 0,87,88
 766.546 65.8609 766.546 65.8609 765.409 65.0955 c 0,17,18
EndSplineSet
EndChar

StartChar: h
Encoding: 104 104 75
Width: 1228
Flags: W
LayerCount: 2
Fore
SplineSet
446.325 859.796 m 0,0,1
 583.989 937 583.989 937 714.5 937 c 0,2,3
 852.037 937 852.037 937 937.157 837.695 c 1,4,5
 1025 736.998 1025 736.998 1025 581 c 2,6,-1
 1025 75 l 1,7,-1
 1183 75 l 2,8,9
 1193 75 1193 75 1200 68 c 128,-1,10
 1207 61 1207 61 1207 51 c 2,11,-1
 1207 0 l 2,12,13
 1207 -10 1207 -10 1200 -17 c 128,-1,14
 1193 -24 1193 -24 1183 -24 c 2,15,-1
 759 -24 l 2,16,17
 749 -24 749 -24 742 -17 c 128,-1,18
 735 -10 735 -10 735 0 c 2,19,-1
 735 51 l 2,20,21
 735 61 735 61 742 68 c 128,-1,22
 749 75 749 75 759 75 c 2,23,-1
 919 75 l 1,24,-1
 919 572 l 2,25,26
 919 692.519 919 692.519 861.326 763.925 c 0,27,28
 806.512 832 806.512 832 710 832 c 0,29,30
 549.201 832 549.201 832 333 657.591 c 1,31,-1
 333 75 l 1,32,-1
 481 75 l 2,33,34
 491 75 491 75 498 68 c 128,-1,35
 505 61 505 61 505 51 c 2,36,-1
 505 0 l 2,37,38
 505 -10 505 -10 498 -17 c 128,-1,39
 491 -24 491 -24 481 -24 c 2,40,-1
 70 -24 l 2,41,42
 60 -24 60 -24 53 -17 c 128,-1,43
 46 -10 46 -10 46 0 c 2,44,-1
 46 51 l 2,45,46
 46 61 46 61 53 68 c 128,-1,47
 60 75 60 75 70 75 c 2,48,-1
 228 75 l 1,49,-1
 228 1228.33 l 1,50,51
 154.618 1223.03 154.618 1223.03 51.5225 1212.13 c 0,52,53
 41.3389 1211.06 41.3389 1211.06 33.6412 1218.05 c 128,-1,54
 25.9434 1225.04 25.9434 1225.04 25.1102 1233.7 c 2,55,-1
 20.1102 1285.7 l 2,56,57
 19.1297 1295.9 19.1297 1295.9 26.1926 1303.54 c 128,-1,58
 33.2556 1311.17 33.2556 1311.17 41.9709 1311.91 c 0,59,60
 206.621 1325.89 206.621 1325.89 307.324 1332.94 c 0,61,62
 317.634 1333.66 317.634 1333.66 325.317 1326.4 c 128,-1,63
 333 1319.14 333 1319.14 333 1309 c 2,64,-1
 333 782.38 l 1,65,66
 353.22 796.35 353.22 796.35 372.107 809.57 c 0,67,68
 422.72 846.012 422.72 846.012 441.485 857.479 c 0,69,70
 443.098 858.464 443.098 858.464 446.325 859.796 c 0,0,1
EndSplineSet
EndChar

StartChar: i
Encoding: 105 105 76
Width: 1228
Flags: W
LayerCount: 2
Fore
SplineSet
648 1112 m 2,0,-1
 542 1112 l 2,1,2
 532 1112 532 1112 525 1119 c 128,-1,3
 518 1126 518 1126 518 1136 c 2,4,-1
 518 1343 l 2,5,6
 518 1353 518 1353 525 1360 c 128,-1,7
 532 1367 532 1367 542 1367 c 2,8,-1
 648 1367 l 2,9,10
 658 1367 658 1367 665 1360 c 128,-1,11
 672 1353 672 1353 672 1343 c 2,12,-1
 672 1136 l 2,13,14
 672 1126 672 1126 665 1119 c 128,-1,15
 658 1112 658 1112 648 1112 c 2,0,-1
1022 -24 m 2,16,-1
 209 -24 l 2,17,18
 199 -24 199 -24 192 -17 c 128,-1,19
 185 -10 185 -10 185 0 c 2,20,-1
 185 51 l 2,21,22
 185 61 185 61 192 68 c 128,-1,23
 199 75 199 75 209 75 c 2,24,-1
 565 75 l 1,25,-1
 565 805 l 1,26,-1
 271 805 l 2,27,28
 261 805 261 805 254 812 c 128,-1,29
 247 819 247 819 247 829 c 2,30,-1
 247 881 l 2,31,32
 247 891 247 891 254 898 c 128,-1,33
 261 905 261 905 271 905 c 2,34,-1
 648 905 l 2,35,36
 658 905 658 905 665 898 c 128,-1,37
 672 891 672 891 672 881 c 2,38,-1
 672 75 l 1,39,-1
 1022 75 l 2,40,41
 1032 75 1032 75 1039 68 c 128,-1,42
 1046 61 1046 61 1046 51 c 2,43,-1
 1046 0 l 2,44,45
 1046 -10 1046 -10 1039 -17 c 128,-1,46
 1032 -24 1032 -24 1022 -24 c 2,16,-1
EndSplineSet
EndChar

StartChar: j
Encoding: 106 106 77
Width: 1228
Flags: W
LayerCount: 2
Fore
SplineSet
748 1111 m 2,0,-1
 642 1111 l 2,1,2
 632 1111 632 1111 625 1118 c 128,-1,3
 618 1125 618 1125 618 1135 c 2,4,-1
 618 1342 l 2,5,6
 618 1352 618 1352 625 1359 c 128,-1,7
 632 1366 632 1366 642 1366 c 2,8,-1
 748 1366 l 2,9,10
 758 1366 758 1366 765 1359 c 128,-1,11
 772 1352 772 1352 772 1342 c 2,12,-1
 772 1135 l 2,13,14
 772 1125 772 1125 765 1118 c 128,-1,15
 758 1111 758 1111 748 1111 c 2,0,-1
167.113 -200.551 m 0,16,17
 297.585 -229 297.585 -229 396.5 -229 c 0,18,19
 494.376 -229 494.376 -229 545.913 -213.07 c 0,20,21
 596.459 -197.447 596.459 -197.447 627.846 -171.89 c 0,22,23
 658.895 -146.607 658.895 -146.607 675.093 -114.65 c 0,24,25
 692.138 -81.0196 692.138 -81.0196 699.5 -45.128 c 0,26,27
 709 0.46788 709 0.46788 709 93 c 2,28,-1
 709 805 l 1,29,-1
 181 805 l 2,30,31
 171 805 171 805 164 812 c 128,-1,32
 157 819 157 819 157 829 c 2,33,-1
 157 881 l 2,34,35
 157 891 157 891 164 898 c 128,-1,36
 171 905 171 905 181 905 c 2,37,-1
 791 905 l 2,38,39
 801 905 801 905 808 898 c 128,-1,40
 815 891 815 891 815 881 c 2,41,-1
 815 78 l 2,42,43
 815 -153.343 815 -153.343 694.269 -252.517 c 0,44,45
 600.874 -329.811 600.874 -329.811 410.264 -334 c 1,46,47
 310.687 -334 310.687 -334 143.431 -301.561 c 0,48,49
 133.295 -299.595 133.295 -299.595 127.782 -290.603 c 128,-1,50
 122.27 -281.612 122.27 -281.612 124.768 -271.977 c 2,51,-1
 138.768 -217.977 l 2,52,53
 141.183 -208.664 141.183 -208.664 149.634 -203.623 c 128,-1,54
 158.085 -198.582 158.085 -198.582 167.113 -200.551 c 0,16,17
EndSplineSet
EndChar

StartChar: k
Encoding: 107 107 78
Width: 1228
Flags: W
LayerCount: 2
Fore
SplineSet
564.059 525.123 m 1,0,1
 664.418 430.669 664.418 430.669 745.527 350.097 c 0,2,3
 913.566 183.171 913.566 183.171 999.645 75 c 1,4,-1
 1157 75 l 2,5,6
 1167 75 1167 75 1174 68 c 128,-1,7
 1181 61 1181 61 1181 51 c 2,8,-1
 1181 0 l 2,9,10
 1181 -10 1181 -10 1174 -17 c 128,-1,11
 1167 -24 1167 -24 1157 -24 c 2,12,-1
 758 -24 l 2,13,14
 748 -24 748 -24 741 -17 c 128,-1,15
 734 -10 734 -10 734 0 c 2,16,-1
 734 51 l 2,17,18
 734 61 734 61 741 68 c 128,-1,19
 748 75 748 75 758 75 c 2,20,-1
 873.201 75 l 1,21,22
 790.414 170.609 790.414 170.609 677.187 283.12 c 0,23,24
 590.569 369.19 590.569 369.19 485.589 465.727 c 1,25,-1
 363 372.129 l 1,26,-1
 363 0 l 2,27,28
 363 -10 363 -10 356 -17 c 128,-1,29
 349 -24 349 -24 339 -24 c 2,30,-1
 101 -24 l 2,31,32
 91 -24 91 -24 84 -17 c 128,-1,33
 77 -10 77 -10 77 0 c 2,34,-1
 77 51 l 2,35,36
 77 61 77 61 84 68 c 128,-1,37
 91 75 91 75 101 75 c 2,38,-1
 257 75 l 1,39,-1
 257 1226.3 l 1,40,41
 184.785 1221.04 184.785 1221.04 76.4064 1210.12 c 0,42,43
 66.2264 1209.1 66.2264 1209.1 58.5795 1216.12 c 128,-1,44
 50.9325 1223.15 50.9325 1223.15 50.1102 1231.7 c 2,45,-1
 45.1102 1283.7 l 2,46,47
 44.1298 1293.9 44.1298 1293.9 51.1929 1301.54 c 128,-1,48
 58.256 1309.17 58.256 1309.17 66.9629 1309.91 c 2,49,-1
 336.963 1332.91 l 2,50,51
 347.752 1333.83 347.752 1333.83 355.376 1326 c 128,-1,52
 363 1318.16 363 1318.16 363 1309 c 2,53,-1
 363 488.404 l 1,54,-1
 779.293 805 l 1,55,-1
 673 805 l 2,56,57
 663 805 663 805 656 812 c 128,-1,58
 649 819 649 819 649 829 c 2,59,-1
 649 881 l 2,60,61
 649 891 649 891 656 898 c 128,-1,62
 663 905 663 905 673 905 c 2,63,-1
 1075 905 l 2,64,65
 1085 905 1085 905 1092 898 c 128,-1,66
 1099 891 1099 891 1099 881 c 2,67,-1
 1099 829 l 2,68,69
 1099 819 1099 819 1092 812 c 128,-1,70
 1085 805 1085 805 1075 805 c 2,71,-1
 930.124 805 l 1,72,-1
 564.059 525.123 l 1,0,1
EndSplineSet
EndChar

StartChar: l
Encoding: 108 108 79
Width: 1228
Flags: W
LayerCount: 2
Fore
SplineSet
220.46 1267.95 m 2,0,-1
 640.46 1294.95 l 2,1,2
 650.766 1295.61 650.766 1295.61 658.383 1288.31 c 128,-1,3
 666 1281 666 1281 666 1271 c 2,4,-1
 666 75 l 1,5,-1
 1019 75 l 2,6,7
 1029 75 1029 75 1036 68 c 128,-1,8
 1043 61 1043 61 1043 51 c 2,9,-1
 1043 0 l 2,10,11
 1043 -10 1043 -10 1036 -17 c 128,-1,12
 1029 -24 1029 -24 1019 -24 c 2,13,-1
 208 -24 l 2,14,15
 198 -24 198 -24 191 -17 c 128,-1,16
 184 -10 184 -10 184 0 c 2,17,-1
 184 51 l 2,18,19
 184 61 184 61 191 68 c 128,-1,20
 198 75 198 75 208 75 c 2,21,-1
 560 75 l 1,22,-1
 560 1196.03 l 1,23,-1
 230.887 1170.07 l 2,24,25
 221.352 1169.32 221.352 1169.32 213.899 1175.66 c 128,-1,26
 206.447 1181.99 206.447 1181.99 205.232 1190.67 c 2,27,-1
 198.232 1240.67 l 2,28,29
 196.798 1250.91 196.798 1250.91 203.51 1259.1 c 128,-1,30
 210.222 1267.29 210.222 1267.29 220.46 1267.95 c 2,0,-1
EndSplineSet
EndChar

StartChar: m
Encoding: 109 109 80
Width: 1228
Flags: W
LayerCount: 2
Fore
SplineSet
638.79 791.717 m 1,0,1
 712.988 870.132 712.988 870.132 787.77 899.004 c 0,2,3
 831.791 916 831.791 916 876 916 c 0,4,5
 961.407 916 961.407 916 1019.84 880.544 c 128,-1,6
 1078.28 845.088 1078.28 845.088 1104.47 775.427 c 0,7,8
 1124 723.344 1124 723.344 1124 564 c 2,9,-1
 1124 75 l 1,10,-1
 1224 75 l 2,11,12
 1234 75 1234 75 1241 68 c 128,-1,13
 1248 61 1248 61 1248 51 c 2,14,-1
 1248 0 l 2,15,16
 1248 -10 1248 -10 1241 -17 c 128,-1,17
 1234 -24 1234 -24 1224 -24 c 2,18,-1
 1043 -24 l 2,19,20
 1033 -24 1033 -24 1026 -17 c 128,-1,21
 1019 -10 1019 -10 1019 0 c 2,22,-1
 1019 618 l 2,23,24
 1019 721.085 1019 721.085 1000.81 755.726 c 0,25,26
 966.572 819.197 966.572 819.197 878.544 823 c 1,27,28
 847.01 822.863 847.01 822.863 816.409 810.232 c 0,29,30
 743.539 780.153 743.539 780.153 673 678.576 c 1,31,-1
 673 75 l 1,32,-1
 783 75 l 2,33,34
 793 75 793 75 800 68 c 128,-1,35
 807 61 807 61 807 51 c 2,36,-1
 807 0 l 2,37,38
 807 -10 807 -10 800 -17 c 128,-1,39
 793 -24 793 -24 783 -24 c 2,40,-1
 591 -24 l 2,41,42
 581 -24 581 -24 574 -17 c 128,-1,43
 567 -10 567 -10 567 0 c 2,44,-1
 567 572 l 2,45,46
 567 706.491 567 706.491 553.637 740.787 c 0,47,48
 540.809 773.712 540.809 773.712 523.846 788.308 c 0,49,50
 505.579 804.026 505.579 804.026 485.573 811.528 c 0,51,52
 485.01 811.739 485.01 811.739 484.457 811.979 c 0,53,54
 459.022 823 459.022 823 426 823 c 0,55,56
 409.229 823 409.229 823 392.814 819.501 c 0,57,58
 309.091 801.652 309.091 801.652 231 691.456 c 1,59,-1
 231 75 l 1,60,-1
 354 75 l 2,61,62
 364 75 364 75 371 68 c 128,-1,63
 378 61 378 61 378 51 c 2,64,-1
 378 0 l 2,65,66
 378 -10 378 -10 371 -17 c 128,-1,67
 364 -24 364 -24 354 -24 c 2,68,-1
 2 -24 l 2,69,70
 -8 -24 -8 -24 -15 -17 c 128,-1,71
 -22 -10 -22 -10 -22 0 c 2,72,-1
 -22 51 l 2,73,74
 -22 61 -22 61 -15 68 c 128,-1,75
 -8 75 -8 75 2 75 c 2,76,-1
 125 75 l 1,77,-1
 125 805 l 1,78,-1
 2 805 l 2,79,80
 -8 805 -8 805 -15 812 c 128,-1,81
 -22 819 -22 819 -22 829 c 2,82,-1
 -22 881 l 2,83,84
 -22 891 -22 891 -15 898 c 128,-1,85
 -8 905 -8 905 2 905 c 2,86,-1
 207 905 l 2,87,88
 217 905 217 905 224 898 c 128,-1,89
 231 891 231 891 231 881 c 2,90,-1
 231 834.133 l 1,91,92
 301.29 900.109 301.29 900.109 378.373 912.342 c 0,93,94
 399.417 915.681 399.417 915.681 421.415 915 c 0,95,96
 578.389 914.55 578.389 914.55 638.79 791.717 c 1,0,1
EndSplineSet
EndChar

StartChar: n
Encoding: 110 110 81
Width: 1228
Flags: W
LayerCount: 2
Fore
SplineSet
1159 -24 m 2,0,-1
 742 -24 l 2,1,2
 732 -24 732 -24 725 -17 c 128,-1,3
 718 -10 718 -10 718 0 c 2,4,-1
 718 51 l 2,5,6
 718 61 718 61 725 68 c 128,-1,7
 732 75 732 75 742 75 c 2,8,-1
 904 75 l 1,9,-1
 904 572 l 2,10,11
 904 693.172 904 693.172 844.219 763.45 c 0,12,13
 785.907 832 785.907 832 702.5 832 c 0,14,15
 613.747 832 613.747 832 526.372 787.604 c 0,16,17
 439.573 743.5 439.573 743.5 329 657.318 c 1,18,-1
 329 75 l 1,19,-1
 487 75 l 2,20,21
 497 75 497 75 504 68 c 128,-1,22
 511 61 511 61 511 51 c 2,23,-1
 511 0 l 2,24,25
 511 -10 511 -10 504 -17 c 128,-1,26
 497 -24 497 -24 487 -24 c 2,27,-1
 71 -24 l 2,28,29
 61 -24 61 -24 54 -17 c 128,-1,30
 47 -10 47 -10 47 0 c 2,31,-1
 47 51 l 2,32,33
 47 61 47 61 54 68 c 128,-1,34
 61 75 61 75 71 75 c 2,35,-1
 224 75 l 1,36,-1
 224 805 l 1,37,-1
 71 805 l 2,38,39
 61 805 61 805 54 812 c 128,-1,40
 47 819 47 819 47 829 c 2,41,-1
 47 881 l 2,42,43
 47 891 47 891 54 898 c 128,-1,44
 61 905 61 905 71 905 c 2,45,-1
 305 905 l 2,46,47
 315 905 315 905 322 898 c 128,-1,48
 329 891 329 891 329 881 c 2,49,-1
 329 781.525 l 1,50,51
 343.896 792.172 343.896 792.172 357.927 801.794 c 0,52,53
 375.405 813.779 375.405 813.779 389.874 823.757 c 0,54,55
 405.001 834.19 405.001 834.19 415.652 840.58 c 0,56,57
 523.376 905.211 523.376 905.211 568.356 918.062 c 0,58,59
 633.586 937 633.586 937 688 937 c 0,60,61
 834.812 937 834.812 937 922.476 837.902 c 0,62,63
 1009 740.092 1009 740.092 1009 581 c 2,64,-1
 1009 75 l 1,65,-1
 1159 75 l 2,66,67
 1169 75 1169 75 1176 68 c 128,-1,68
 1183 61 1183 61 1183 51 c 2,69,-1
 1183 0 l 2,70,71
 1183 -10 1183 -10 1176 -17 c 128,-1,72
 1169 -24 1169 -24 1159 -24 c 2,0,-1
EndSplineSet
EndChar

StartChar: o
Encoding: 111 111 82
Width: 1228
Flags: W
LayerCount: 2
Fore
SplineSet
901.385 147.226 m 0,0,1
 1037 263.064 1037 263.064 1037 445 c 0,2,3
 1037 584.031 1037 584.031 956.815 691.58 c 0,4,5
 886.588 784.279 886.588 784.279 758.149 822.999 c 0,6,7
 693.545 842 693.545 842 604 842 c 0,8,9
 515.599 842 515.599 842 434.368 809.699 c 0,10,11
 353.87 777.688 353.87 777.688 301.605 721.689 c 0,12,13
 193 603.645 193 603.645 193 446 c 0,14,15
 193 283.762 193 283.762 301.245 172.692 c 1,16,17
 418.218 51 418.218 51 603 51 c 0,18,19
 789.118 51 789.118 51 901.385 147.226 c 0,0,1
1151 446 m 0,20,21
 1151 291.228 1151 291.228 1067.29 167.087 c 0,22,23
 1066.26 164.685 1066.26 164.685 1065.18 163.008 c 0,24,25
 965.936 8.87616 965.936 8.87616 762.427 -39.3786 c 0,26,27
 693.692 -55 693.692 -55 591.5 -55 c 0,28,29
 487.368 -55 487.368 -55 384.567 -13.7756 c 0,30,31
 281.062 27.731 281.062 27.731 214.432 99.6486 c 0,32,33
 79 244.531 79 244.531 79 446 c 0,34,35
 79 650.525 79 650.525 214.522 794.448 c 0,36,37
 358.606 948 358.606 948 615 948 c 0,38,39
 745.669 948 745.669 948 849.032 906.236 c 0,40,41
 1039.65 828.304 1039.65 828.304 1116.36 629.708 c 0,42,43
 1151 541.535 1151 541.535 1151 446 c 0,20,21
EndSplineSet
EndChar

StartChar: p
Encoding: 112 112 83
Width: 1228
Flags: W
LayerCount: 2
Fore
SplineSet
1040 452 m 0,0,1
 1040 590.215 1040 590.215 949.387 705.844 c 1,2,3
 904.491 758.842 904.491 758.842 834.054 792.893 c 128,-1,4
 763.5 827 763.5 827 675 827 c 0,5,6
 506.821 827 506.821 827 395.825 717.885 c 128,-1,7
 285 608.938 285 608.938 285 456 c 0,8,9
 285 275.055 285 275.055 414.587 164.25 c 0,10,11
 529.843 66 529.843 66 677 66 c 0,12,13
 822.941 66 822.941 66 931.384 176.324 c 128,-1,14
 1040 286.824 1040 286.824 1040 452 c 0,0,1
998.233 91.7628 m 0,15,16
 852.864 -39 852.864 -39 677 -39 c 2,17,-1
 658 -39 l 2,18,19
 497.011 -39 497.011 -39 342.234 95.9049 c 0,20,21
 315.262 119.405 315.262 119.405 294 144.711 c 1,22,-1
 294 -246 l 1,23,-1
 592 -246 l 2,24,25
 602 -246 602 -246 609 -253 c 128,-1,26
 616 -260 616 -260 616 -270 c 2,27,-1
 616 -322 l 2,28,29
 616 -332 616 -332 609 -339 c 128,-1,30
 602 -346 602 -346 592 -346 c 2,31,-1
 35 -346 l 2,32,33
 25 -346 25 -346 18 -339 c 128,-1,34
 11 -332 11 -332 11 -322 c 2,35,-1
 11 -270 l 2,36,37
 11 -260 11 -260 18 -253 c 128,-1,38
 25 -246 25 -246 35 -246 c 2,39,-1
 189 -246 l 1,40,-1
 189 805 l 1,41,-1
 35 805 l 2,42,43
 25 805 25 805 18 812 c 128,-1,44
 11 819 11 819 11 829 c 2,45,-1
 11 881 l 2,46,47
 11 891 11 891 18 898 c 128,-1,48
 25 905 25 905 35 905 c 2,49,-1
 270 905 l 2,50,51
 280 905 280 905 287 898 c 128,-1,52
 294 891 294 891 294 881 c 2,53,-1
 294 754.172 l 1,54,55
 340.14 812.162 340.14 812.162 411.5 855.488 c 0,56,57
 536.226 932 536.226 932 675.5 932 c 128,-1,58
 814.884 932 814.884 932 927.211 861.857 c 0,59,60
 1039.2 791.923 1039.2 791.923 1096.71 683.225 c 0,61,62
 1154 574.947 1154 574.947 1154 449 c 0,63,64
 1154 240.801 1154 240.801 1003.67 95.7302 c 0,65,66
 1001.62 93.7572 1001.62 93.7572 998.233 91.7628 c 0,15,16
EndSplineSet
EndChar

StartChar: q
Encoding: 113 113 84
Width: 1228
Flags: W
LayerCount: 2
Fore
SplineSet
296.114 176.826 m 1,0,1
 406.002 66 406.002 66 555 66 c 0,2,3
 666.881 66 666.881 66 764.267 129.348 c 1,4,5
 889.4 204.615 889.4 204.615 928.825 348.239 c 0,6,7
 942 398.12 942 398.12 942 456 c 0,8,9
 942 608.938 942 608.938 831.211 717.85 c 0,10,11
 719.236 827 719.236 827 553 827 c 0,12,13
 374.533 827 374.533 827 277.616 705.851 c 1,14,15
 187 596.359 187 596.359 187 442 c 0,16,17
 187 288.762 187 288.762 296.114 176.826 c 1,0,1
1193 -346 m 2,18,-1
 634 -346 l 2,19,20
 624 -346 624 -346 617 -339 c 128,-1,21
 610 -332 610 -332 610 -322 c 2,22,-1
 610 -270 l 2,23,24
 610 -260 610 -260 617 -253 c 128,-1,25
 624 -246 624 -246 634 -246 c 2,26,-1
 934 -246 l 1,27,-1
 934 158.743 l 1,28,29
 914.03 132.089 914.03 132.089 888.971 107.029 c 0,30,31
 765.117 -16.8267 765.117 -16.8267 616.847 -34.8305 c 0,32,33
 581.406 -39 581.406 -39 570 -39 c 2,34,-1
 551 -39 l 2,35,36
 434.833 -39 434.833 -39 324.93 21.4729 c 128,-1,37
 214.937 81.9957 214.937 81.9957 144.122 195.822 c 0,38,39
 73 310.142 73 310.142 73 442.5 c 0,40,41
 73 573.98 73 573.98 130.807 682.762 c 0,42,43
 188.821 791.936 188.821 791.936 301.199 862.301 c 0,44,45
 411.027 932 411.027 932 555 932 c 0,46,47
 685.935 932 685.935 932 818.853 848.268 c 0,48,49
 889.012 803.486 889.012 803.486 934 746.787 c 1,50,-1
 934 881 l 2,51,52
 934 891 934 891 941 898 c 128,-1,53
 948 905 948 905 958 905 c 2,54,-1
 1193 905 l 2,55,56
 1203 905 1203 905 1210 898 c 128,-1,57
 1217 891 1217 891 1217 881 c 2,58,-1
 1217 829 l 2,59,60
 1217 819 1217 819 1210 812 c 128,-1,61
 1203 805 1203 805 1193 805 c 2,62,-1
 1039 805 l 1,63,-1
 1039 -246 l 1,64,-1
 1193 -246 l 2,65,66
 1203 -246 1203 -246 1210 -253 c 128,-1,67
 1217 -260 1217 -260 1217 -270 c 2,68,-1
 1217 -322 l 2,69,70
 1217 -332 1217 -332 1210 -339 c 128,-1,71
 1203 -346 1203 -346 1193 -346 c 2,18,-1
EndSplineSet
EndChar

StartChar: r
Encoding: 114 114 85
Width: 1228
Flags: W
LayerCount: 2
Fore
SplineSet
1176.49 802.866 m 2,0,-1
 1106.49 749.866 l 2,1,2
 1097.95 743.698 1097.95 743.698 1087.76 745.589 c 128,-1,3
 1077.58 747.48 1077.58 747.48 1072.11 755.563 c 0,4,5
 1049.62 788.854 1049.62 788.854 1018.79 810.298 c 0,6,7
 990.637 829.885 990.637 829.885 932.364 829.003 c 0,8,9
 871.533 828.082 871.533 828.082 809.211 798.781 c 0,10,11
 744.469 768.342 744.469 768.342 689.325 726.744 c 0,12,13
 661.2 706.118 661.2 706.118 632.852 681.358 c 0,14,15
 572.306 628.476 572.306 628.476 510.203 556.359 c 0,16,17
 508.77 554.687 508.77 554.687 507 552.66 c 1,18,-1
 507 75 l 1,19,-1
 895 75 l 2,20,21
 905 75 905 75 912 68 c 128,-1,22
 919 61 919 61 919 51 c 2,23,-1
 919 0 l 2,24,25
 919 -10 919 -10 912 -17 c 128,-1,26
 905 -24 905 -24 895 -24 c 2,27,-1
 157 -24 l 2,28,29
 147 -24 147 -24 140 -17 c 128,-1,30
 133 -10 133 -10 133 0 c 2,31,-1
 133 51 l 2,32,33
 133 61 133 61 140 68 c 128,-1,34
 147 75 147 75 157 75 c 2,35,-1
 402 75 l 1,36,-1
 402 805 l 1,37,-1
 174 805 l 2,38,39
 164 805 164 805 157 812 c 128,-1,40
 150 819 150 819 150 829 c 2,41,-1
 150 881 l 2,42,43
 150 891 150 891 157 898 c 128,-1,44
 164 905 164 905 174 905 c 2,45,-1
 483 905 l 2,46,47
 493 905 493 905 500 898 c 128,-1,48
 507 891 507 891 507 881 c 2,49,-1
 507 685.573 l 1,50,51
 508.942 687.431 508.942 687.431 510.365 688.8 c 0,52,53
 523.385 701.319 523.385 701.319 534.911 712.343 c 0,54,55
 546.212 723.153 546.212 723.153 553.029 729.971 c 0,56,57
 560.26 737.201 560.26 737.201 569.521 745.948 c 128,-1,58
 578.774 754.688 578.774 754.688 590.304 764.167 c 0,59,60
 778.136 935 778.136 935 957 935 c 0,61,62
 1070.65 935 1070.65 935 1141.66 876.191 c 1,63,64
 1162 857.99 1162 857.99 1179.89 838.003 c 0,65,66
 1186.96 828.993 1186.96 828.993 1185.34 818.673 c 128,-1,67
 1183.73 808.353 1183.73 808.353 1176.49 802.866 c 2,0,-1
EndSplineSet
EndChar

StartChar: s
Encoding: 115 115 86
Width: 1228
Flags: W
LayerCount: 2
Fore
SplineSet
1006.66 902.961 m 0,0,1
 993 822.957 993 822.957 993 768 c 0,2,3
 993 711.971 993 711.971 998.926 636.889 c 0,4,5
 999.681 627.321 999.681 627.321 993.34 619.829 c 128,-1,6
 987 612.337 987 612.337 978.039 611.193 c 2,7,-1
 931.039 605.193 l 2,8,9
 922.863 604.149 922.863 604.149 915.65 608.665 c 128,-1,10
 908.437 613.181 908.437 613.181 905.67 620.203 c 0,11,12
 892.72 653.077 892.72 653.077 876.836 691.29 c 0,13,14
 867.856 712.9 867.856 712.9 850.979 733.178 c 0,15,16
 841.592 744.457 841.592 744.457 829.764 755.325 c 0,17,18
 750.651 828 750.651 828 565 828 c 0,19,20
 435.555 828 435.555 828 363.746 777.827 c 0,21,22
 296 730.492 296 730.492 296 676.5 c 0,23,24
 296 617.676 296 617.676 317.548 587.424 c 0,25,26
 339.876 556.077 339.876 556.077 379.281 537.687 c 0,27,28
 458.096 499.704 458.096 499.704 617.456 490.956 c 0,29,30
 677.43 486.957 677.43 486.957 734.75 483.967 c 0,31,32
 794.171 480.868 794.171 480.868 835.549 471.963 c 128,-1,33
 876.855 463.074 876.855 463.074 912.571 449.417 c 0,34,35
 949.969 435.118 949.969 435.118 980.839 410.863 c 0,36,37
 1056 351.643 1056 351.643 1056 256 c 0,38,39
 1056 164.587 1056 164.587 1016.32 106.468 c 0,40,41
 977.836 50.0972 977.836 50.0972 916.347 13.4197 c 0,42,43
 799.68 -57 799.68 -57 634 -57 c 0,44,45
 501.91 -57 501.91 -57 386.848 -1.35868 c 0,46,47
 357.44 12.8626 357.44 12.8626 329.184 30.7083 c 0,48,49
 326.922 32.1372 326.922 32.1372 325.029 34.0294 c 0,50,51
 322.28 36.7788 322.28 36.7788 308.2 47.2256 c 0,52,53
 298.023 54.7762 298.023 54.7762 290 61.3857 c 1,54,-1
 290 19.4895 l 1,55,-1
 287.978 -28.0204 l 2,56,57
 287.57 -37.6238 287.57 -37.6238 280.365 -44.3119 c 128,-1,58
 273.16 -51 273.16 -51 264 -51 c 2,59,-1
 207 -51 l 2,60,61
 196.117 -51 196.117 -51 188.96 -42.5173 c 128,-1,62
 181.802 -34.0346 181.802 -34.0346 183.225 -23.7207 c 0,63,64
 191 32.6452 191 32.6452 191 98.5 c 0,65,66
 191 164.887 191 164.887 181.102 271.787 c 0,67,68
 180.219 281.325 180.219 281.325 186.455 288.878 c 128,-1,69
 192.691 296.431 192.691 296.431 201.465 297.738 c 2,70,-1
 248.465 304.738 l 2,71,72
 265.043 307.207 265.043 307.207 273.069 292.492 c 0,73,74
 291.765 258.218 291.765 258.218 309.801 212.87 c 0,75,76
 325.713 172.861 325.713 172.861 358.866 136.025 c 0,77,78
 386.565 105.068 386.565 105.068 427.616 85.1723 c 0,79,80
 502.25 49 502.25 49 621 49 c 0,81,82
 824.006 49 824.006 49 910.836 149.687 c 0,83,84
 943 186.929 943 186.929 943 250 c 0,85,86
 943 379 943 379 681.481 379 c 1,87,88
 469.333 388.182 469.333 388.182 380.436 419.895 c 0,89,90
 289.606 452.298 289.606 452.298 237.687 506.379 c 0,91,92
 183 563.343 183 563.343 183 645 c 0,93,94
 183 723.754 183 723.754 214.021 774.515 c 0,95,96
 244.377 824.187 244.377 824.187 296.856 858.081 c 0,97,98
 406.761 931 406.761 931 563 931 c 0,99,100
 780.993 931 780.993 931 896 827.792 c 1,101,-1
 896 870 l 2,102,103
 896 871.407 896 871.407 896.164 872.804 c 0,104,105
 898 888.41 898 888.41 898 895 c 2,106,-1
 898 918 l 2,107,108
 898 929.44 898 929.44 907.181 936.422 c 128,-1,109
 916.362 943.404 916.362 943.404 926.259 941.619 c 2,110,-1
 987.259 930.619 l 2,111,112
 997.04 928.855 997.04 928.855 1002.61 920.383 c 128,-1,113
 1008.19 911.911 1008.19 911.911 1006.66 902.961 c 0,0,1
EndSplineSet
EndChar

StartChar: t
Encoding: 116 116 87
Width: 1228
Flags: W
LayerCount: 2
Fore
SplineSet
676 51 m 0,0,1
 813.367 51 813.367 51 1071.07 154.278 c 0,2,3
 1080.3 157.975 1080.3 157.975 1089.52 153.753 c 128,-1,4
 1098.74 149.531 1098.74 149.531 1102.19 141.138 c 2,5,-1
 1123.19 90.138 l 2,6,7
 1126.87 81.2043 1126.87 81.2043 1123.16 72.039 c 128,-1,8
 1119.45 62.8736 1119.45 62.8736 1110.62 59.0122 c 0,9,10
 850.025 -55 850.025 -55 685.5 -55 c 0,11,12
 516.057 -55 516.057 -55 419.029 42.0294 c 0,13,14
 352.541 108.52 352.541 108.52 346.033 226.744 c 0,15,16
 345.038 246.638 345.038 246.638 344.047 262.503 c 0,17,18
 343 279.251 343 279.251 343 305 c 2,19,-1
 343 776 l 1,20,-1
 220 776 l 2,21,22
 210 776 210 776 203 783 c 128,-1,23
 196 790 196 790 196 800 c 2,24,-1
 196 850 l 2,25,26
 196 860 196 860 203 867 c 128,-1,27
 210 874 210 874 220 874 c 2,28,-1
 343 874 l 1,29,-1
 343 1153 l 2,30,31
 343 1163 343 1163 350 1170 c 128,-1,32
 357 1177 357 1177 367 1177 c 2,33,-1
 425 1177 l 2,34,35
 435 1177 435 1177 442 1170 c 128,-1,36
 449 1163 449 1163 449 1153 c 2,37,-1
 449 874 l 1,38,-1
 949 874 l 2,39,40
 959 874 959 874 966 867 c 128,-1,41
 973 860 973 860 973 850 c 2,42,-1
 973 800 l 2,43,44
 973 790 973 790 966 783 c 128,-1,45
 959 776 959 776 949 776 c 2,46,-1
 449 776 l 1,47,-1
 449 329 l 2,48,49
 449 206.076 449 206.076 462.444 175.718 c 0,50,51
 477.179 142.448 477.179 142.448 487.112 127.096 c 0,52,53
 503.106 102.684 503.106 102.684 521.743 91.34 c 0,54,55
 562.633 64.9884 562.633 64.9884 591.82 60.6963 c 0,56,57
 647.091 51 647.091 51 676 51 c 0,0,1
EndSplineSet
EndChar

StartChar: u
Encoding: 117 117 88
Width: 1228
Flags: W
LayerCount: 2
Fore
SplineSet
1150 -24 m 2,0,-1
 916 -24 l 2,1,2
 906 -24 906 -24 899 -17 c 128,-1,3
 892 -10 892 -10 892 0 c 2,4,-1
 892 97.0821 l 1,5,6
 842.491 52.8415 842.491 52.8415 832.61 46.3973 c 0,7,8
 821.408 39.091 821.408 39.091 805.223 27.8104 c 0,9,10
 788.091 15.8693 788.091 15.8693 754.189 -4.67648 c 0,11,12
 666.32 -55.0388 666.32 -55.0388 577.355 -54.4996 c 0,13,14
 491.586 -53.9797 491.586 -53.9797 444.441 -40.5864 c 0,15,16
 397.071 -27.1291 397.071 -27.1291 360.973 -4.15747 c 0,17,18
 290.551 42.0565 290.551 42.0565 262.796 110.889 c 0,19,20
 218 218.191 218 218.191 218 332 c 2,21,-1
 218 805 l 1,22,-1
 66 805 l 2,23,24
 56 805 56 805 49 812 c 128,-1,25
 42 819 42 819 42 829 c 2,26,-1
 42 881 l 2,27,28
 42 891 42 891 49 898 c 128,-1,29
 56 905 56 905 66 905 c 2,30,-1
 301 905 l 2,31,32
 311 905 311 905 318 898 c 128,-1,33
 325 891 325 891 325 881 c 2,34,-1
 325 297.211 l 2,35,36
 325.931 244.173 325.931 244.173 341.775 197.573 c 0,37,38
 366.111 122.722 366.111 122.722 417.364 86.8611 c 128,-1,39
 468.617 51 468.617 51 552 51 c 0,40,41
 718.214 51 718.214 51 892 241.248 c 1,42,-1
 892 805 l 1,43,-1
 730 805 l 2,44,45
 720 805 720 805 713 812 c 128,-1,46
 706 819 706 819 706 829 c 2,47,-1
 706 881 l 2,48,49
 706 891 706 891 713 898 c 128,-1,50
 720 905 720 905 730 905 c 2,51,-1
 974 905 l 2,52,53
 984 905 984 905 991 898 c 128,-1,54
 998 891 998 891 998 881 c 2,55,-1
 998 75 l 1,56,-1
 1150 75 l 2,57,58
 1160 75 1160 75 1167 68 c 128,-1,59
 1174 61 1174 61 1174 51 c 2,60,-1
 1174 0 l 2,61,62
 1174 -10 1174 -10 1167 -17 c 128,-1,63
 1160 -24 1160 -24 1150 -24 c 2,0,-1
EndSplineSet
EndChar

StartChar: v
Encoding: 118 118 89
Width: 1228
Flags: W
LayerCount: 2
Fore
SplineSet
640 -24 m 2,0,-1
 592 -24 l 2,1,2
 576.834 -24 576.834 -24 570.324 -10.3022 c 2,3,-1
 182.834 805 l 1,4,-1
 43 805 l 2,5,6
 33 805 33 805 26 812 c 128,-1,7
 19 819 19 819 19 829 c 2,8,-1
 19 881 l 2,9,10
 19 891 19 891 26 898 c 128,-1,11
 33 905 33 905 43 905 c 2,12,-1
 454 905 l 2,13,14
 464 905 464 905 471 898 c 128,-1,15
 478 891 478 891 478 881 c 2,16,-1
 478 829 l 2,17,18
 478 819 478 819 471 812 c 128,-1,19
 464 805 464 805 454 805 c 2,20,-1
 304.589 805 l 1,21,-1
 622.084 120.543 l 1,22,-1
 942.276 805 l 1,23,-1
 797 805 l 2,24,25
 787 805 787 805 780 812 c 128,-1,26
 773 819 773 819 773 829 c 2,27,-1
 773 881 l 2,28,29
 773 891 773 891 780 898 c 128,-1,30
 787 905 787 905 797 905 c 2,31,-1
 1186 905 l 2,32,33
 1196 905 1196 905 1203 898 c 128,-1,34
 1210 891 1210 891 1210 881 c 2,35,-1
 1210 829 l 2,36,37
 1210 819 1210 819 1203 812 c 128,-1,38
 1196 805 1196 805 1186 805 c 2,39,-1
 1047.2 805 l 1,40,-1
 661.697 -10.2594 l 2,41,42
 655.199 -24 655.199 -24 640 -24 c 2,0,-1
EndSplineSet
EndChar

StartChar: w
Encoding: 119 119 90
Width: 1228
Flags: W
LayerCount: 2
Fore
SplineSet
379.146 138.174 m 1,0,1
 409.989 223.523 409.989 223.523 589.428 720.154 c 0,2,3
 595.152 736 595.152 736 612 736 c 2,4,-1
 651 736 l 2,5,6
 667.871 736 667.871 736 673.583 720.126 c 2,7,-1
 881.944 141.044 l 1,8,-1
 1077.89 805 l 1,9,-1
 907 805 l 2,10,11
 897 805 897 805 890 812 c 128,-1,12
 883 819 883 819 883 829 c 2,13,-1
 883 881 l 2,14,15
 883 891 883 891 890 898 c 128,-1,16
 897 905 897 905 907 905 c 2,17,-1
 1225 905 l 2,18,19
 1235 905 1235 905 1242 898 c 128,-1,20
 1249 891 1249 891 1249 881 c 2,21,-1
 1249 829 l 2,22,23
 1249 819 1249 819 1242 812 c 128,-1,24
 1235 805 1235 805 1225 805 c 2,25,-1
 1175.97 805 l 1,26,-1
 938.031 -6.75093 l 2,27,28
 932.974 -24 932.974 -24 915 -24 c 2,29,-1
 848 -24 l 2,30,31
 831.265 -24 831.265 -24 825.48 -8.29693 c 2,32,-1
 624.255 537.886 l 1,33,-1
 427.58 -8.13321 l 2,34,35
 421.864 -24 421.864 -24 405 -24 c 2,36,-1
 336 -24 l 2,37,38
 318.067 -24 318.067 -24 312.984 -6.80205 c 2,39,-1
 73.0667 805 l 1,40,-1
 4 805 l 2,41,42
 -6 805 -6 805 -13 812 c 128,-1,43
 -20 819 -20 819 -20 829 c 2,44,-1
 -20 881 l 2,45,46
 -20 891 -20 891 -13 898 c 128,-1,47
 -6 905 -6 905 4 905 c 2,48,-1
 341 905 l 2,49,50
 351 905 351 905 358 898 c 128,-1,51
 365 891 365 891 365 881 c 2,52,-1
 365 829 l 2,53,54
 365 819 365 819 358 812 c 128,-1,55
 351 805 351 805 341 805 c 2,56,-1
 184.985 805 l 1,57,-1
 379.146 138.174 l 1,0,1
EndSplineSet
EndChar

StartChar: x
Encoding: 120 120 91
Width: 1228
Flags: W
LayerCount: 2
Fore
SplineSet
1176 -24 m 2,0,-1
 786 -24 l 2,1,2
 776 -24 776 -24 769 -17 c 128,-1,3
 762 -10 762 -10 762 0 c 2,4,-1
 762 51 l 2,5,6
 762 61 762 61 769 68 c 128,-1,7
 776 75 776 75 786 75 c 2,8,-1
 926.385 75 l 1,9,-1
 609.977 393.945 l 1,10,-1
 292.724 75 l 1,11,-1
 429 75 l 2,12,13
 439 75 439 75 446 68 c 128,-1,14
 453 61 453 61 453 51 c 2,15,-1
 453 0 l 2,16,17
 453 -10 453 -10 446 -17 c 128,-1,18
 439 -24 439 -24 429 -24 c 2,19,-1
 53 -24 l 2,20,21
 43 -24 43 -24 36 -17 c 128,-1,22
 29 -10 29 -10 29 0 c 2,23,-1
 29 51 l 2,24,25
 29 61 29 61 36 68 c 128,-1,26
 43 75 43 75 53 75 c 2,27,-1
 155.99 75 l 1,28,-1
 539.073 461.848 l 1,29,-1
 193.116 805 l 1,30,-1
 84 805 l 2,31,32
 74 805 74 805 67 812 c 128,-1,33
 60 819 60 819 60 829 c 2,34,-1
 60 881 l 2,35,36
 60 891 60 891 67 898 c 128,-1,37
 74 905 74 905 84 905 c 2,38,-1
 451 905 l 2,39,40
 461 905 461 905 468 898 c 128,-1,41
 475 891 475 891 475 881 c 2,42,-1
 475 829 l 2,43,44
 475 819 475 819 468 812 c 128,-1,45
 461 805 461 805 451 805 c 2,46,-1
 335.941 805 l 1,47,-1
 610.026 530.916 l 1,48,-1
 884.935 805 l 1,49,-1
 777 805 l 2,50,51
 767 805 767 805 760 812 c 128,-1,52
 753 819 753 819 753 829 c 2,53,-1
 753 881 l 2,54,55
 753 891 753 891 760 898 c 128,-1,56
 767 905 767 905 777 905 c 2,57,-1
 1124 905 l 2,58,59
 1134 905 1134 905 1141 898 c 128,-1,60
 1148 891 1148 891 1148 881 c 2,61,-1
 1148 829 l 2,62,63
 1148 819 1148 819 1141 812 c 128,-1,64
 1134 805 1134 805 1124 805 c 2,65,-1
 1020.98 805 l 1,66,-1
 679.997 462.149 l 1,67,-1
 1071.86 75 l 1,68,-1
 1176 75 l 2,69,70
 1186 75 1186 75 1193 68 c 128,-1,71
 1200 61 1200 61 1200 51 c 2,72,-1
 1200 0 l 2,73,74
 1200 -10 1200 -10 1193 -17 c 128,-1,75
 1186 -24 1186 -24 1176 -24 c 2,0,-1
EndSplineSet
EndChar

StartChar: y
Encoding: 121 121 92
Width: 1228
Flags: W
LayerCount: 2
Fore
SplineSet
688 -337 m 2,0,-1
 89 -337 l 2,1,2
 79 -337 79 -337 72 -330 c 128,-1,3
 65 -323 65 -323 65 -313 c 2,4,-1
 65 -262 l 2,5,6
 65 -252 65 -252 72 -245 c 128,-1,7
 79 -238 79 -238 89 -238 c 2,8,-1
 385.925 -238 l 1,9,-1
 551.732 58.4147 l 1,10,-1
 163.43 805 l 1,11,-1
 49 805 l 2,12,13
 39 805 39 805 32 812 c 128,-1,14
 25 819 25 819 25 829 c 2,15,-1
 25 881 l 2,16,17
 25 891 25 891 32 898 c 128,-1,18
 39 905 39 905 49 905 c 2,19,-1
 403 905 l 2,20,21
 413 905 413 905 420 898 c 128,-1,22
 427 891 427 891 427 881 c 2,23,-1
 427 829 l 2,24,25
 427 819 427 819 420 812 c 128,-1,26
 413 805 413 805 403 805 c 2,27,-1
 284.422 805 l 1,28,-1
 613.266 168.817 l 1,29,-1
 984.224 805 l 1,30,-1
 860 805 l 2,31,32
 850 805 850 805 843 812 c 128,-1,33
 836 819 836 819 836 829 c 2,34,-1
 836 881 l 2,35,36
 836 891 836 891 843 898 c 128,-1,37
 850 905 850 905 860 905 c 2,38,-1
 1206 905 l 2,39,40
 1216 905 1216 905 1223 898 c 128,-1,41
 1230 891 1230 891 1230 881 c 2,42,-1
 1230 829 l 2,43,44
 1230 819 1230 819 1223 812 c 128,-1,45
 1216 805 1216 805 1206 805 c 2,46,-1
 1103.9 805 l 1,47,-1
 505.441 -238 l 1,48,-1
 688 -238 l 2,49,50
 698 -238 698 -238 705 -245 c 128,-1,51
 712 -252 712 -252 712 -262 c 2,52,-1
 712 -313 l 2,53,54
 712 -323 712 -323 705 -330 c 128,-1,55
 698 -337 698 -337 688 -337 c 2,0,-1
EndSplineSet
EndChar

StartChar: z
Encoding: 122 122 93
Width: 1228
Flags: W
LayerCount: 2
Fore
SplineSet
1016 -24 m 2,0,-1
 213 -24 l 2,1,2
 203 -24 203 -24 196 -17 c 128,-1,3
 189 -10 189 -10 189 0 c 2,4,-1
 189 51 l 2,5,6
 189 60.4777 189 60.4777 195.476 67.3981 c 2,7,-1
 885.674 805 l 1,8,-1
 309 805 l 1,9,-1
 309 637 l 2,10,11
 309 627 309 627 302 620 c 128,-1,12
 295 613 295 613 285 613 c 2,13,-1
 233 613 l 2,14,15
 223 613 223 613 216 620 c 128,-1,16
 209 627 209 627 209 637 c 2,17,-1
 209 881 l 2,18,19
 209 891 209 891 216 898 c 128,-1,20
 223 905 223 905 233 905 c 2,21,-1
 1015 905 l 2,22,23
 1025 905 1025 905 1032 898 c 128,-1,24
 1039 891 1039 891 1039 881 c 2,25,-1
 1039 829 l 2,26,27
 1039 819.542 1039 819.542 1032.55 812.626 c 2,28,-1
 344.222 75 l 1,29,-1
 942 75 l 1,30,-1
 942 251 l 2,31,32
 942 261 942 261 949 268 c 128,-1,33
 956 275 956 275 966 275 c 2,34,-1
 1016 275 l 2,35,36
 1026 275 1026 275 1033 268 c 128,-1,37
 1040 261 1040 261 1040 251 c 2,38,-1
 1040 0 l 2,39,40
 1040 -10 1040 -10 1033 -17 c 128,-1,41
 1026 -24 1026 -24 1016 -24 c 2,0,-1
EndSplineSet
EndChar

StartChar: braceleft
Encoding: 123 123 94
Width: 1228
Flags: W
LayerCount: 2
Fore
SplineSet
976 1343 m 0,0,1
 976 1313.86 976 1313.86 977.939 1286.71 c 0,2,3
 978.675 1276.4 978.675 1276.4 971.424 1268.7 c 128,-1,4
 964.173 1261 964.173 1261 954 1261 c 0,5,6
 812.597 1261 812.597 1261 754.613 1193.84 c 1,7,8
 729 1160.37 729 1160.37 729 1121 c 0,9,10
 729 1059.68 729 1059.68 745.413 987.277 c 0,11,12
 781 828.667 781 828.667 781 783 c 0,13,14
 781 736.232 781 736.232 770.345 703.143 c 0,15,16
 759.756 670.262 759.756 670.262 739.71 641.306 c 0,17,18
 711.609 600.872 711.609 600.872 672.815 577.72 c 1,19,20
 747.288 532.547 747.288 532.547 771.051 447.685 c 0,21,22
 781 414.523 781 414.523 781 370 c 0,23,24
 781 321.511 781 321.511 761.513 228.191 c 0,25,26
 729 65.6159 729 65.6159 729 36 c 0,27,28
 729 -52.7048 729 -52.7048 788.346 -84.8509 c 0,29,30
 847.769 -116.419 847.769 -116.419 955.695 -124.06 c 0,31,32
 965.3 -124.74 965.3 -124.74 971.806 -132.135 c 128,-1,33
 978.312 -139.531 978.312 -139.531 977.985 -148.842 c 2,34,-1
 975.985 -205.842 l 2,35,36
 975.626 -216.068 975.626 -216.068 967.629 -222.697 c 128,-1,37
 959.632 -229.326 959.632 -229.326 951.036 -228.981 c 0,38,39
 739.533 -220.48 739.533 -220.48 659.704 -95.8108 c 0,40,41
 628 -44.8587 628 -44.8587 628 18 c 0,42,43
 628 88.5318 628 88.5318 645.522 170.98 c 0,44,45
 680 333.507 680 333.507 680 378 c 0,46,47
 680 441.635 680 441.635 639.968 477.261 c 128,-1,48
 599.936 512.886 599.936 512.886 511.24 523.159 c 0,49,50
 502.134 524.214 502.134 524.214 496.067 531.391 c 128,-1,51
 490 538.568 490 538.568 490 547 c 2,52,-1
 490 606 l 2,53,54
 490 615.231 490 615.231 496.453 622.137 c 128,-1,55
 502.906 629.043 502.906 629.043 511.7 629.889 c 0,56,57
 555.61 634.117 555.61 634.117 588.314 646.18 c 0,58,59
 645.932 667.432 645.932 667.432 668.413 713.489 c 0,60,61
 680 737.49 680 737.49 680 771 c 0,62,63
 680 814.303 680 814.303 662.574 890.779 c 0,64,65
 628 1049.41 628 1049.41 628 1114 c 0,66,67
 628 1182.96 628 1182.96 660.224 1233.84 c 0,68,69
 691.88 1283.83 691.88 1283.83 741.783 1312.66 c 1,70,71
 822.864 1361.73 822.864 1361.73 951.017 1366.98 c 0,72,73
 961.302 1367.4 961.302 1367.4 968.651 1359.93 c 128,-1,74
 976 1352.45 976 1352.45 976 1343 c 0,0,1
EndSplineSet
EndChar

StartChar: bar
Encoding: 124 124 95
Width: 1228
Flags: W
LayerCount: 2
Fore
SplineSet
649 -404 m 2,0,-1
 584 -404 l 2,1,2
 574 -404 574 -404 567 -397 c 128,-1,3
 560 -390 560 -390 560 -380 c 2,4,-1
 560 1378 l 2,5,6
 560 1388 560 1388 567 1395 c 128,-1,7
 574 1402 574 1402 584 1402 c 2,8,-1
 649 1402 l 2,9,10
 659 1402 659 1402 666 1395 c 128,-1,11
 673 1388 673 1388 673 1378 c 2,12,-1
 673 -380 l 2,13,14
 673 -390 673 -390 666 -397 c 128,-1,15
 659 -404 659 -404 649 -404 c 2,0,-1
EndSplineSet
EndChar

StartChar: braceright
Encoding: 125 125 96
Width: 1228
Flags: W
LayerCount: 2
Fore
SplineSet
739.76 523.159 m 0,0,1
 651.064 512.886 651.064 512.886 611.032 477.261 c 128,-1,2
 571 441.635 571 441.635 571 378 c 0,3,4
 571 342.282 571 342.282 579.572 297.514 c 0,5,6
 588.515 250.805 588.515 250.805 597.497 208.888 c 0,7,8
 623 82.3931 623 82.3931 623 21 c 0,9,10
 623 -44.959 623 -44.959 590.776 -95.8412 c 0,11,12
 559.185 -145.722 559.185 -145.722 510.262 -174.631 c 0,13,14
 428.073 -223.73 428.073 -223.73 299.983 -228.98 c 0,15,16
 289.758 -229.399 289.758 -229.399 282.537 -221.928 c 128,-1,17
 275.317 -214.458 275.317 -214.458 275.015 -205.842 c 2,18,-1
 273.015 -148.842 l 2,19,20
 272.677 -139.221 272.677 -139.221 279.344 -131.974 c 128,-1,21
 286.011 -124.728 286.011 -124.728 295.28 -124.062 c 0,22,23
 451.192 -112.859 451.192 -112.859 495.969 -57.3693 c 1,24,25
 522 -21.6955 522 -21.6955 522 17 c 0,26,27
 522 73.4156 522 73.4156 505.548 148.902 c 0,28,29
 470 312.418 470 312.418 470 363 c 0,30,31
 470 414.336 470 414.336 479.409 447.542 c 0,32,33
 488.938 481.172 488.938 481.172 509.085 511.394 c 0,34,35
 536.156 551.289 536.156 551.289 578.42 577.58 c 1,36,37
 539.388 600.873 539.388 600.873 511.307 641.282 c 0,38,39
 470 700.451 470 700.451 470 763 c 0,40,41
 470 820.431 470 820.431 479.487 866.81 c 0,42,43
 488.539 911.065 488.539 911.065 498.559 955.153 c 0,44,45
 522 1065.52 522 1065.52 522 1099 c 0,46,47
 522 1160.55 522 1160.55 502.789 1184.47 c 0,48,49
 481.092 1211.48 481.092 1211.48 459.959 1223.74 c 0,50,51
 437.298 1236.88 437.298 1236.88 410.913 1245.07 c 0,52,53
 359.372 1261 359.372 1261 297 1261 c 0,54,55
 286.663 1261 286.663 1261 279.499 1268.78 c 128,-1,56
 272.336 1276.56 272.336 1276.56 273.061 1286.71 c 0,57,58
 275 1313.85 275 1313.85 275 1343 c 0,59,60
 275 1353.29 275 1353.29 282.77 1360.33 c 128,-1,61
 290.541 1367.36 290.541 1367.36 299.964 1366.98 c 0,62,63
 511.556 1358.48 511.556 1358.48 590.232 1233.91 c 0,64,65
 623 1183.06 623 1183.06 623 1120 c 0,66,67
 623 1049.37 623 1049.37 604.436 965.829 c 0,68,69
 571 813.374 571 813.374 571 774 c 0,70,71
 571 737.49 571 737.49 582.613 713.434 c 128,-1,72
 594.245 689.338 594.245 689.338 614.904 672.812 c 0,73,74
 660.253 637.245 660.253 637.245 739.223 629.897 c 0,75,76
 748.425 629.041 748.425 629.041 754.713 621.972 c 128,-1,77
 761 614.903 761 614.903 761 606 c 2,78,-1
 761 547 l 2,79,80
 761 537.833 761 537.833 754.569 530.981 c 128,-1,81
 748.137 524.129 748.137 524.129 739.76 523.159 c 0,0,1
EndSplineSet
EndChar

StartChar: asciitilde
Encoding: 126 126 97
Width: 1228
Flags: W
LayerCount: 2
Fore
SplineSet
202.808 499.346 m 2,0,-1
 165.808 542.346 l 2,1,2
 154.894 555.029 154.894 555.029 163.02 569.655 c 0,3,4
 183.563 606.631 183.563 606.631 197.281 626.682 c 0,5,6
 217.124 654.88 217.124 654.88 255.055 697.937 c 0,7,8
 322.277 773 322.277 773 418 773 c 0,9,10
 469.541 773 469.541 773 536.259 746.845 c 0,11,12
 599.039 722.233 599.039 722.233 693.096 683.709 c 0,13,14
 782.724 647 782.724 647 814 647 c 0,15,16
 907.706 647 907.706 647 992.656 782.732 c 0,17,18
 997.857 791.043 997.857 791.043 1007.64 793.294 c 128,-1,19
 1017.42 795.546 1017.42 795.546 1025.73 790.344 c 0,20,21
 1028.43 788.656 1028.43 788.656 1030.59 786.331 c 2,22,-1
 1069.59 744.331 l 2,23,24
 1081.5 731.498 1081.5 731.498 1072.92 716.234 c 0,25,26
 1044.65 665.982 1044.65 665.982 1010.42 627.54 c 0,27,28
 981.835 595.432 981.835 595.432 967.377 583.562 c 0,29,30
 965.724 581.627 965.724 581.627 963.881 580.171 c 0,31,32
 895.34 526 895.34 526 817 526 c 0,33,34
 765.206 526 765.206 526 659.838 569.818 c 0,35,36
 475.623 645.439 475.623 645.439 454.101 649.243 c 0,37,38
 433.82 652 433.82 652 408.5 652 c 0,39,40
 386.323 652 386.323 652 368.649 643.752 c 0,41,42
 349.122 634.638 349.122 634.638 337.619 624.778 c 0,43,44
 324.628 613.642 324.628 613.642 311.605 599.689 c 0,45,46
 289.933 576.133 289.933 576.133 276.969 556.687 c 0,47,48
 262.815 535.457 262.815 535.457 255.662 525.237 c 0,49,50
 249.292 516.138 249.292 516.138 241.838 503.093 c 0,51,52
 236.974 494.58 236.974 494.58 227.289 491.939 c 128,-1,53
 217.605 489.298 217.605 489.298 209.093 494.162 c 0,54,55
 205.504 496.213 205.504 496.213 202.808 499.346 c 2,0,-1
EndSplineSet
EndChar

StartChar: exclamdown
Encoding: 161 161 99
Width: 1228
Flags: W
LayerCount: 2
Fore
SplineSet
735.934 721.212 m 0,0,1
 690.376 685 690.376 685 628.5 685 c 0,2,3
 565.271 685 565.271 685 524.789 724.274 c 0,4,5
 484 763.845 484 763.845 484 817 c 128,-1,6
 484 870.263 484 870.263 524.922 909.355 c 0,7,8
 565.378 948 565.378 948 630.5 948 c 0,9,10
 695.209 948 695.209 948 737.055 910.339 c 0,11,12
 780 871.689 780 871.689 780 816.5 c 128,-1,13
 780 761.422 780 761.422 737.194 722.287 c 0,14,15
 736.583 721.728 736.583 721.728 735.934 721.212 c 0,0,1
543.031 -297.784 m 2,16,-1
 582.031 471.216 l 2,17,18
 582.517 480.794 582.517 480.794 589.769 487.397 c 128,-1,19
 597.022 494 597.022 494 606 494 c 2,20,-1
 658 494 l 2,21,22
 667.601 494 667.601 494 674.576 487.089 c 128,-1,23
 681.55 480.177 681.55 480.177 681.974 471.122 c 2,24,-1
 717.974 -297.878 l 2,25,26
 718.455 -308.169 718.455 -308.169 711.022 -315.584 c 128,-1,27
 703.588 -323 703.588 -323 694 -323 c 2,28,-1
 567 -323 l 2,29,30
 556.692 -323 556.692 -323 549.616 -315.226 c 128,-1,31
 542.54 -307.452 542.54 -307.452 543.031 -297.784 c 2,16,-1
EndSplineSet
EndChar

StartChar: cent
Encoding: 162 162 100
Width: 1228
Flags: W
LayerCount: 2
Fore
SplineSet
333 586 m 2,0,1
 333 468.805 333 468.805 406.683 375.066 c 1,2,3
 471.651 296.626 471.651 296.626 565.95 276.484 c 0,4,5
 579.224 273.719 579.224 273.719 596 270.006 c 1,6,-1
 596 899.934 l 1,7,8
 550.093 888.133 550.093 888.133 510.257 869.302 c 0,9,10
 458.883 845.017 458.883 845.017 421.257 808.319 c 0,11,12
 383.95 771.931 383.95 771.931 360.814 721.493 c 0,13,14
 337.811 671.345 337.811 671.345 333 606.133 c 1,15,-1
 333 586 l 2,0,1
1042.84 377.907 m 0,16,17
 1058.33 350.787 1058.33 350.787 1068.78 335.597 c 0,18,19
 1074.44 326.494 1074.44 326.494 1072.08 316.657 c 128,-1,20
 1069.71 306.82 1069.71 306.82 1062.05 301.856 c 0,21,22
 972.172 243.645 972.172 243.645 919.052 221.772 c 0,23,24
 844.862 191.904 844.862 191.904 699.002 164.071 c 1,25,-1
 699 -124 l 2,26,27
 699 -134 699 -134 692 -141 c 128,-1,28
 685 -148 685 -148 675 -148 c 2,29,-1
 620 -148 l 2,30,31
 610 -148 610 -148 603 -141 c 128,-1,32
 596 -134 596 -134 596 -124 c 2,33,-1
 596 163.793 l 1,34,35
 471.942 192.248 471.942 192.248 428.256 217.069 c 0,36,37
 352.131 259.246 352.131 259.246 302.604 330.455 c 0,38,39
 300.349 332.71 300.349 332.71 299.031 334.687 c 0,40,41
 223 448.738 223 448.738 223 594 c 0,42,43
 223 740.757 223 740.757 321.638 857.954 c 0,44,45
 415.025 968.912 415.025 968.912 596 1004.08 c 1,46,-1
 596 1274 l 2,47,48
 596 1284 596 1284 603 1291 c 128,-1,49
 610 1298 610 1298 620 1298 c 2,50,-1
 675 1298 l 2,51,52
 685 1298 685 1298 692 1291 c 128,-1,53
 699 1284 699 1284 699 1274 c 2,54,-1
 699 1004.84 l 1,55,56
 769.024 997.451 769.024 997.451 804.824 983.319 c 0,57,58
 843.354 968.021 843.354 968.021 865.557 957.279 c 0,59,60
 885.199 947.775 885.199 947.775 893.993 940.741 c 0,61,62
 910.04 927.903 910.04 927.903 918.473 917.362 c 0,63,64
 929.89 905 929.89 905 936 905 c 0,65,66
 952.433 905 952.433 905 960.283 955.674 c 0,67,68
 960.857 959.379 960.857 959.379 962.534 962.733 c 2,69,-1
 963.534 964.733 l 2,70,71
 971.128 979.921 971.128 979.921 987.977 977.815 c 0,72,73
 1029.88 972.577 1029.88 972.577 1035.74 972.016 c 0,74,75
 1047.36 971.102 1047.36 971.102 1053.85 962.903 c 128,-1,76
 1060.34 954.704 1060.34 954.704 1058.71 944.295 c 0,77,78
 1044 850.16 1044 850.16 1044 807.5 c 0,79,80
 1044 763.551 1044 763.551 1047.97 688.261 c 0,81,82
 1048.47 678.669 1048.47 678.669 1041.94 671.336 c 128,-1,83
 1035.4 664.003 1035.4 664.003 1026.34 663.115 c 2,84,-1
 975.342 658.115 l 2,85,86
 965.155 657.116 965.155 657.116 957.518 664.165 c 128,-1,87
 949.881 671.214 949.881 671.214 949.099 679.827 c 0,88,89
 948.053 691.331 948.053 691.331 948.002 702.135 c 0,90,91
 945.156 741.169 945.156 741.169 923.902 785.035 c 0,92,93
 905.256 823.516 905.256 823.516 875.199 847.975 c 1,94,95
 871.037 849.327 871.037 849.327 868.007 851.501 c 0,96,97
 856.466 859.784 856.466 859.784 844.188 866.844 c 0,98,99
 781.696 902.778 781.696 902.778 699 907.358 c 1,100,-1
 699 267.503 l 1,101,102
 799.327 285.379 799.327 285.379 839.541 300.46 c 0,103,104
 914.43 328.664 914.43 328.664 1009.53 386.505 c 0,105,106
 1018.93 391.653 1018.93 391.653 1028.62 388.742 c 128,-1,107
 1038.31 385.831 1038.31 385.831 1042.84 377.907 c 0,16,17
EndSplineSet
EndChar

StartChar: sterling
Encoding: 163 163 101
Width: 1228
Flags: W
LayerCount: 2
Fore
SplineSet
512.663 1119.73 m 0,0,1
 435 1044.8 435 1044.8 435 958.5 c 0,2,3
 435 870.571 435 870.571 493.801 707 c 1,4,-1
 996 707 l 2,5,6
 1006 707 1006 707 1013 700 c 128,-1,7
 1020 693 1020 693 1020 683 c 2,8,-1
 1020 632 l 2,9,10
 1020 622 1020 622 1013 615 c 128,-1,11
 1006 608 1006 608 996 608 c 2,12,-1
 524.441 608 l 1,13,14
 543 512.547 543 512.547 543 441 c 0,15,16
 543 357.73 543 357.73 527.155 300.688 c 0,17,18
 503.512 212.285 503.512 212.285 487.322 180.984 c 0,19,20
 467.681 142.968 467.681 142.968 445.299 106.929 c 0,21,22
 436.937 93.4619 436.937 93.4619 427.984 79.9567 c 1,23,-1
 435.018 72.9231 l 1,24,25
 454.107 81.6896 454.107 81.6896 470.943 88.3607 c 0,26,27
 540.699 116 540.699 116 590.5 116 c 0,28,29
 656.535 116 656.535 116 751.264 78.8425 c 0,30,31
 837.542 45 837.542 45 881.5 45 c 0,32,33
 924.335 45 924.335 45 951.181 58.4233 c 0,34,35
 997.997 82.3097 997.997 82.3097 1043.15 117.858 c 0,36,37
 1050.77 123.829 1050.77 123.829 1060.59 122.757 c 128,-1,38
 1070.4 121.685 1070.4 121.685 1076.51 114.273 c 2,39,-1
 1109.51 74.2732 l 2,40,41
 1115.37 66.9053 1115.37 66.9053 1114.8 57.5936 c 128,-1,42
 1114.22 48.282 1114.22 48.282 1107.97 42.0294 c 0,43,44
 1010.93 -55 1010.93 -55 885 -55 c 0,45,46
 818.589 -55 818.589 -55 757.964 -31.9308 c 0,47,48
 702.061 -10.6581 702.061 -10.6581 677.685 -2.85818 c 0,49,50
 652.738 5.12478 652.738 5.12478 636.625 10.1602 c 0,51,52
 616.106 17 616.106 17 577 17 c 0,53,54
 540.856 17 540.856 17 498.923 6.086 c 0,55,56
 432.258 -11.2655 432.258 -11.2655 351.642 -55.987 c 0,57,58
 343.656 -60.1881 343.656 -60.1881 334.99 -58.2992 c 128,-1,59
 326.325 -56.4103 326.325 -56.4103 321.163 -49.8715 c 2,60,-1
 276.163 7.12854 l 2,61,62
 270.728 14.3302 270.728 14.3302 271.196 23.191 c 128,-1,63
 271.665 32.0517 271.665 32.0517 277.297 38.2047 c 0,64,65
 329.318 95.0365 329.318 95.0365 365.084 155.423 c 0,66,67
 444 288.658 444 288.658 444 440 c 0,68,69
 444 523.631 444 523.631 418.46 608 c 1,70,-1
 215 608 l 2,71,72
 205 608 205 608 198 615 c 128,-1,73
 191 622 191 622 191 632 c 2,74,-1
 191 683 l 2,75,76
 191 693 191 693 198 700 c 128,-1,77
 205 707 205 707 215 707 c 2,78,-1
 388.538 707 l 1,79,80
 332 863.977 332 863.977 332 946 c 0,81,82
 332 1095.76 332 1095.76 446.029 1197.41 c 0,83,84
 558.863 1298 558.863 1298 699.5 1298 c 0,85,86
 835.605 1298 835.605 1298 964.913 1246.28 c 0,87,88
 980.624 1240 980.624 1240 992.5 1240 c 2,89,-1
 992.522 1240 l 1,90,91
 996.114 1241.37 996.114 1241.37 1001.34 1250.21 c 0,92,93
 1008.3 1262 1008.3 1262 1022 1262 c 2,94,-1
 1071 1262 l 2,95,96
 1082.46 1262 1082.46 1262 1089.73 1252.77 c 128,-1,97
 1097 1243.54 1097 1243.54 1094.34 1232.43 c 0,98,99
 1073.72 1146.05 1073.72 1146.05 1062.87 1041.52 c 0,100,101
 1062.01 1033.27 1062.01 1033.27 1055.94 1027.25 c 128,-1,102
 1049.87 1021.24 1049.87 1021.24 1042.17 1020.21 c 0,103,104
 1026.18 1018.08 1026.18 1018.08 1015.2 1017.53 c 0,105,106
 1006.76 1017.11 1006.76 1017.11 997.293 1015.39 c 128,-1,107
 987.647 1013.63 987.647 1013.63 979.394 1019.35 c 128,-1,108
 971.141 1025.06 971.141 1025.06 969.387 1034.71 c 1,109,-1
 969.041 1040.41 l 1,110,111
 970.908 1072.15 970.908 1072.15 971 1077.02 c 2,112,-1
 971 1082 l 2,113,114
 971 1120.13 971 1120.13 935.828 1146.88 c 1,115,116
 886.001 1175.07 886.001 1175.07 820.013 1184.75 c 0,117,118
 750.233 1195 750.233 1195 722 1195 c 0,119,120
 590.682 1195 590.682 1195 512.663 1119.73 c 0,0,1
EndSplineSet
EndChar

StartChar: currency
Encoding: 164 164 102
Width: 1228
Flags: W
LayerCount: 2
Fore
SplineSet
838.567 787.505 m 0,0,1
 757.669 873 757.669 873 631 873 c 0,2,3
 504.575 873 504.575 873 426.211 787.304 c 0,4,5
 347 700.681 347 700.681 347 586.5 c 128,-1,6
 347 472.278 347 472.278 425.759 385.644 c 0,7,8
 503.617 300 503.617 300 629.5 300 c 128,-1,9
 755.562 300 755.562 300 837.442 387.863 c 0,10,11
 920 476.451 920 476.451 920 590.5 c 0,12,13
 920 701.064 920 701.064 843.174 783.653 c 0,14,15
 840.095 785.89 840.095 785.89 838.567 787.505 c 0,0,1
1060.51 1048.42 m 2,16,-1
 1098.51 1012.42 l 2,17,18
 1105.95 1004.73 1105.95 1004.73 1105.69 994.594 c 128,-1,19
 1105.44 984.459 1105.44 984.459 1098.92 977.98 c 2,20,-1
 940.301 820.277 l 1,21,22
 1018 705.63 1018 705.63 1018 586.5 c 128,-1,23
 1018 467.37 1018 467.37 940.369 352.823 c 1,24,-1
 1098.82 197.118 l 2,25,26
 1106.08 189.043 1106.08 189.043 1105.6 179.108 c 128,-1,27
 1105.11 169.173 1105.11 169.173 1098.97 163.029 c 0,28,29
 1064.02 128.08 1064.02 128.08 1057.99 123.259 c 0,30,31
 1050.38 117.564 1050.38 117.564 1041.23 118.287 c 128,-1,32
 1032.08 119.01 1032.08 119.01 1026.08 124.98 c 2,33,-1
 867.913 282.231 l 1,34,35
 756.377 201 756.377 201 632.5 201 c 0,36,37
 508.174 201 508.174 201 395.769 282.564 c 1,38,39
 382.483 269.918 382.483 269.918 368.871 256.926 c 0,40,41
 324.873 211.933 324.873 211.933 291.471 178.529 c 0,42,43
 257.777 144.836 257.777 144.836 236.552 124.621 c 0,44,45
 229.51 117.962 229.51 117.962 219.655 118.111 c 128,-1,46
 209.799 118.26 209.799 118.26 203.029 125.029 c 2,47,-1
 165.029 163.029 l 2,48,49
 157.828 171.101 157.828 171.101 158.388 181.084 c 128,-1,50
 158.948 191.066 158.948 191.066 165.277 197.215 c 2,51,-1
 325.845 353.195 l 1,52,53
 248 471.65 248 471.65 248 570 c 0,54,55
 248 681.666 248 681.666 288.534 762.733 c 0,56,57
 289.202 764.07 289.202 764.07 290.031 765.313 c 0,58,59
 297.776 776.931 297.776 776.931 311.044 798.552 c 0,60,61
 318.01 809.904 318.01 809.904 324.707 820.018 c 1,62,63
 248.878 894.182 248.878 894.182 165.029 978.029 c 0,64,65
 158.097 984.962 158.097 984.962 158.097 995 c 128,-1,66
 158.097 1005.04 158.097 1005.04 165.029 1011.97 c 0,67,68
 185.544 1032.48 185.544 1032.48 204.055 1048.94 c 0,69,70
 211.736 1055.25 211.736 1055.25 221.22 1054.71 c 128,-1,71
 230.705 1054.17 230.705 1054.17 236.872 1048.07 c 2,72,-1
 396.09 890.681 l 1,73,74
 508.02 972 508.02 972 629.5 972 c 0,75,76
 750.752 972 750.752 972 868.605 891.196 c 1,77,78
 940.994 961.935 940.994 961.935 1027.03 1047.97 c 0,79,80
 1033.85 1054.79 1033.85 1054.79 1043.77 1054.88 c 128,-1,81
 1053.68 1054.97 1053.68 1054.97 1060.51 1048.42 c 2,16,-1
EndSplineSet
EndChar

StartChar: yen
Encoding: 165 165 103
Width: 1228
Flags: W
LayerCount: 2
Fore
SplineSet
923 -24 m 2,0,-1
 355 -24 l 2,1,2
 345 -24 345 -24 338 -17 c 128,-1,3
 331 -10 331 -10 331 0 c 2,4,-1
 331 51 l 2,5,6
 331 61 331 61 338 68 c 128,-1,7
 345 75 345 75 355 75 c 2,8,-1
 588 75 l 1,9,-1
 588 277 l 1,10,-1
 293 277 l 2,11,12
 283 277 283 277 276 284 c 128,-1,13
 269 291 269 291 269 301 c 2,14,-1
 269 352 l 2,15,16
 269 362 269 362 276 369 c 128,-1,17
 283 376 283 376 293 376 c 2,18,-1
 588 376 l 1,19,-1
 588 505 l 1,20,-1
 293 505 l 2,21,22
 283 505 283 505 276 512 c 128,-1,23
 269 519 269 519 269 529 c 2,24,-1
 269 580 l 2,25,26
 269 590 269 590 276 597 c 128,-1,27
 283 604 283 604 293 604 c 2,28,-1
 588 604 l 1,29,-1
 588 634.815 l 1,30,-1
 184.206 1158 l 1,31,-1
 77 1158 l 2,32,33
 67 1158 67 1158 60 1165 c 128,-1,34
 53 1172 53 1172 53 1182 c 2,35,-1
 53 1233 l 2,36,37
 53 1243 53 1243 60 1250 c 128,-1,38
 67 1257 67 1257 77 1257 c 2,39,-1
 453 1257 l 2,40,41
 463 1257 463 1257 470 1250 c 128,-1,42
 477 1243 477 1243 477 1233 c 2,43,-1
 477 1182 l 2,44,45
 477 1172 477 1172 470 1165 c 128,-1,46
 463 1158 463 1158 453 1158 c 2,47,-1
 310.808 1158 l 1,48,-1
 638.795 732.573 l 1,49,-1
 959.823 1158 l 1,50,-1
 818 1158 l 2,51,52
 808 1158 808 1158 801 1165 c 128,-1,53
 794 1172 794 1172 794 1182 c 2,54,-1
 794 1233 l 2,55,56
 794 1243 794 1243 801 1250 c 128,-1,57
 808 1257 808 1257 818 1257 c 2,58,-1
 1187 1257 l 2,59,60
 1197 1257 1197 1257 1204 1250 c 128,-1,61
 1211 1243 1211 1243 1211 1233 c 2,62,-1
 1211 1182 l 2,63,64
 1211 1172 1211 1172 1204 1165 c 128,-1,65
 1197 1158 1197 1158 1187 1158 c 2,66,-1
 1082.03 1158 l 1,67,-1
 690 633.028 l 1,68,-1
 690 604 l 1,69,-1
 978 604 l 2,70,71
 988 604 988 604 995 597 c 128,-1,72
 1002 590 1002 590 1002 580 c 2,73,-1
 1002 529 l 2,74,75
 1002 519 1002 519 995 512 c 128,-1,76
 988 505 988 505 978 505 c 2,77,-1
 690 505 l 1,78,-1
 690 376 l 1,79,-1
 978 376 l 2,80,81
 988 376 988 376 995 369 c 128,-1,82
 1002 362 1002 362 1002 352 c 2,83,-1
 1002 301 l 2,84,85
 1002 291 1002 291 995 284 c 128,-1,86
 988 277 988 277 978 277 c 2,87,-1
 690 277 l 1,88,-1
 690 75 l 1,89,-1
 923 75 l 2,90,91
 933 75 933 75 940 68 c 128,-1,92
 947 61 947 61 947 51 c 2,93,-1
 947 0 l 2,94,95
 947 -10 947 -10 940 -17 c 128,-1,96
 933 -24 933 -24 923 -24 c 2,0,-1
EndSplineSet
EndChar

StartChar: brokenbar
Encoding: 166 166 104
Width: 1228
Flags: W
LayerCount: 2
Fore
SplineSet
666 -425 m 2,0,-1
 601 -425 l 2,1,2
 591 -425 591 -425 584 -418 c 128,-1,3
 577 -411 577 -411 577 -401 c 2,4,-1
 577 356 l 2,5,6
 577 366 577 366 584 373 c 128,-1,7
 591 380 591 380 601 380 c 2,8,-1
 666 380 l 2,9,10
 676 380 676 380 683 373 c 128,-1,11
 690 366 690 366 690 356 c 2,12,-1
 690 -401 l 2,13,14
 690 -411 690 -411 683 -418 c 128,-1,15
 676 -425 676 -425 666 -425 c 2,0,-1
666 625 m 2,16,-1
 601 625 l 2,17,18
 591 625 591 625 584 632 c 128,-1,19
 577 639 577 639 577 649 c 2,20,-1
 577 1407 l 2,21,22
 577 1417 577 1417 584 1424 c 128,-1,23
 591 1431 591 1431 601 1431 c 2,24,-1
 666 1431 l 2,25,26
 676 1431 676 1431 683 1424 c 128,-1,27
 690 1417 690 1417 690 1407 c 2,28,-1
 690 649 l 2,29,30
 690 639 690 639 683 632 c 128,-1,31
 676 625 676 625 666 625 c 2,16,-1
EndSplineSet
EndChar

StartChar: section
Encoding: 167 167 105
Width: 1228
Flags: W
LayerCount: 2
Fore
SplineSet
764.606 231.463 m 1,0,1
 857.437 237.71 857.437 237.71 900.87 282.811 c 0,2,3
 932 313.941 932 313.941 932 352.5 c 0,4,5
 932 392.19 932 392.19 914.338 414.909 c 0,6,7
 874.635 463.125 874.635 463.125 797.222 524.089 c 2,8,-1
 520.181 738.918 l 1,9,10
 406.221 722.674 406.221 722.674 371.901 649.184 c 0,11,12
 361 623.661 361 623.661 361 605 c 0,13,14
 361 555.421 361 555.421 414.284 505.631 c 0,15,16
 436.449 485.394 436.449 485.394 470.682 458.985 c 2,17,-1
 764.606 231.463 l 1,0,1
621 -122 m 2,18,19
 685.932 -122 685.932 -122 741.989 -85.8329 c 0,20,21
 793 -52.9214 793 -52.9214 793 12 c 0,22,23
 793 63.7698 793 63.7698 750.203 104.856 c 0,24,25
 732.15 122.91 732.15 122.91 703.398 144.953 c 0,26,27
 701.899 146.103 701.899 146.103 699.267 148.874 c 0,28,29
 629.572 202.142 629.572 202.142 559.31 256.521 c 0,30,31
 486.4 312.949 486.4 312.949 448.6 341.3 c 0,32,33
 411.14 369.396 411.14 369.396 407.187 372.031 c 0,34,35
 401.524 375.806 401.524 375.806 390.456 385.213 c 0,36,37
 380.772 393.446 380.772 393.446 369.103 402.683 c 0,38,39
 356.96 412.296 356.96 412.296 345.472 421.695 c 0,40,41
 282.555 477.019 282.555 477.019 266.954 519.774 c 0,42,43
 252 560.756 252 560.756 252 615 c 0,44,45
 252 673.235 252 673.235 302.556 738.235 c 0,46,47
 344.401 792.036 344.401 792.036 431.783 817.177 c 1,48,49
 376 887.5 376 887.5 376 952 c 0,50,51
 376 1079.33 376 1079.33 474.236 1149.66 c 1,52,53
 537.575 1193 537.575 1193 677 1193 c 2,54,-1
 973 1193 l 2,55,56
 983 1193 983 1193 990 1186 c 128,-1,57
 997 1179 997 1179 997 1169 c 2,58,-1
 997 932 l 2,59,60
 997 922 997 922 990 915 c 128,-1,61
 983 908 983 908 973 908 c 2,62,-1
 921 908 l 2,63,64
 911 908 911 908 904 915 c 128,-1,65
 897 922 897 922 897 932 c 2,66,-1
 897 1094 l 1,67,-1
 647 1094 l 2,68,69
 561 1094 561 1094 523 1063 c 128,-1,70
 485 1032 485 1032 485 967 c 0,71,72
 485 895.866 485 895.866 564.571 835.071 c 0,73,74
 566.071 833.924 566.071 833.924 568.68 831.187 c 0,75,76
 641.369 775.914 641.369 775.914 713.164 720.499 c 0,77,78
 787.673 662.989 787.673 662.989 827.702 631.97 c 0,79,80
 868.023 600.722 868.023 600.722 874.364 595.437 c 0,81,82
 880.023 590.722 880.023 590.722 890.675 582.491 c 128,-1,83
 901.348 574.243 901.348 574.243 914.919 563.803 c 2,84,-1
 937.261 545.523 l 2,85,86
 1012.67 483.041 1012.67 483.041 1027.82 436.418 c 0,87,88
 1042 392.802 1042 392.802 1042 359 c 128,-1,89
 1042 325.299 1042 325.299 1031.89 293.273 c 0,90,91
 1021.5 260.398 1021.5 260.398 996.57 229.796 c 0,92,93
 948.735 171.642 948.735 171.642 861.801 145.647 c 1,94,95
 903 70.4574 903 70.4574 903 14 c 0,96,97
 903 -96.7395 903 -96.7395 821.735 -159.944 c 0,98,99
 743.233 -221 743.233 -221 608 -221 c 2,100,-1
 291 -221 l 2,101,102
 281 -221 281 -221 274 -214 c 128,-1,103
 267 -207 267 -207 267 -197 c 2,104,-1
 267 65 l 2,105,106
 267 75 267 75 274 82 c 128,-1,107
 281 89 281 89 291 89 c 2,108,-1
 343 89 l 2,109,110
 353 89 353 89 360 82 c 128,-1,111
 367 75 367 75 367 65 c 2,112,-1
 367 -122 l 1,113,-1
 621 -122 l 2,18,19
EndSplineSet
EndChar

StartChar: dieresis
Encoding: 168 168 106
Width: 1228
Flags: W
LayerCount: 2
Fore
SplineSet
825 1088 m 2,0,-1
 721 1088 l 2,1,2
 711 1088 711 1088 704 1095 c 128,-1,3
 697 1102 697 1102 697 1112 c 2,4,-1
 697 1295 l 2,5,6
 697 1305 697 1305 704 1312 c 128,-1,7
 711 1319 711 1319 721 1319 c 2,8,-1
 825 1319 l 2,9,10
 835 1319 835 1319 842 1312 c 128,-1,11
 849 1305 849 1305 849 1295 c 2,12,-1
 849 1112 l 2,13,14
 849 1102 849 1102 842 1095 c 128,-1,15
 835 1088 835 1088 825 1088 c 2,0,-1
544 1088 m 2,16,-1
 439 1088 l 2,17,18
 429 1088 429 1088 422 1095 c 128,-1,19
 415 1102 415 1102 415 1112 c 2,20,-1
 415 1295 l 2,21,22
 415 1305 415 1305 422 1312 c 128,-1,23
 429 1319 429 1319 439 1319 c 2,24,-1
 544 1319 l 2,25,26
 554 1319 554 1319 561 1312 c 128,-1,27
 568 1305 568 1305 568 1295 c 2,28,-1
 568 1112 l 2,29,30
 568 1102 568 1102 561 1095 c 128,-1,31
 554 1088 554 1088 544 1088 c 2,16,-1
EndSplineSet
EndChar

StartChar: copyright
Encoding: 169 169 107
Width: 1228
Flags: W
LayerCount: 2
Fore
SplineSet
868 932 m 0,0,1
 868 924.76 868 924.76 866.373 909.03 c 0,2,3
 865 895.763 865 895.763 865 841.5 c 0,4,5
 865 787.546 865 787.546 873.804 719.061 c 0,6,7
 875.035 709.485 875.035 709.485 869.069 701.609 c 128,-1,8
 863.103 693.733 863.103 693.733 853.649 692.279 c 2,9,-1
 827.649 688.279 l 2,10,11
 818.224 686.829 818.224 686.829 810.354 692.594 c 128,-1,12
 802.485 698.358 802.485 698.358 800.594 706.692 c 0,13,14
 780.049 797.275 780.049 797.275 732.872 839.637 c 128,-1,15
 685.694 882 685.694 882 608 882 c 0,16,17
 489.513 882 489.513 882 419.673 794.922 c 0,18,19
 351 710.472 351 710.472 351 586 c 0,20,21
 351 499.866 351 499.866 376.603 439.351 c 0,22,23
 402.565 377.989 402.565 377.989 432.034 344.836 c 0,24,25
 496.951 270 496.951 270 620 270 c 0,26,27
 745.051 270 745.051 270 880.287 387.141 c 0,28,29
 888.114 393.338 888.114 393.338 897.53 392.666 c 128,-1,30
 906.947 391.994 906.947 391.994 912.971 385.971 c 2,31,-1
 935.971 362.971 l 2,32,33
 943.216 355.15 943.216 355.15 942.698 344.969 c 128,-1,34
 942.18 334.787 942.18 334.787 935.35 328.43 c 0,35,36
 860.265 258.557 860.265 258.557 783.381 225.909 c 0,37,38
 781.65 225.174 781.65 225.174 779.682 224.682 c 0,39,40
 697.905 188 697.905 188 634.5 188 c 0,41,42
 572.086 188 572.086 188 534.759 197.197 c 0,43,44
 498.349 206.168 498.349 206.168 464.837 222.255 c 0,45,46
 397.668 252.849 397.668 252.849 353.145 307.144 c 1,47,48
 264 424.938 264 424.938 264 585 c 0,49,50
 264 746.725 264 746.725 366.683 852.617 c 1,51,52
 466.258 957.543 466.258 957.543 608.918 963.976 c 0,53,54
 609.712 964.011 609.712 964.011 610.505 963.995 c 0,55,56
 713.801 961.819 713.801 961.819 772.708 909.153 c 0,57,58
 780.102 902.967 780.102 902.967 787 896.306 c 1,59,60
 787 898.197 787 898.197 787.119 899.388 c 0,61,62
 788 908.199 788 908.199 788 915 c 0,63,64
 788 924.327 788 924.327 789.147 934.65 c 0,65,66
 790.161 943.777 790.161 943.777 797.316 949.888 c 128,-1,67
 804.472 956 804.472 956 813 956 c 2,68,-1
 844 956 l 2,69,70
 854 956 854 956 861 949 c 128,-1,71
 868 942 868 942 868 932 c 0,0,1
887.953 118.759 m 1,72,73
 1009.69 187.775 1009.69 187.775 1088.36 318.241 c 1,74,75
 1162 444.478 1162 444.478 1162 593 c 0,76,77
 1162 818.187 1162 818.187 1001.88 981.183 c 0,78,79
 843.936 1142 843.936 1142 615 1142 c 0,80,81
 502.927 1142 502.927 1142 402.454 1098.94 c 0,82,83
 301.672 1055.75 301.672 1055.75 227.915 982.474 c 128,-1,84
 154.27 909.311 154.27 909.311 111.108 807.159 c 128,-1,85
 68 705.137 68 705.137 68 573.5 c 0,86,87
 68 443.511 68 443.511 141.711 317.627 c 128,-1,88
 215.525 191.567 215.525 191.567 340.578 118.739 c 128,-1,89
 465.48 46 465.48 46 615.5 46 c 128,-1,90
 765.41 46 765.41 46 887.953 118.759 c 1,72,73
615 -34 m 0,91,92
 351.937 -34 351.937 -34 171.807 149.255 c 0,93,94
 114.701 208.437 114.701 208.437 73.3203 279.819 c 1,95,96
 -12 422.365 -12 422.365 -12 595 c 0,97,98
 -12 765.448 -12 765.448 72.3897 911.301 c 1,99,100
 163.741 1059.75 163.741 1059.75 303.993 1140.78 c 0,101,102
 444.576 1222 444.576 1222 615 1222 c 128,-1,103
 785.5 1222 785.5 1222 929.093 1138.23 c 128,-1,104
 1072.57 1054.53 1072.57 1054.53 1157.24 909.074 c 128,-1,105
 1242 763.467 1242 763.467 1242 595 c 128,-1,106
 1242 426.562 1242 426.562 1156.77 279.466 c 128,-1,107
 1071.61 132.502 1071.61 132.502 929.635 49.2941 c 128,-1,108
 787.517 -34 787.517 -34 615 -34 c 0,91,92
EndSplineSet
EndChar

StartChar: ordfeminine
Encoding: 170 170 108
Width: 1228
Flags: W
LayerCount: 2
Fore
SplineSet
871 552 m 2,0,-1
 394 552 l 2,1,2
 384 552 384 552 377 559 c 128,-1,3
 370 566 370 566 370 576 c 2,4,-1
 370 603 l 2,5,6
 370 613 370 613 377 620 c 128,-1,7
 384 627 384 627 394 627 c 2,8,-1
 871 627 l 2,9,10
 881 627 881 627 888 620 c 128,-1,11
 895 613 895 613 895 603 c 2,12,-1
 895 576 l 2,13,14
 895 566 895 566 888 559 c 128,-1,15
 881 552 881 552 871 552 c 2,0,-1
734 959.414 m 1,16,17
 660.898 970 660.898 970 595.5 970 c 0,18,19
 525.918 970 525.918 970 479.272 940.681 c 0,20,21
 438 914.739 438 914.739 438 871 c 0,22,23
 438 838.746 438 838.746 457.992 820.896 c 0,24,25
 498.162 785 498.162 785 541 785 c 0,26,27
 635.34 785 635.34 785 734 890.374 c 1,28,-1
 734 959.414 l 1,16,17
420.594 1185.48 m 0,29,30
 539.665 1230 539.665 1230 617 1230 c 0,31,32
 710 1230 710 1230 761 1186 c 128,-1,33
 812 1142 812 1142 812 1058 c 2,34,-1
 812 800 l 1,35,-1
 881 800 l 2,36,37
 891 800 891 800 898 793 c 128,-1,38
 905 786 905 786 905 776 c 2,39,-1
 905 750 l 2,40,41
 905 740 905 740 898 733 c 128,-1,42
 891 726 891 726 881 726 c 2,43,-1
 758 726 l 2,44,45
 748 726 748 726 741 733 c 128,-1,46
 734 740 734 740 734 750 c 2,47,-1
 734 788.976 l 1,48,49
 623.201 710 623.201 710 550.5 710 c 0,50,51
 464.939 710 464.939 710 412.141 756.487 c 0,52,53
 358 804.155 358 804.155 358 876 c 0,54,55
 358 949.102 358 949.102 425.235 998.8 c 0,56,57
 489.089 1046 489.089 1046 598 1046 c 0,58,59
 642.973 1046 642.973 1046 734 1034.38 c 1,60,-1
 734 1051 l 2,61,62
 734 1108.15 734 1108.15 708.639 1130.49 c 0,63,64
 681.939 1154 681.939 1154 621.5 1154 c 0,65,66
 556.368 1154 556.368 1154 448.427 1113.53 c 0,67,68
 439.394 1110.14 439.394 1110.14 430.374 1114.15 c 128,-1,69
 421.353 1118.16 421.353 1118.16 417.774 1126.94 c 2,70,-1
 406.774 1153.94 l 2,71,72
 402.898 1163.46 402.898 1163.46 407.453 1172.86 c 128,-1,73
 412.008 1182.27 412.008 1182.27 420.594 1185.48 c 0,29,30
EndSplineSet
EndChar

StartChar: guillemotleft
Encoding: 171 171 109
Width: 1228
Flags: W
LayerCount: 2
Fore
SplineSet
686.731 465.945 m 1,0,-1
 1082.71 123.145 l 2,1,2
 1090 116.833 1090 116.833 1090.79 106.942 c 128,-1,3
 1091.59 97.05 1091.59 97.05 1085.6 89.829 c 2,4,-1
 1054.6 51.829 l 2,5,6
 1048.11 43.8773 1048.11 43.8773 1037.33 43.3727 c 128,-1,7
 1026.54 42.868 1026.54 42.868 1020.43 48.7356 c 0,8,9
 957.156 102.675 957.156 102.675 901.416 150.245 c 0,10,11
 844.358 198.945 844.358 198.945 785.931 248.733 c 0,12,13
 728.472 297.701 728.472 297.701 670.843 347.311 c 128,-1,14
 613.049 397.062 613.049 397.062 553.456 447.713 c 0,15,16
 545.155 454.769 545.155 454.769 545.143 465.952 c 128,-1,17
 545.131 477.135 545.131 477.135 553.295 484.148 c 2,18,-1
 1021.29 889.148 l 2,19,20
 1029.29 895.608 1029.29 895.608 1039.15 894.651 c 128,-1,21
 1049.01 893.695 1049.01 893.695 1055.03 886.835 c 2,22,-1
 1091.03 845.835 l 2,23,24
 1097.68 837.262 1097.68 837.262 1096.47 827.378 c 128,-1,25
 1095.26 817.495 1095.26 817.495 1088.65 811.808 c 2,26,-1
 686.731 465.945 l 1,0,-1
308.735 465.905 m 1,27,-1
 702.727 124.129 l 2,28,29
 709.98 117.837 709.98 117.837 710.733 107.885 c 128,-1,30
 711.486 97.9322 711.486 97.9322 705.837 91.1285 c 2,31,-1
 675.837 53.1285 l 2,32,33
 669.458 45.0477 669.458 45.0477 658.762 44.3197 c 128,-1,34
 648.067 43.5917 648.067 43.5917 641.343 49.8104 c 0,35,36
 562.398 117.766 562.398 117.766 456.924 207.741 c 128,-1,37
 351.27 297.873 351.27 297.873 294.264 347.379 c 128,-1,38
 237.364 396.793 237.364 396.793 177.456 447.713 c 0,39,40
 169.157 454.768 169.157 454.768 169.155 465.959 c 128,-1,41
 169.153 477.149 169.153 477.149 177.24 484.1 c 2,42,-1
 641.24 888.1 l 2,43,44
 649.866 894.708 649.866 894.708 659.725 893.453 c 128,-1,45
 669.583 892.198 669.583 892.198 675.222 885.619 c 0,46,47
 680.623 879.319 680.623 879.319 712.971 846.971 c 0,48,49
 720.283 839.624 720.283 839.624 719.86 829.057 c 128,-1,50
 719.437 818.49 719.437 818.49 711.633 811.79 c 2,51,-1
 308.735 465.905 l 1,27,-1
EndSplineSet
EndChar

StartChar: logicalnot
Encoding: 172 172 110
Width: 1228
Flags: W
LayerCount: 2
Fore
SplineSet
1081 342 m 2,0,-1
 1024 342 l 2,1,2
 1014 342 1014 342 1007 349 c 128,-1,3
 1000 356 1000 356 1000 366 c 2,4,-1
 1000 817 l 1,5,-1
 202 817 l 2,6,7
 192 817 192 817 185 824 c 128,-1,8
 178 831 178 831 178 841 c 2,9,-1
 178 898 l 2,10,11
 178 908 178 908 185 915 c 128,-1,12
 192 922 192 922 202 922 c 2,13,-1
 1081 922 l 2,14,15
 1091 922 1091 922 1098 915 c 128,-1,16
 1105 908 1105 908 1105 898 c 2,17,-1
 1105 366 l 2,18,19
 1105 356 1105 356 1098 349 c 128,-1,20
 1091 342 1091 342 1081 342 c 2,0,-1
EndSplineSet
EndChar

StartChar: registered
Encoding: 174 174 111
Width: 1228
Flags: W
LayerCount: 2
Fore
SplineSet
598 644 m 2,0,1
 696 644 696 644 739.5 675.5 c 128,-1,2
 783 707 783 707 783 772 c 0,3,4
 783 822.352 783 822.352 762.1 848.904 c 128,-1,5
 741.2 875.457 741.2 875.457 695.173 884.489 c 0,6,7
 669.458 890 669.458 890 610 890 c 2,8,-1
 466 890 l 1,9,-1
 466 644 l 1,10,-1
 598 644 l 2,0,1
943 243 m 2,11,-1
 810 243 l 2,12,13
 794.779 243 794.779 243 788.291 256.768 c 0,14,15
 715.683 410.823 715.683 410.823 607.834 536.316 c 0,16,17
 582.054 566 582.054 566 546 566 c 2,18,-1
 466 566 l 1,19,-1
 466 320 l 1,20,-1
 553 320 l 2,21,22
 563 320 563 320 570 313 c 128,-1,23
 577 306 577 306 577 296 c 2,24,-1
 577 267 l 2,25,26
 577 257 577 257 570 250 c 128,-1,27
 563 243 563 243 553 243 c 2,28,-1
 306 243 l 2,29,30
 296 243 296 243 289 250 c 128,-1,31
 282 257 282 257 282 267 c 2,32,-1
 282 296 l 2,33,34
 282 306 282 306 289 313 c 128,-1,35
 296 320 296 320 306 320 c 2,36,-1
 385 320 l 1,37,-1
 385 890 l 1,38,-1
 306 890 l 2,39,40
 296 890 296 890 289 897 c 128,-1,41
 282 904 282 904 282 914 c 2,42,-1
 282 943 l 2,43,44
 282 953 282 953 289 960 c 128,-1,45
 296 967 296 967 306 967 c 2,46,-1
 613 967 l 2,47,48
 711.703 967 711.703 967 742.807 954.327 c 0,49,50
 803.746 931.06 803.746 931.06 835.873 884.318 c 128,-1,51
 868 837.576 868 837.576 868 772 c 0,52,53
 868 690.198 868 690.198 820.22 638.862 c 128,-1,54
 772.44 587.527 772.44 587.527 683.543 570.484 c 1,55,56
 746.767 494.185 746.767 494.185 851.59 320 c 1,57,-1
 943 320 l 2,58,59
 953 320 953 320 960 313 c 128,-1,60
 967 306 967 306 967 296 c 2,61,-1
 967 267 l 2,62,63
 967 257 967 257 960 250 c 128,-1,64
 953 243 953 243 943 243 c 2,11,-1
887.953 118.759 m 1,65,66
 1009.69 187.775 1009.69 187.775 1088.36 318.241 c 1,67,68
 1162 444.478 1162 444.478 1162 593 c 0,69,70
 1162 818.187 1162 818.187 1001.88 981.183 c 0,71,72
 843.936 1142 843.936 1142 615 1142 c 0,73,74
 502.927 1142 502.927 1142 402.454 1098.94 c 0,75,76
 301.672 1055.75 301.672 1055.75 227.915 982.474 c 128,-1,77
 154.27 909.311 154.27 909.311 111.108 807.159 c 128,-1,78
 68 705.137 68 705.137 68 573.5 c 0,79,80
 68 443.511 68 443.511 141.711 317.627 c 128,-1,81
 215.525 191.567 215.525 191.567 340.578 118.739 c 128,-1,82
 465.48 46 465.48 46 615.5 46 c 128,-1,83
 765.41 46 765.41 46 887.953 118.759 c 1,65,66
615 -34 m 0,84,85
 351.937 -34 351.937 -34 171.807 149.255 c 0,86,87
 114.701 208.437 114.701 208.437 73.3203 279.819 c 1,88,89
 -12 422.365 -12 422.365 -12 595 c 0,90,91
 -12 765.448 -12 765.448 72.3897 911.301 c 1,92,93
 163.741 1059.75 163.741 1059.75 303.993 1140.78 c 0,94,95
 444.576 1222 444.576 1222 615 1222 c 128,-1,96
 785.5 1222 785.5 1222 929.093 1138.23 c 128,-1,97
 1072.57 1054.53 1072.57 1054.53 1157.24 909.074 c 128,-1,98
 1242 763.467 1242 763.467 1242 595 c 128,-1,99
 1242 426.562 1242 426.562 1156.77 279.466 c 128,-1,100
 1071.61 132.502 1071.61 132.502 929.635 49.2941 c 128,-1,101
 787.517 -34 787.517 -34 615 -34 c 0,84,85
EndSplineSet
EndChar

StartChar: overscore.001
Encoding: 175 175 112
Width: 1228
Flags: W
LayerCount: 2
Fore
SplineSet
975 1150 m 2,0,-1
 289 1150 l 2,1,2
 279 1150 279 1150 272 1157 c 128,-1,3
 265 1164 265 1164 265 1174 c 2,4,-1
 265 1231 l 2,5,6
 265 1241 265 1241 272 1248 c 128,-1,7
 279 1255 279 1255 289 1255 c 2,8,-1
 975 1255 l 2,9,10
 985 1255 985 1255 992 1248 c 128,-1,11
 999 1241 999 1241 999 1231 c 2,12,-1
 999 1174 l 2,13,14
 999 1164 999 1164 992 1157 c 128,-1,15
 985 1150 985 1150 975 1150 c 2,0,-1
EndSplineSet
EndChar

StartChar: degree
Encoding: 176 176 113
Width: 1228
Flags: W
LayerCount: 2
Fore
SplineSet
784.029 1140.03 m 128,-1,1
 722.064 1202 722.064 1202 632.5 1202 c 128,-1,2
 542.998 1202 542.998 1202 481.032 1139.59 c 128,-1,3
 419 1077.12 419 1077.12 419 987.5 c 128,-1,4
 419 897.941 419 897.941 480.471 836.471 c 128,-1,5
 541.941 775 541.941 775 631.5 775 c 128,-1,6
 721.059 775 721.059 775 783.529 837.471 c 128,-1,7
 846 899.941 846 899.941 846 989 c 128,-1,0
 846 1078.05 846 1078.05 784.029 1140.03 c 128,-1,1
962 986 m 0,8,9
 962 849.976 962 849.976 864.875 753.935 c 128,-1,10
 767.858 658 767.858 658 631.5 658 c 128,-1,11
 495.218 658 495.218 658 398.124 752.935 c 1,12,13
 302 849.059 302 849.059 302 986 c 128,-1,14
 302 1122.78 302 1122.78 397.934 1220.88 c 1,15,16
 496.05 1319 496.05 1319 633 1319 c 128,-1,17
 770.129 1319 770.129 1319 866.204 1220.23 c 0,18,19
 962 1121.75 962 1121.75 962 986 c 0,8,9
EndSplineSet
EndChar

StartChar: plusminus
Encoding: 177 177 114
Width: 1228
Flags: W
LayerCount: 2
Fore
SplineSet
1114 43 m 2,0,-1
 150 43 l 2,1,2
 140 43 140 43 133 50 c 128,-1,3
 126 57 126 57 126 67 c 2,4,-1
 126 125 l 2,5,6
 126 135 126 135 133 142 c 128,-1,7
 140 149 140 149 150 149 c 2,8,-1
 1114 149 l 2,9,10
 1124 149 1124 149 1131 142 c 128,-1,11
 1138 135 1138 135 1138 125 c 2,12,-1
 1138 67 l 2,13,14
 1138 57 1138 57 1131 50 c 128,-1,15
 1124 43 1124 43 1114 43 c 2,0,-1
1114 691 m 2,16,-1
 685 691 l 1,17,-1
 685 290 l 2,18,19
 685 280 685 280 678 273 c 128,-1,20
 671 266 671 266 661 266 c 2,21,-1
 603 266 l 2,22,23
 593 266 593 266 586 273 c 128,-1,24
 579 280 579 280 579 290 c 2,25,-1
 579 691 l 1,26,-1
 150 691 l 2,27,28
 140 691 140 691 133 698 c 128,-1,29
 126 705 126 705 126 715 c 2,30,-1
 126 772 l 2,31,32
 126 782 126 782 133 789 c 128,-1,33
 140 796 140 796 150 796 c 2,34,-1
 579 796 l 1,35,-1
 579 1197 l 2,36,37
 579 1207 579 1207 586 1214 c 128,-1,38
 593 1221 593 1221 603 1221 c 2,39,-1
 661 1221 l 2,40,41
 671 1221 671 1221 678 1214 c 128,-1,42
 685 1207 685 1207 685 1197 c 2,43,-1
 685 796 l 1,44,-1
 1114 796 l 2,45,46
 1124 796 1124 796 1131 789 c 128,-1,47
 1138 782 1138 782 1138 772 c 2,48,-1
 1138 715 l 2,49,50
 1138 705 1138 705 1131 698 c 128,-1,51
 1124 691 1124 691 1114 691 c 2,16,-1
EndSplineSet
EndChar

StartChar: twosuperior
Encoding: 178 178 115
Width: 1228
Flags: W
LayerCount: 2
Fore
SplineSet
837 513 m 2,0,-1
 370 513 l 2,1,2
 360 513 360 513 353 520 c 128,-1,3
 346 527 346 527 346 537 c 2,4,-1
 346 586 l 2,5,6
 346 596.959 346 596.959 354.282 604.137 c 0,7,8
 428.943 668.842 428.943 668.842 545.844 774.748 c 0,9,10
 718.478 932.577 718.478 932.577 746.297 975.956 c 0,11,12
 772 1016.03 772 1016.03 772 1080.5 c 0,13,14
 772 1141.8 772 1141.8 724.495 1187.58 c 1,15,16
 673.557 1235 673.557 1235 610.5 1235 c 0,17,18
 550.28 1235 550.28 1235 509.683 1204.92 c 1,19,-1
 505.052 1200.54 l 1,20,21
 460.573 1168.42 460.573 1168.42 458.985 1123.16 c 0,22,23
 458.648 1113.53 458.648 1113.53 451.488 1106.77 c 128,-1,24
 444.329 1100 444.329 1100 435 1100 c 2,25,-1
 397 1100 l 2,26,27
 387 1100 387 1100 380 1107 c 128,-1,28
 373 1114 373 1114 373 1124 c 2,29,-1
 373 1191 l 2,30,31
 373 1199.72 373 1199.72 378.592 1206.4 c 0,32,33
 472.792 1319 472.792 1319 611 1319 c 0,34,35
 714.565 1319 714.565 1319 789.013 1248.42 c 0,36,37
 864 1177.32 864 1177.32 864 1084.5 c 0,38,39
 864 993.961 864 993.961 819.268 934.689 c 1,40,41
 780.018 880.981 780.018 880.981 625.289 736.374 c 1,42,-1
 472.825 597 l 1,43,-1
 780 597 l 1,44,-1
 780 697 l 2,45,46
 780 707 780 707 787 714 c 128,-1,47
 794 721 794 721 804 721 c 2,48,-1
 837 721 l 2,49,50
 847 721 847 721 854 714 c 128,-1,51
 861 707 861 707 861 697 c 2,52,-1
 861 537 l 2,53,54
 861 527 861 527 854 520 c 128,-1,55
 847 513 847 513 837 513 c 2,0,-1
EndSplineSet
EndChar

StartChar: threesuperior
Encoding: 179 179 116
Width: 1228
Flags: W
LayerCount: 2
Fore
SplineSet
378.296 1242.36 m 0,0,1
 501.14 1319 501.14 1319 592 1319 c 0,2,3
 685.245 1319 685.245 1319 749.598 1260.8 c 0,4,5
 815 1201.65 815 1201.65 815 1105 c 0,6,7
 815 1019.58 815 1019.58 731.023 941.742 c 1,8,9
 854 856.644 854 856.644 854 748.5 c 0,10,11
 854 631.565 854 631.565 779.371 561.95 c 0,12,13
 705.454 493 705.454 493 589 493 c 0,14,15
 540.896 493 540.896 493 499.788 503.818 c 0,16,17
 489.064 506.743 489.064 506.743 397.803 540.648 c 0,18,19
 384.131 545.727 384.131 545.727 368.615 551.512 c 0,20,21
 359.022 555.089 359.022 555.089 355.253 564.778 c 128,-1,22
 351.484 574.466 351.484 574.466 354.583 582.571 c 2,23,-1
 367.583 616.571 l 2,24,25
 371.263 626.198 371.263 626.198 381.224 630.094 c 128,-1,26
 391.185 633.99 391.185 633.99 399.666 629.968 c 0,27,28
 520.055 577 520.055 577 576 577 c 0,29,30
 669.38 577 669.38 577 717.925 623.357 c 0,31,32
 766 669.266 766 669.266 766 740.5 c 0,33,34
 766 811.031 766 811.031 722.295 848.852 c 0,35,36
 677.056 888 677.056 888 589 888 c 2,37,-1
 563 888 l 2,38,39
 553 888 553 888 546 895 c 128,-1,40
 539 902 539 902 539 912 c 2,41,-1
 539 948 l 2,42,43
 539 957.608 539 957.608 545.913 964.591 c 128,-1,44
 552.826 971.575 552.826 971.575 561.942 971.977 c 0,45,46
 624.247 974.725 624.247 974.725 642.071 983.369 c 0,47,48
 727 1028.84 727 1028.84 727 1109 c 0,49,50
 727 1164.57 727 1164.57 689.724 1199.36 c 0,51,52
 650.695 1235 650.695 1235 585.5 1235 c 0,53,54
 519.137 1235 519.137 1235 436.429 1179.46 c 0,55,56
 431.737 1175.77 431.737 1175.77 427.072 1173.16 c 0,57,58
 417.763 1165.7 417.763 1165.7 407.135 1167.45 c 128,-1,59
 396.507 1169.19 396.507 1169.19 390.833 1177.99 c 2,60,-1
 370.833 1208.99 l 2,61,62
 365.493 1218.39 365.493 1218.39 368.145 1228.04 c 128,-1,63
 370.797 1237.68 370.797 1237.68 378.296 1242.36 c 0,0,1
EndSplineSet
EndChar

StartChar: acute
Encoding: 180 180 117
Width: 1228
Flags: W
LayerCount: 2
Fore
SplineSet
480.973 1103.63 m 2,0,-1
 633.973 1302.63 l 2,1,2
 641.179 1312 641.179 1312 653 1312 c 2,3,-1
 799 1312 l 2,4,5
 809 1312 809 1312 816 1305 c 128,-1,6
 823 1298 823 1298 823 1288 c 0,7,8
 823 1276.22 823 1276.22 813.675 1269.01 c 0,9,10
 791.781 1252.09 791.781 1252.09 568.134 1070.37 c 0,11,12
 561.521 1065 561.521 1065 553 1065 c 2,13,-1
 500 1065 l 2,14,15
 490 1065 490 1065 483 1072 c 128,-1,16
 476 1079 476 1079 476 1089 c 0,17,18
 476 1097.16 476 1097.16 480.973 1103.63 c 2,0,-1
EndSplineSet
EndChar

StartChar: micro
Encoding: 181 181 118
Width: 1228
Flags: W
LayerCount: 2
Fore
SplineSet
457.05 -8.5296 m 0,0,1
 394.886 35.8744 394.886 35.8744 351.063 110 c 1,2,-1
 345 110 l 1,3,-1
 345 -337 l 2,4,5
 345 -347 345 -347 338 -354 c 128,-1,6
 331 -361 331 -361 321 -361 c 2,7,-1
 264 -361 l 2,8,9
 254 -361 254 -361 247 -354 c 128,-1,10
 240 -347 240 -347 240 -337 c 2,11,-1
 240 805 l 1,12,-1
 86 805 l 2,13,14
 76 805 76 805 69 812 c 128,-1,15
 62 819 62 819 62 829 c 2,16,-1
 62 881 l 2,17,18
 62 891 62 891 69 898 c 128,-1,19
 76 905 76 905 86 905 c 2,20,-1
 321 905 l 2,21,22
 331 905 331 905 338 898 c 128,-1,23
 345 891 345 891 345 881 c 2,24,-1
 345 394 l 2,25,26
 345 295.957 345 295.957 357.783 244.821 c 0,27,28
 370.011 195.909 370.011 195.909 404.887 148.821 c 1,29,30
 419.36 131.392 419.36 131.392 435.038 117.21 c 0,31,32
 510.438 49 510.438 49 621 49 c 0,33,34
 696.336 49 696.336 49 761.267 81.4663 c 0,35,36
 762.956 82.3109 762.956 82.3109 766.646 83.479 c 0,37,38
 851.939 125.39 851.939 125.39 890.29 237.762 c 0,39,40
 913 303.997 913 303.997 913 394 c 2,41,-1
 913 805 l 1,42,-1
 760 805 l 2,43,44
 750 805 750 805 743 812 c 128,-1,45
 736 819 736 819 736 829 c 2,46,-1
 736 881 l 2,47,48
 736 891 736 891 743 898 c 128,-1,49
 750 905 750 905 760 905 c 2,50,-1
 995 905 l 2,51,52
 1005 905 1005 905 1012 898 c 128,-1,53
 1019 891 1019 891 1019 881 c 2,54,-1
 1019 75 l 1,55,-1
 1174 75 l 2,56,57
 1184 75 1184 75 1191 68 c 128,-1,58
 1198 61 1198 61 1198 51 c 2,59,-1
 1198 0 l 2,60,61
 1198 -10 1198 -10 1191 -17 c 128,-1,62
 1184 -24 1184 -24 1174 -24 c 2,63,-1
 937 -24 l 2,64,65
 927 -24 927 -24 920 -17 c 128,-1,66
 913 -10 913 -10 913 0 c 2,67,-1
 913 125 l 1,68,-1
 905.616 125 l 1,69,70
 883.053 88.2135 883.053 88.2135 857.804 58.9105 c 0,71,72
 757.928 -57 757.928 -57 617 -57 c 0,73,74
 531.369 -57 531.369 -57 463.227 -11.7576 c 0,75,76
 459.282 -10.1236 459.282 -10.1236 457.05 -8.5296 c 0,0,1
EndSplineSet
EndChar

StartChar: paragraph
Encoding: 182 182 119
Width: 1228
Flags: W
LayerCount: 2
Fore
SplineSet
350 841 m 2,0,1
 350 684.688 350 684.688 445.958 654.97 c 0,2,3
 489.559 642.05 489.559 642.05 573 645.684 c 1,4,-1
 573 1096.52 l 1,5,6
 456.97 1091.67 456.97 1091.67 403.485 1042.99 c 128,-1,7
 350 994.316 350 994.316 350 897 c 2,8,-1
 350 841 l 2,0,1
224.05 735.148 m 0,9,10
 207.967 779.823 207.967 779.823 204.044 844.548 c 0,11,12
 204 845.274 204 845.274 204 846 c 2,13,-1
 204 886 l 2,14,15
 204 886.982 204 886.982 204.08 887.961 c 0,16,17
 209.347 952.214 209.347 952.214 228.482 1004.3 c 0,18,19
 298.289 1193 298.289 1193 571 1193 c 2,20,-1
 1023 1193 l 2,21,22
 1033 1193 1033 1193 1040 1186 c 128,-1,23
 1047 1179 1047 1179 1047 1169 c 2,24,-1
 1047 1121 l 2,25,26
 1047 1111 1047 1111 1040 1104 c 128,-1,27
 1033 1097 1033 1097 1023 1097 c 2,28,-1
 942 1097 l 1,29,-1
 942 -98 l 1,30,-1
 1032 -98 l 2,31,32
 1042 -98 1042 -98 1049 -105 c 128,-1,33
 1056 -112 1056 -112 1056 -122 c 2,34,-1
 1056 -167 l 2,35,36
 1056 -177 1056 -177 1049 -184 c 128,-1,37
 1042 -191 1042 -191 1032 -191 c 2,38,-1
 831 -191 l 2,39,40
 821 -191 821 -191 814 -184 c 128,-1,41
 807 -177 807 -177 807 -167 c 2,42,-1
 807 -122 l 2,43,44
 807 -112 807 -112 814 -105 c 128,-1,45
 821 -98 821 -98 831 -98 c 2,46,-1
 848 -98 l 1,47,-1
 848 1097 l 1,48,-1
 667 1097 l 1,49,-1
 667 -98 l 1,50,-1
 685 -98 l 2,51,52
 695 -98 695 -98 702 -105 c 128,-1,53
 709 -112 709 -112 709 -122 c 2,54,-1
 709 -167 l 2,55,56
 709 -177 709 -177 702 -184 c 128,-1,57
 695 -191 695 -191 685 -191 c 2,58,-1
 463 -191 l 2,59,60
 453 -191 453 -191 446 -184 c 128,-1,61
 439 -177 439 -177 439 -167 c 2,62,-1
 439 -122 l 2,63,64
 439 -112 439 -112 446 -105 c 128,-1,65
 453 -98 453 -98 463 -98 c 2,66,-1
 573 -98 l 1,67,-1
 573 542.465 l 1,68,69
 542.696 541 542.696 541 507 541 c 0,70,71
 380.3 541 380.3 541 285.308 632.756 c 0,72,73
 247.384 669.563 247.384 669.563 225.494 728.664 c 0,74,75
 224.507 731.328 224.507 731.328 224.05 735.148 c 0,9,10
EndSplineSet
EndChar

StartChar: periodcentered
Encoding: 183 183 120
Width: 1228
Flags: W
LayerCount: 2
Fore
SplineSet
512.898 529.459 m 1,0,1
 467 569.067 467 569.067 467 630 c 0,2,3
 467 695.62 467 695.62 518.984 736.723 c 0,4,5
 568.467 777 568.467 777 633 777 c 128,-1,6
 697.688 777 697.688 777 746.234 736.546 c 0,7,8
 797 695.448 797 695.448 797 632 c 0,9,10
 797 567.59 797 567.59 745.046 525.302 c 0,11,12
 694.38 485 694.38 485 632 485 c 0,13,14
 568.765 485 568.765 485 517.265 525.056 c 1,15,-1
 512.898 529.459 l 1,0,1
EndSplineSet
EndChar

StartChar: cedilla
Encoding: 184 184 121
Width: 1228
Flags: W
LayerCount: 2
Fore
SplineSet
537.241 -174.606 m 0,0,1
 538.372 -166.693 538.372 -166.693 563.231 11.3197 c 0,2,3
 564.459 20.1169 564.459 20.1169 571.336 26.0585 c 128,-1,4
 578.212 32 578.212 32 587 32 c 2,5,-1
 641 32 l 2,6,7
 651.872 32 651.872 32 658.974 23.5245 c 128,-1,8
 666.077 15.049 666.077 15.049 664.812 5.00267 c 2,9,-1
 649.871 -113.698 l 1,10,11
 690.969 -118.598 690.969 -118.598 725.646 -126.687 c 0,12,13
 819.559 -148.595 819.559 -148.595 868.541 -194.61 c 0,14,15
 903 -227.791 903 -227.791 903 -263 c 0,16,17
 903 -290.327 903 -290.327 898.053 -315.608 c 0,18,19
 892.147 -345.794 892.147 -345.794 866.971 -370.971 c 0,20,21
 843.434 -394.507 843.434 -394.507 810.762 -407.343 c 0,22,23
 755.537 -429 755.537 -429 694 -429 c 0,24,25
 635.551 -429 635.551 -429 601.23 -424.84 c 0,26,27
 554.562 -419.654 554.562 -419.654 435.853 -388.199 c 0,28,29
 425.948 -385.575 425.948 -385.575 421.234 -376.296 c 128,-1,30
 416.52 -367.017 416.52 -367.017 418.883 -358.549 c 2,31,-1
 430.883 -315.549 l 2,32,33
 433.646 -305.648 433.646 -305.648 443.011 -300.991 c 128,-1,34
 452.375 -296.334 452.375 -296.334 461.191 -299.103 c 0,35,36
 578.682 -336 578.682 -336 676 -336 c 0,37,38
 791.341 -336 791.341 -336 799.335 -293.005 c 0,39,40
 802.891 -269.858 802.891 -269.858 781.58 -251.374 c 128,-1,41
 760.268 -232.891 760.268 -232.891 701.904 -219.55 c 0,42,43
 687.876 -216.343 687.876 -216.343 672.235 -213.704 c 0,44,45
 626.35 -206.87 626.35 -206.87 559.24 -201.935 c 0,46,47
 548.934 -201.178 548.934 -201.178 542.373 -192.894 c 128,-1,48
 535.812 -184.61 535.812 -184.61 537.241 -174.606 c 0,0,1
EndSplineSet
EndChar

StartChar: onesuperior
Encoding: 185 185 122
Width: 1228
Flags: W
LayerCount: 2
Fore
SplineSet
391.167 1210.89 m 2,0,-1
 627.167 1316.89 l 2,1,2
 631.858 1319 631.858 1319 637 1319 c 2,3,-1
 663 1319 l 2,4,5
 673 1319 673 1319 680 1312 c 128,-1,6
 687 1305 687 1305 687 1295 c 2,7,-1
 687 597 l 1,8,-1
 879 597 l 2,9,10
 889 597 889 597 896 590 c 128,-1,11
 903 583 903 583 903 573 c 2,12,-1
 903 537 l 2,13,14
 903 527 903 527 896 520 c 128,-1,15
 889 513 889 513 879 513 c 2,16,-1
 404 513 l 2,17,18
 394 513 394 513 387 520 c 128,-1,19
 380 527 380 527 380 537 c 2,20,-1
 380 573 l 2,21,22
 380 583 380 583 387 590 c 128,-1,23
 394 597 394 597 404 597 c 2,24,-1
 601 597 l 1,25,-1
 601 1213.93 l 1,26,27
 540.271 1187.81 540.271 1187.81 426.039 1135.2 c 0,28,29
 416.565 1131.22 416.565 1131.22 407.356 1134.88 c 128,-1,30
 398.148 1138.54 398.148 1138.54 394.269 1146.81 c 2,31,-1
 379.269 1178.81 l 2,32,33
 375.233 1188.84 375.233 1188.84 379.157 1198.05 c 128,-1,34
 383.081 1207.26 383.081 1207.26 391.167 1210.89 c 2,0,-1
EndSplineSet
EndChar

StartChar: ordmasculine
Encoding: 186 186 123
Width: 1228
Flags: W
LayerCount: 2
Fore
SplineSet
871 552 m 2,0,-1
 394 552 l 2,1,2
 384 552 384 552 377 559 c 128,-1,3
 370 566 370 566 370 576 c 2,4,-1
 370 603 l 2,5,6
 370 613 370 613 377 620 c 128,-1,7
 384 627 384 627 394 627 c 2,8,-1
 871 627 l 2,9,10
 881 627 881 627 888 620 c 128,-1,11
 895 613 895 613 895 603 c 2,12,-1
 895 576 l 2,13,14
 895 566 895 566 888 559 c 128,-1,15
 881 552 881 552 871 552 c 2,0,-1
765.781 1106.07 m 1,16,17
 713.382 1154 713.382 1154 632 1154 c 0,18,19
 548.948 1154 548.948 1154 492.692 1101.75 c 1,20,21
 440 1048.6 440 1048.6 440 969.5 c 128,-1,22
 440 890.398 440 890.398 492.758 837.182 c 1,23,24
 548.064 785 548.064 785 632.5 785 c 0,25,26
 717.172 785 717.172 785 771.17 838.11 c 128,-1,27
 825 891.055 825 891.055 825 970 c 0,28,29
 825 1048.71 825 1048.71 769.448 1101.62 c 1,30,-1
 765.781 1106.07 l 1,16,17
831.34 782.422 m 0,31,32
 753.432 710 753.432 710 631 710 c 128,-1,33
 508.48 710 508.48 710 432.543 781.531 c 0,34,35
 356 853.633 356 853.633 356 969 c 128,-1,36
 356 1084.31 356 1084.31 432.973 1157.4 c 0,37,38
 509.421 1230 509.421 1230 630.5 1230 c 128,-1,39
 751.484 1230 751.484 1230 829.406 1157.02 c 0,40,41
 908 1083.4 908 1083.4 908 970 c 0,42,43
 908 860.793 908 860.793 835.747 787.725 c 0,44,45
 833.047 784.008 833.047 784.008 831.34 782.422 c 0,31,32
EndSplineSet
EndChar

